<?xml version="1.0" encoding="utf-8"?>
<!-- Generator: Adobe Illustrator 16.0.0, SVG Export Plug-In . SVG Version: 6.00 Build 0)  -->
<!DOCTYPE svg PUBLIC "-//W3C//DTD SVG 1.1//EN" "http://www.w3.org/Graphics/SVG/1.1/DTD/svg11.dtd">
<svg version="1.1" id="Layer_1" xmlns="http://www.w3.org/2000/svg" xmlns:xlink="http://www.w3.org/1999/xlink" x="0px" y="0px"
	 width="366.954px" height="244.969px" viewBox="0 0 366.954 244.969" enable-background="new 0 0 366.954 244.969"
	 xml:space="preserve">
<g>
	<g>
		<path fill-rule="evenodd" clip-rule="evenodd" fill="#F4F6F8" d="M139.982,1c75.99,0,151.981,0,227.972,0
			c0.888,1.561,0.468,3.264,0.469,4.897c0.022,77.949,0.021,155.899,0.019,233.849c0,6.189-0.007,6.217-6.39,6.217
			c-118.258,0.008-236.515,0.008-354.771-0.016c-2.121,0-4.368,0.494-6.28-0.979c0-28.663,0-57.325,0-85.988
			c6.462-5.374,14.44-8.177,21.441-12.648c21.411-13.676,41.305-29.222,58.618-47.875c5.016-5.404,8.361-11.981,10.827-18.957
			c0.48-0.886,1.079-1.679,1.813-2.37c2.776-2.104,5.838-3.775,8.74-5.693c8.057-5.325,13.635-12.621,18.914-20.668
			c9.596-14.632,14.909-30.546,17.478-47.609C138.958,2.307,139.419,1.624,139.982,1z"/>
		<path fill-rule="evenodd" clip-rule="evenodd" fill="#F4F6F8" d="M1,111.986C1,76.157,1.046,40.328,0.916,4.5
			C0.905,1.517,1.516,0.9,4.5,0.915C33.329,1.057,62.159,1,90.989,1c4.577,3.697,5.843,9.195,7.219,14.383
			c5.562,20.965,3.118,41.412-4.739,61.388c-0.281,0.449-0.567,0.901-0.844,1.354c-8.836,5.693-17.752,11.236-28.234,13.502
			c-1.295-0.348-1.933-1.612-2.918-2.415c-1.984,3.143-3.602,6.278-6.83,8.049c-15.619,6.641-32.085,10.506-48.407,14.831
			C4.571,112.533,2.71,113.376,1,111.986z"/>
		<path fill-rule="evenodd" clip-rule="evenodd" fill="#F4F6F8" d="M1,156.98c0-14.331,0-28.664,0-42.995
			c3.799-3.407,8.885-3.45,13.384-4.564c13.679-3.384,27.07-7.545,40.182-12.643c2.036-0.873,4.178-1.229,6.273-0.448
			c3.504,1.307,3.736-0.766,3.651-3.305c5.293-4,11.671-5.955,17.382-9.177c2.722-1.536,5.564-2.875,8.416-4.175
			c0.52,0.017,0.905,0.253,1.158,0.707c-1.367,7.853-5.839,14.122-11.106,19.601c-21.288,22.144-45.36,40.714-72.619,55.002
			C5.703,156.042,3.825,158.341,1,156.98z"/>
		<path fill-rule="evenodd" clip-rule="evenodd" fill="#F4F6F8" d="M92.988,1c14.998,0,29.996,0,44.995,0
			c1.572,2.102,1.055,4.438,0.687,6.722c-3.137,19.48-11.458,36.701-23.003,52.493c-5.034,6.886-12.222,11.188-19.24,15.651
			c-1.885,1.2-2.855,0.522-2.367-1.75c0.315-1.467,0.883-2.864,1.347-4.289c5.736-17.602,6.783-35.422,2.582-53.508
			c-1.027-4.423-3.241-8.371-4.837-12.565C92.8,2.831,92.167,1.973,92.988,1z"/>
		<path fill-rule="evenodd" clip-rule="evenodd" fill="#FEFEFE" d="M1,244.969c120.054,0,240.108,0,360.162,0
			c6.787,0,6.791-0.004,6.791-6.691c0.001-79.092,0.001-158.185,0.001-237.277c1.596-0.342,0.979,0.893,0.979,1.5
			c0.022,80.656,0.01,161.313,0.081,241.97c0.002,2.146-0.402,2.637-2.562,2.564c-5.826-0.192-11.663-0.065-17.496-0.065
			c-114.651,0-229.305,0.008-343.957-0.104C3.747,246.865,0.685,248.932,1,244.969z"/>
		<path fill-rule="evenodd" clip-rule="evenodd" fill="#ECEEF0" d="M92.988,1c2.686,7.464,6.479,14.541,7.388,22.614
			c0.99,8.788,0.671,17.547,0.17,26.341c-0.503,8.832-3.052,17.15-5.563,25.638c27.446-17.326,40.051-43.162,43-74.594
			c0.667,0,1.333,0,2,0c-4.248,32.284-15.608,60.319-45.991,76.993c-0.85,0.039-1.461-0.398-1.993-0.996
			c5.51-12.482,7.452-25.764,7.868-39.194C100.267,24.854,96.933,12.549,90.989,1C91.655,1,92.322,1,92.988,1z"/>
		<path fill-rule="evenodd" clip-rule="evenodd" fill="#EBEDEF" d="M1,156.98c12.974-4.984,24.567-12.512,35.691-20.574
			c15.028-10.891,29.7-22.334,42.375-36.036c5.45-5.892,10.082-12.338,11.921-20.379c0.661-0.529,1.323-0.625,1.988-0.009
			c-4.547,15.479-16.26,25.667-27.563,35.756c-12.314,10.991-25.388,21.211-39.521,29.892C17.863,150.562,9.818,155.503,1,158.98
			C1,158.313,1,157.647,1,156.98z"/>
		<path fill-rule="evenodd" clip-rule="evenodd" fill="#ECEEF0" d="M55.115,96.7c-8.68,4.998-18.376,7.278-27.811,10.181
			c-8.675,2.671-17.529,4.76-26.305,7.105c0-0.667,0-1.333,0-2c18.299-4.442,36.414-9.508,54.12-15.961
			C55.118,96.251,55.117,96.476,55.115,96.7z"/>
		<path fill-rule="evenodd" clip-rule="evenodd" fill="#E6E8E9" d="M92.976,79.982c-0.663,0.003-1.326,0.006-1.988,0.009l0,0
			c-0.645-1.15,0.455-1.443,0.989-2.015c0.005-0.326,0.013-0.653,0.022-0.979c0.821,0.019,1.554,0.213,1.993,0.996
			C93.653,78.656,93.314,79.319,92.976,79.982z"/>
		<path fill-rule="evenodd" clip-rule="evenodd" fill="#14A1BB" d="M55.115,96.7c0.119-0.223,0.121-0.449,0.004-0.674
			c2.136-2.871,4.271-5.742,6.399-8.602c1.865,0.615,1.48,2.616,2.598,3.556c0.497,0.579,0.922,1.189,0.891,2.004
			c0.49,1.703,0.979,3.405,1.6,5.561C62.55,97.893,58.833,97.296,55.115,96.7z"/>
		<path fill-rule="evenodd" clip-rule="evenodd" fill="#EBEDEF" d="M65.007,92.983c-0.297-0.668-0.594-1.336-0.891-2.004
			c8.974-2.707,16.884-7.679,25.18-11.83c0.871-0.436,1.786-0.784,2.68-1.173c-0.33,0.672-0.659,1.344-0.989,2.015
			C82.328,84.322,73.667,88.653,65.007,92.983z"/>
	</g>
</g>
</svg>
