<?xml version="1.0" encoding="utf-8"?>
<!-- Generator: Adobe Illustrator 16.0.0, SVG Export Plug-In . SVG Version: 6.00 Build 0)  -->
<!DOCTYPE svg PUBLIC "-//W3C//DTD SVG 1.1//EN" "http://www.w3.org/Graphics/SVG/1.1/DTD/svg11.dtd">
<svg version="1.1" id="Layer_1" xmlns="http://www.w3.org/2000/svg" xmlns:xlink="http://www.w3.org/1999/xlink" x="0px" y="0px"
	 width="2468.691px" height="1526.81px" viewBox="0 0 2468.691 1526.81" enable-background="new 0 0 2468.691 1526.81"
	 xml:space="preserve">
<g>
	<g>
		<path fill-rule="evenodd" clip-rule="evenodd" fill="#FFFFFF" d="M1175.853,1529.809c-106.987,0-213.973,0-320.96,0
			c-0.506-0.744-0.472-1.463,0.093-2.159c2.285-2.32,5.341-2.501,8.293-2.972c10.32-1.641,19.705-5.622,28.119-11.732
			c20.309-14.749,26.939-52.674-6.11-68.471c-14.096-6.737-29.436-9.578-44.189-14.25c-4.06-1.285-8.18-2.428-11.853-4.604
			c-10.556-6.251-10.468-19.59,0.391-25.372c9.159-4.877,19.174-5.13,29.262-3.784c11.2,1.492,22.207,3.868,32.422,8.826
			c4.706,2.283,6.828,0.991,8.025-3.742c0.856-3.386,1.829-6.754,2.843-10.104c2.992-9.892,3.031-10.352-6.533-13.494
			c-25.502-8.38-51.369-11.201-77.06-1.397c-25.931,9.896-35.245,39.337-20.275,61.785c5.761,8.64,14.546,12.802,23.879,15.876
			c10.68,3.518,21.626,6.179,32.519,8.979c5.861,1.507,11.488,3.567,16.535,6.896c8.252,5.438,9.07,15.684,1.733,22.372
			c-5.559,5.067-12.301,7.384-19.814,7.818c-15.6,0.902-30.278-2.301-44.251-9.221c-7.526-3.727-8.035-3.394-10.142,4.524
			c-0.322,1.208-0.607,2.425-0.911,3.637c-3.892,15.508-3.905,15.546,11.033,20.377c7.375,2.385,14.823,4.525,22.575,5.362
			c2.514,0.271,4.95,0.778,6.835,2.682c0.566,0.703,0.592,1.426,0.083,2.168c-62.492,0-124.984,0-187.477,0
			c-0.5-0.765-0.432-1.476,0.198-2.134c7.359-3.932,15.846-4.022,23.543-7.052c17.589-6.921,29.187-21.565,29.739-38.639
			c0.627-19.415-6.645-30.817-24.624-38.636c-12.427-5.404-25.649-8.289-38.564-12.142c-4.791-1.43-9.609-2.754-14.119-4.96
			c-5.541-2.711-9.558-6.688-9.168-13.297c0.39-6.6,4.094-11.241,10.18-13.604c7.791-3.026,15.959-4.198,24.286-3.235
			c11.689,1.352,23.319,3.256,34.002,8.483c5.347,2.617,7.92,1.627,9.906-4.158c6.656-19.391,6.656-20.074-13.225-25.38
			c-19.052-5.083-38.469-6.123-57.807-1.908c-17.815,3.884-31.073,13.446-35.632,32.229c-5.156,21.243,4.573,39.804,25.088,47.405
			c12.191,4.517,24.964,7.145,37.428,10.788c5.511,1.61,11.124,2.993,15.892,6.427c9.216,6.637,9.293,17.771,0.037,24.439
			c-5.65,4.07-12.222,5.4-19.077,5.853c-15.628,1.029-30.225-2.622-44.213-9.316c-6.851-3.279-7.159-3.11-9.097,4.117
			c-0.711,2.653-1.344,5.328-2.006,7.995c-2.582,10.409-2.044,11.432,8.229,15.431c7.96,3.099,16.278,4.8,24.663,6.216
			c3.196,0.539,6.476,0.782,9.155,2.933c0.63,0.665,0.69,1.381,0.189,2.144c-211.301,0-422.602,0-634.42,0
			c0-94.487,0-188.977,0-283.465c2.896-2.559,6.478-2.337,9.958-2.369c9.494-0.087,18.99,0.086,28.483-0.074
			c7.664-0.13,8.547-0.943,8.596-8.775c0.15-24.236,0.039-48.472,0.063-72.708c0.003-2.997-0.033-5.994,0.334-8.981
			c0.499-4.051,2.748-6.25,6.799-6.69c2.242-0.244,4.488-0.28,6.736-0.28c34.23-0.012,68.46-0.047,102.69,0.016
			c12.772,0.023,14.153,1.418,14.194,14.226c0.077,23.986-0.013,47.972,0.04,71.958c0.024,10.828,0.463,11.229,11.527,11.268
			c8.745,0.029,17.49-0.015,26.234-0.001c4.622,0.007,7.013-1.876,6.874-6.665c-0.058-1.994,0.043-3.996,0.043-5.996
			c0.001-68.209,0.001-136.42,0.001-204.631c0-1.498,0.025-2.998-0.02-4.496c-0.238-7.896-0.89-8.682-8.55-8.818
			c-8.993-0.161-17.991-0.16-26.983-0.002c-8.11,0.143-9.035,1.004-9.088,9.171c-0.144,22.237-0.04,44.474-0.055,66.711
			c-0.002,2.999,0.069,5.999-0.063,8.994c-0.396,9.003-2.114,10.921-11.35,10.972c-35.729,0.195-71.458,0.178-107.187,0.01
			c-9.55-0.045-11.985-2.504-12.087-12.129c-0.255-24.234-0.035-48.471-0.109-72.707c-0.033-10.629-0.432-11.001-10.886-11.061
			c-8.745-0.05-17.49,0.04-26.234-0.04c-3.481-0.032-7.063,0.19-9.96-2.37c0-336.404,0-672.808,0-1009.293
			c822.713,0,1645.426,0,2468.691,0c0,408.369,0,816.818,0,1225.267c-0.879,0.474-1.618,0.312-2.221-0.481
			c-2.239-4.902-1.368-10.324-2.561-15.43c-0.826-3.541-2.211-5.665-6.061-4.367c-27.031,9.113-46.77-4.457-65.474-21.063
			c-6.726-5.971-12.974-12.462-19.137-19.006c-5.515-5.856-5.012-7.728,2.622-9.808c14.493-3.947,27.211-10.674,38.136-21.261
			c30.52-29.577,28.041-96.6-26.722-115.44c-13.309-4.58-27.052-7.002-41.177-6.998c-31.975,0.009-63.949-0.014-95.925,0.013
			c-9.975,0.007-10.314,0.308-10.318,9.897c-0.025,70.445-0.023,140.89-0.002,211.334c0.003,9.677,0.313,9.937,10.242,9.979
			c8.493,0.035,16.986,0.058,25.48-0.008c8.836-0.068,9.468-0.641,9.495-9.305c0.065-20.982-0.014-41.967,0.035-62.949
			c0.028-12.208,1.09-12.378,13.239-13.423c13.467-1.159,21.285,6.989,29.18,15.313c15.791,16.651,30.29,34.527,48.131,49.205
			c17.191,14.145,35.651,24.875,58.875,24.16c9.08-0.28,17.785-2.397,26.311-5.4c2.532-0.893,4.924-2.641,7.85-1.464
			c0,96.488,0,192.976,0,289.464c-425.947,0-851.894,0-1277.84,0c-0.506-0.744-0.473-1.463,0.093-2.159
			c2.496-2.52,5.877-2.434,9.023-3.104c14.254-3.041,27.119-8.406,36.084-20.776c14.763-20.372,9.186-46.052-12.859-58.23
			c-11.506-6.356-24.368-8.83-36.767-12.618c-6.205-1.896-12.586-3.256-18.529-5.947c-7.522-3.405-10.602-7.95-10.41-14.841
			c0.208-7.491,5.151-11.093,11.256-13.395c7.845-2.957,16.092-3.617,24.367-2.519c11.66,1.547,23.278,3.57,33.865,9.019
			c4.579,2.356,6.726,1.575,7.865-3.477c1.096-4.863,3.049-9.504,4.489-14.289c1.242-4.122-0.061-6.574-4.08-8.166
			c-16.274-6.44-33.254-8.813-50.597-8.526c-12.811,0.212-25.239,2.258-36.753,8.727c-14.437,8.11-20.748,21.017-20.69,36.572
			c0.058,15.58,7.542,27.467,22.113,34.626c11.61,5.703,24.357,7.298,36.434,11.257c6.63,2.174,13.563,3.438,19.702,7.023
			c10.935,6.389,11.483,18.13,1.073,25.488c-10.68,7.549-22.79,6.484-34.721,5.113c-9.979-1.148-19.539-4.177-28.311-9.258
			c-4.732-2.741-7.473-1.566-8.422,3.851c-0.258,1.472-0.74,2.903-1.075,4.364c-3.55,15.489-7.285,15.236,11.594,21.291
			c7.136,2.289,14.346,4.335,21.844,5.126c2.513,0.265,4.947,0.778,6.83,2.681
			C1176.335,1528.343,1176.361,1529.066,1175.853,1529.809z"/>
		<path fill-rule="evenodd" clip-rule="evenodd" fill="#0D9EBA" d="M2470.191,1240.345c-24.76,12.474-49.353,12.398-73.72-1.071
			c-13.69-7.568-25.382-17.73-36.237-28.826c-10.479-10.71-20.675-21.702-30.783-32.764c-4.569-5-9.634-9.418-14.59-13.982
			c-2.15-1.979-4.547-2.809-7.486-2.707c-4.743,0.164-9.507,0.238-14.242-0.016c-3.686-0.197-4.749,1.293-4.707,4.789
			c0.143,11.746,0.051,23.495,0.05,35.242c-0.001,12.998,0.038,25.995-0.018,38.992c-0.025,5.888-0.108,5.996-5.625,6.025
			c-12.747,0.068-25.496-0.088-38.24,0.086c-3.848,0.053-5.611-1.172-5.155-5.124c0.143-1.233,0.021-2.496,0.021-3.747
			c0-72.734-0.009-145.469,0.011-218.203c0.002-9.107-1.045-8.459,8.445-8.463c31.494-0.012,62.987-0.043,94.48,0.012
			c17.353,0.029,34.321,2.247,50.575,8.816c33.67,13.607,47.476,43.904,43.362,77.915c-3.609,29.849-26.592,54.658-60.834,62.04
			c-0.959,0.206-1.93,0.363-2.89,0.543c-0.308,2.609,1.831,3.538,3.143,4.865c8.788,8.878,17.482,17.867,27.272,25.679
			c3.121,2.489,6.368,4.827,9.617,7.153c14.251,10.207,29.732,12.175,46.293,6.85c1.896-0.609,3.815-1.157,5.747-1.643
			c0.429-0.108,0.953,0.169,1.774,0.34c1.354,7.713,2.206,15.592,2.549,23.532c0.473,0.854,0.4,1.791,0.412,2.714
			c0.083,1.19-0.271,2.479,0.775,3.453C2470.191,1235.346,2470.191,1237.846,2470.191,1240.345z"/>
		<path fill-rule="evenodd" clip-rule="evenodd" fill="#0D9EBA" d="M1.5,1010.873c14.98-0.099,29.962-0.125,44.941-0.35
			c3.445-0.053,5.006,0.874,4.846,4.609c-0.246,5.734-0.06,11.488-0.06,17.234c0,21.982-0.018,43.965,0.009,65.947
			c0.01,7.774-1.229,8.012,8.276,8.004c36.721-0.023,73.442-0.002,110.163-0.016c7.513-0.002,7.534-0.035,7.537-7.889
			c0.01-26.979-0.009-53.958,0.013-80.938c0.005-6.84,0.057-6.877,7.002-6.896c11.741-0.03,23.482-0.035,35.222,0.003
			c6.729,0.022,6.773,0.07,6.777,7.122c0.017,32.724,0.007,65.448,0.007,98.172c0,40.219,0,80.438,0,120.656
			c0,1.498-0.142,3.013,0.025,4.492c0.449,3.997-1.391,5.136-5.191,5.086c-12.738-0.167-25.479-0.016-38.219-0.084
			c-5.507-0.03-5.607-0.14-5.616-6.029c-0.039-27.729,0.003-55.457-0.029-83.186c-0.01-8.977,0.913-8.236-7.824-8.242
			c-36.721-0.021-73.442-0.008-110.163-0.008c-0.75,0-1.5-0.018-2.249,0.003c-5.613,0.152-5.714,0.155-5.723,5.921
			c-0.039,27.229-0.018,54.458-0.018,81.686c0,1.749-0.138,3.51,0.022,5.244c0.337,3.639-1.289,4.729-4.807,4.691
			c-13.487-0.149-26.978-0.067-40.467-0.044c-1.492,0.003-2.983,0.183-4.475,0.28C1.5,1167.854,1.5,1089.364,1.5,1010.873z"/>
		<path fill-rule="evenodd" clip-rule="evenodd" fill="#DEDEDE" d="M854.889,1528.307c0.001,0.501,0.003,1.001,0.004,1.502
			c-5.499,0-10.999,0-16.498,0c0.013-0.538,0.026-1.076,0.039-1.614C843.94,1525.092,849.426,1524.973,854.889,1528.307z"/>
		<path fill-rule="evenodd" clip-rule="evenodd" fill="#DFDFDF" d="M1175.853,1529.809c0.006-0.517,0.012-1.034,0.019-1.551
			c5.486-3.229,10.973-3.229,16.46,0c0.006,0.517,0.012,1.034,0.019,1.551C1186.852,1529.809,1181.352,1529.809,1175.853,1529.809z"
			/>
		<path fill-rule="evenodd" clip-rule="evenodd" fill="#DEDEDE" d="M650.927,1528.361c0.018,0.482,0.015,0.965-0.009,1.447
			c-5,0-9.999,0-14.998,0c-0.022-0.482-0.026-0.965-0.009-1.447C640.917,1525.091,645.923,1525.091,650.927,1528.361z"/>
		<path fill-rule="evenodd" clip-rule="evenodd" fill="#A9DCD7" d="M2468.854,1229.727c0.05-1.016,0.1-2.031,0.15-3.048
			c0.426-0.159,0.822-0.104,1.188,0.168c0,0.999,0,2,0,2.999C2469.678,1230.559,2469.234,1230.483,2468.854,1229.727z"/>
		<path fill-rule="evenodd" clip-rule="evenodd" fill="#75C3A0" d="M2468.854,1229.727c0.446,0.031,0.893,0.072,1.338,0.119
			c0,1,0,2,0,3C2468.902,1232.168,2468.642,1231.048,2468.854,1229.727z"/>
		<path fill-rule="evenodd" clip-rule="evenodd" fill="#0D9EBA" d="M853.536,444.365c-0.488-8.852,0.31-18.556,1.22-28.257
			c0.718-7.658,0.312-6.36-5.601-7.995c-15.91-4.401-30.163-11.746-42.399-22.959c-14.158-12.974-22.53-29.009-26.186-47.748
			c-5.015-25.708-1.387-49.707,13.933-71.365c6.987-9.878,15.502-18.106,26.159-24.236
			c135.755-78.084,271.445-156.281,407.152-234.448c1.083-0.623,2.286-1.095,3.235-1.877c4.095-3.37,7.737-2.547,12.156,0.007
			c97.315,56.245,194.713,112.35,292.103,168.466c38.522,22.197,77.009,44.457,115.618,66.5
			c23.616,13.482,38.432,33.522,42.906,60.087c4.668,27.705-0.424,53.833-18.646,76.171c-12.877,15.785-29.828,25.536-49.268,31.147
			c-1.198,0.346-2.396,0.75-3.625,0.921c-3.186,0.441-3.893,2.198-3.485,5.22c2.342,17.411,1.886,34.928,1.01,52.374
			c-1.953,38.893-10.074,76.631-23.011,113.311c-19.08,54.101-47.972,102.521-85.174,146.084
			c-40.284,47.173-87.797,85.804-140.249,118.55c-18.849,11.768-37.803,23.422-58.342,32.133
			c-19.452,8.252-39.727,13.026-60.827,14.713c-42.213,3.375-81.027-6.938-117.568-27.729
			c-44.664-25.412-86.896-54.201-124.941-88.849c-47.211-42.995-86.104-92.409-113.92-150.11
			c-20.758-43.059-34.354-88.285-39.706-135.893C854.461,474.186,853.143,459.783,853.536,444.365z"/>
		<path fill-rule="evenodd" clip-rule="evenodd" fill="#0D9EBA" d="M790.167,1089.361c-3.674,1.494-4.951,4.046-6.658,6.088
			c-22.89,27.413-45.731,54.867-68.583,82.312c-5.133,6.165-10.779,6.165-15.932-0.05c-22.791-27.495-45.568-55-68.356-82.498
			c-1.674-2.02-3.388-4.005-6.483-5.484c0,2.395,0,4.789,0,7.185c0,46.978,0,93.956-0.001,140.935c0,8.994,0.51,8.185-7.962,8.197
			c-11.745,0.018-23.49-0.104-35.232,0.065c-3.706,0.053-5.741-0.875-5.288-4.968c0.164-1.48,0.023-2.994,0.023-4.494
			c-0.001-72.217-0.001-144.434,0-216.65c0-1.5,0.159-3.019-0.026-4.494c-0.517-4.089,1.476-5.048,5.194-4.99
			c10.992,0.171,21.998,0.322,32.979-0.064c4.692-0.166,7.273,2.017,9.955,5.24c19.172,23.039,38.445,45.993,57.701,68.961
			c8.33,9.936,16.695,19.84,25.317,30.082c3.825-3.033,6.371-6.688,9.196-10.049c24.905-29.641,49.863-59.236,74.558-89.051
			c3.258-3.934,6.61-5.281,11.484-5.148c10.487,0.286,20.99,0.221,31.481,0.023c3.829-0.072,5.582,1.092,5.124,5.07
			c-0.199,1.727-0.03,3.494-0.03,5.244c0.001,71.717,0.001,143.434,0,215.15c0,1.749-0.111,3.507,0.019,5.246
			c0.255,3.383-0.827,4.954-4.608,4.899c-12.991-0.188-25.987-0.147-38.98-0.021c-3.375,0.033-5.266-0.823-4.913-4.579
			c0.164-1.733,0.023-3.495,0.023-5.245c-0.001-46.229-0.001-92.457-0.001-138.686
			C790.167,1095.117,790.167,1092.646,790.167,1089.361z"/>
		<path fill-rule="evenodd" clip-rule="evenodd" fill="#0D9EBA" d="M1380.319,1122.91c3.101,2.475,6.54,2.339,9.528,3.356
			c9.783,3.334,18.922,7.606,26.575,14.826c10.196,9.618,15.057,21.567,16.019,35.256c0.723,10.284,0.096,20.44-3.932,30.169
			c-6.769,16.352-19.401,26.214-35.443,32.361c-12.744,4.883-26.108,6.946-39.602,7.061c-37.488,0.316-74.98,0.12-112.472,0.101
			c-6.819-0.003-6.872-0.057-6.873-7.028c-0.013-73.731-0.008-147.463-0.006-221.194c0-1.499,0.029-2.999,0.048-4.498
			c0.022-1.845,1.022-2.681,2.803-2.702c1.5-0.018,2.999-0.043,4.498-0.043c30.493-0.002,60.985-0.023,91.478,0.008
			c12.784,0.014,25.396,1.401,37.769,4.795c33.979,9.32,51.733,42.316,40.674,75.637c-4.146,12.49-12.435,21.433-23.674,27.875
			C1385.408,1120.207,1383.051,1121.428,1380.319,1122.91z"/>
		<path fill-rule="evenodd" clip-rule="evenodd" fill="#0D9EBA" d="M279.775,1126.063c0.412-38.287,15.526-71.935,48.721-96.361
			c23.678-17.422,50.729-23.668,79.908-22.215c52.917,2.636,95.851,36.781,109.286,88.074
			c12.613,48.158-2.447,100.018-42.835,130.029c-21.815,16.211-46.564,23.691-73.505,23.857
			c-27.784,0.172-53.408-7.277-75.512-24.48C294.524,1200.597,280.053,1167.947,279.775,1126.063z"/>
		<path fill-rule="evenodd" clip-rule="evenodd" fill="#0D9EBA" d="M907.153,1128.619c0-35.99,0-71.981,0.001-107.972
			c0-1.75,0.134-3.512-0.024-5.247c-0.31-3.404,0.776-5.291,4.547-4.846c1.232,0.146,2.497,0.018,3.747,0.018
			c56.485,0,112.971-0.005,169.456,0.004c9.479,0.002,8.336-0.593,8.383,8.509c0.046,8.748,0.027,17.495,0.005,26.243
			c-0.021,8.367,0.826,7.924-8.252,7.924c-33.241,0.002-66.482,0-99.724,0c-8.998,0.001-17.999,0.144-26.992-0.063
			c-3.703-0.086-4.734,1.389-4.702,4.846c0.122,13.246,0.011,26.493,0.062,39.74c0.023,6.025,0.102,6.107,6.23,6.114
			c28.493,0.032,56.985,0.015,85.478,0.015c5.999,0,12,0.104,17.995-0.035c3.133-0.074,4.494,0.965,4.457,4.287
			c-0.129,11.494-0.167,22.994,0.017,34.488c0.063,3.924-1.857,4.514-5.088,4.455c-6.996-0.13-13.996-0.037-20.994-0.037
			c-26.993,0-53.986-0.002-80.979,0.001c-7.355,0.001-7.137-0.528-7.134,6.713c0.007,14.247,0.007,28.493,0.001,42.739
			c-0.004,6.83-0.302,6.517,6.554,6.516c40.739-0.006,81.479-0.053,122.218,0.027c12.518,0.023,10.716-1.805,10.84,10.51
			c0.093,9.247-0.099,18.498,0.073,27.742c0.066,3.562-1.169,5.125-4.762,4.756c-1.236-0.128-2.497-0.017-3.747-0.017
			c-56.485,0-112.971,0.008-169.456-0.009c-8.553-0.002-8.21,1.021-8.21-7.95C907.154,1201.6,907.153,1165.109,907.153,1128.619z"/>
		<path fill-rule="evenodd" clip-rule="evenodd" fill="#0D9EBA" d="M1999.018,1128.166c0-36.241-0.001-72.482,0-108.725
			c0-1.749,0.083-3.502,0.005-5.248c-0.112-2.478,0.854-3.749,3.472-3.613c1.744,0.09,3.498-0.007,5.248-0.007
			c56.237-0.001,112.474-0.001,168.71-0.001c1.5,0,3.008,0.107,4.497-0.012c3.346-0.269,4.26,1.377,4.228,4.486
			c-0.116,11.246-0.115,22.494,0,33.741c0.032,3.129-0.955,4.708-4.261,4.476c-1.74-0.122-3.497-0.012-5.248-0.012
			c-40.24,0-80.479,0-120.721,0.001c-1.749,0-3.503,0.083-5.247-0.005c-2.794-0.141-4.082,0.972-4.068,3.904
			c0.07,14.246,0.068,28.494,0.002,42.74c-0.013,2.803,0.972,4.195,3.903,4.016c1.743-0.105,3.498-0.006,5.247-0.004
			c31.992,0,63.985,0,95.978,0c1.749,0,3.505,0.105,5.246-0.009c2.888-0.189,3.992,1.09,3.975,3.942
			c-0.072,11.747-0.071,23.495,0.001,35.242c0.018,2.84-1.042,4.176-3.959,3.989c-1.743-0.111-3.498-0.008-5.248-0.008
			c-31.992,0.001-63.984,0.001-95.977,0.001c-1.75,0-3.505,0.095-5.247-0.004c-2.891-0.164-3.934,1.142-3.921,3.987
			c0.073,15.995,0.072,31.992-0.002,47.988c-0.013,2.815,0.941,4.188,3.875,4.001c1.742-0.111,3.497-0.008,5.247-0.008
			c40.74,0.001,81.48-0.008,122.221,0.008c8.845,0.004,8.145-0.8,8.16,7.98c0.018,9.997-0.141,19.998,0.072,29.991
			c0.084,3.97-1.396,5.137-5.222,5.105c-17.495-0.146-34.991-0.063-52.487-0.063c-39.74,0-79.48,0-119.222,0
			c-1.749-0.001-3.504-0.099-5.247,0.008c-2.848,0.174-4.176-1.021-4.019-3.92c0.095-1.744,0.009-3.497,0.009-5.248
			C1999.018,1200.648,1999.018,1164.407,1999.018,1128.166z"/>
		<path fill-rule="evenodd" clip-rule="evenodd" fill="#0D9EBA" d="M1696.197,1086.028c0,21.495,0.385,42.999-0.096,64.482
			c-0.619,27.571-9.953,51.765-30.056,71.212c-13.856,13.405-30.541,21.434-49.353,25.147c-23.434,4.627-46.682,4.124-69.51-3.335
			c-34.123-11.149-54.362-34.907-62.275-69.547c-2.173-9.511-3.017-19.209-3.012-28.979c0.02-42.24,0.008-84.479,0.009-126.72
			c0-1.249,0.09-2.505-0.003-3.748c-0.215-2.886,1.092-4,3.943-3.987c13.746,0.063,27.494,0.063,41.24,0
			c2.83-0.014,4.184,1.033,3.992,3.959c-0.112,1.742-0.008,3.498-0.008,5.248c0.001,41.989,0.039,83.979-0.038,125.969
			c-0.013,6.796,0.485,13.501,2.321,20.025c5.823,20.704,19.137,33.393,40.447,37.391c13.263,2.487,26.46,2.213,39.149-2.479
			c20.663-7.642,30.767-23.652,33.814-44.739c0.929-6.421,1.13-12.905,1.116-19.413c-0.086-39.241-0.054-78.482-0.034-117.723
			c0.004-8.882-0.753-8.195,7.925-8.215c10.996-0.025,21.994-0.023,32.991,0c7.384,0.016,7.422,0.041,7.428,7.217
			C1696.21,1040.539,1696.197,1063.284,1696.197,1086.028z"/>
		<path fill-rule="evenodd" clip-rule="evenodd" fill="#0D9EBA" d="M1846.264,1107.379c1.942-2.78,3.549-4.909,4.979-7.15
			c17.599-27.559,35.333-55.033,52.611-82.792c3.354-5.388,6.963-7.253,13.179-7.017c13.218,0.5,26.478,0.441,39.702,0.02
			c5.738-0.182,6.618,2.545,3.953,6.708c-1.211,1.893-2.433,3.778-3.677,5.648c-27.528,41.362-55.008,82.756-82.673,124.025
			c-2.792,4.165-3.958,8.243-3.923,13.206c0.18,25.726,0.084,51.452,0.082,77.178c0,1.748-0.053,3.498-0.01,5.244
			c0.062,2.465-1.009,3.609-3.556,3.601c-13.737-0.045-27.474-0.045-41.211,0.005c-2.476,0.008-3.728-0.941-3.666-3.489
			c0.042-1.747-0.016-3.496-0.016-5.244c-0.001-25.976-0.09-51.952,0.083-77.927c0.03-4.483-1.144-8.127-3.604-11.82
			c-27.963-41.965-55.834-83.992-83.63-126.07c-1.951-2.954-6.267-6.006-3.79-9.734c1.937-2.914,6.511-1.086,9.881-1.131
			c12.485-0.166,24.979,0.104,37.462-0.16c4.273-0.092,6.669,1.385,8.946,4.995c17.981,28.499,36.19,56.853,54.344,85.243
			C1843.037,1102.757,1844.454,1104.725,1846.264,1107.379z"/>
		<path fill-rule="evenodd" clip-rule="evenodd" fill="#3A3A3A" d="M1788.393,1423.349c-1.304,3.564-0.833,6.06-0.837,8.499
			c-0.04,28.476-0.025,56.95-0.026,85.425c0,1.749-0.054,3.499-0.004,5.245c0.063,2.222-1.026,3.148-3.176,3.144
			c-8.742-0.021-17.484-0.019-26.227-0.006c-2.189,0.003-3.16-1.061-3.092-3.222c0.048-1.497-0.004-2.998-0.004-4.496
			c-0.001-46.459-0.001-92.918-0.001-139.377c0-1,0.126-2.017-0.021-2.994c-0.62-4.161,1.489-5.093,5.187-4.963
			c5.987,0.211,12,0.284,17.979-0.026c3.912-0.202,6.36,1.207,8.839,4.207c22.113,26.753,44.4,53.364,66.644,80.011
			c4.938,5.916,9.907,11.809,14.88,17.732c2.47-1.788,1.428-3.962,1.432-5.756c0.078-29.225,0.056-58.449,0.056-87.674
			c0-1.748,0.06-3.498,0.006-5.244c-0.063-2.121,0.761-3.207,3.024-3.195c8.741,0.048,17.483,0.029,26.226,0.017
			c1.859-0.002,2.715,0.901,2.708,2.725c-0.006,1.498,0.022,2.997,0.022,4.495c0.001,46.709,0.001,93.419,0.001,140.127
			c0,1.249-0.097,2.507,0.012,3.745c0.248,2.838-0.869,4.012-3.82,3.953c-6.99-0.141-13.992-0.219-20.978,0.029
			c-3.716,0.131-5.22-2.432-7.095-4.672c-16.505-19.722-32.981-39.468-49.477-59.198
			C1810.105,1449.267,1799.544,1436.667,1788.393,1423.349z"/>
		<path fill-rule="evenodd" clip-rule="evenodd" fill="#3A3A3A" d="M1192.332,1528.258c-5.487,0-10.974,0-16.46,0
			c-12.312-1.99-24.586-4.072-36.257-8.775c-10.472-4.22-10.517-4.116-7.676-15.307c1.534-6.041,3.069-12.082,4.646-18.112
			c0.115-0.441,0.567-0.795,1.039-1.427c7.243,3.73,14.484,7.6,22.395,9.959c12.881,3.841,25.875,5.451,39.129,2.184
			c4.19-1.033,7.939-2.962,10.93-6.18c5.641-6.07,4.856-14.075-1.965-18.719c-3.525-2.398-7.451-4.035-11.566-5.172
			c-10.814-2.988-21.636-5.961-32.454-8.939c-4.331-1.192-8.596-2.537-12.715-4.381c-15.375-6.88-23.879-18.768-24.598-35.48
			c-0.688-16.014,5.32-29.226,18.923-38.501c7.808-5.324,16.557-8.34,25.737-9.606c23.181-3.2,45.772-0.567,67.512,8.31
			c6.042,2.466,6.048,2.613,4.235,8.544c-2.399,7.854-4.904,15.674-7.546,24.086c-9.416-4.744-18.751-8.57-28.738-10.547
			c-10.603-2.1-21.212-3.379-31.939-0.935c-3.672,0.837-7.238,1.939-10.18,4.437c-6.329,5.368-5.942,14.416,0.837,19.226
			c3.522,2.499,7.627,3.659,11.697,4.848c10.294,3.009,20.595,5.991,30.91,8.929c6.021,1.716,11.772,4.076,17.344,6.912
			c29.824,15.183,25.39,49.371,10.899,64.939c-9.816,10.546-22.202,15.792-36.043,18.282
			C1197.73,1527.316,1195.03,1527.782,1192.332,1528.258z"/>
		<path fill-rule="evenodd" clip-rule="evenodd" fill="#3A3A3A" d="M854.889,1528.307c-5.485-0.037-10.97-0.074-16.455-0.112
			c-12.607-1.851-25.08-4.24-36.975-9.023c-9.568-3.847-9.601-3.825-7.169-13.655c1.72-6.949,2.843-14.07,5.711-21.138
			c9.033,5.093,18.046,9.296,27.803,11.648c11.05,2.664,22.155,3.581,33.354,0.915c3.943-0.938,7.6-2.56,10.618-5.271
			c6.874-6.176,6.165-15.215-1.577-20.226c-4.662-3.019-9.961-4.57-15.25-6.041c-9.37-2.605-18.787-5.048-28.157-7.653
			c-3.6-1.001-7.231-2.014-10.67-3.447c-15.547-6.483-25.343-17.504-26.425-34.898c-1.119-18.002,5.559-32.17,21.283-41.605
			c7.385-4.432,15.501-7.031,23.952-8.111c22.942-2.93,45.28-0.395,66.766,8.443c5.945,2.445,5.953,2.531,4.112,8.57
			c-2.393,7.85-4.855,15.678-7.474,24.116c-9.688-5.081-19.323-8.886-29.588-10.815c-10.106-1.899-20.249-3.22-30.467-0.781
			c-2.177,0.519-4.397,1.011-6.444,1.88c-5.182,2.197-8.609,5.681-8.734,11.83c-0.12,5.895,3.174,9.287,7.912,11.593
			c2.893,1.408,6.031,2.372,9.131,3.285c10.285,3.032,20.602,5.951,30.907,8.912c5.288,1.519,10.317,3.67,15.313,5.966
			c33.39,15.346,28.028,54.682,7.871,70.698c-9.236,7.34-19.749,11.516-31.262,13.475
			C860.277,1527.319,857.584,1527.823,854.889,1528.307z"/>
		<path fill-rule="evenodd" clip-rule="evenodd" fill="#3A3A3A" d="M650.927,1528.361c-5.004-0.466-10.01-0.466-15.016,0
			c-11.542-1.977-23.13-3.691-34.201-7.802c-13.284-4.934-13.294-4.852-9.779-18.802c1.396-5.539,2.688-11.105,3.992-16.513
			c2.587-0.838,4.038,0.922,5.711,1.816c14.586,7.789,29.972,12.127,46.655,11.35c6.094-0.284,11.878-1.518,17.181-4.554
			c4.893-2.802,7.9-6.995,7.756-12.763c-0.134-5.383-3.85-8.466-8.188-10.78c-4.196-2.239-8.732-3.667-13.307-4.914
			c-9.616-2.622-19.26-5.144-28.874-7.773c-8.234-2.252-16.168-5.219-22.814-10.8c-19.93-16.741-18.328-49.773,3.129-66.041
			c8.39-6.36,18.059-9.766,28.253-11.09c23.16-3.01,45.752-0.382,67.452,8.579c5.417,2.237,5.457,2.354,3.879,7.599
			c-2.427,8.072-4.974,16.109-7.385,23.887c-2.768,0.807-4.221-0.975-5.966-1.761c-17.145-7.715-34.816-12.07-53.771-8.946
			c-2.999,0.494-5.801,1.404-8.494,2.747c-4.613,2.3-7.349,5.874-7.461,11.167c-0.114,5.407,2.889,8.962,7.368,11.218
			c3.091,1.557,6.467,2.611,9.802,3.604c10.27,3.054,20.575,5.993,30.879,8.931c5.777,1.647,11.332,3.852,16.647,6.62
			c24.075,12.538,30.178,41.536,13.316,62.983c-6.705,8.53-15.568,13.813-25.628,17.431
			C665.207,1526.22,657.976,1526.838,650.927,1528.361z"/>
		<path fill-rule="evenodd" clip-rule="evenodd" fill="#3A3A3A" d="M1512.957,1525.668c3.621-9.222,6.853-17.543,10.152-25.837
			c16.324-41.025,32.623-82.061,49.046-123.047c2.661-6.641,1.274-6.109,9.125-6.122c8.245-0.014,16.491-0.017,24.736,0
			c7.609,0.016,6.211-0.567,8.921,6.362c11.63,29.733,23.087,59.534,34.591,89.316c6.649,17.216,13.276,34.441,19.894,51.669
			c0.879,2.287,1.646,4.616,2.725,7.659c-10.402,0-20.109-0.061-29.815,0.035c-3.036,0.03-3.629-2.166-4.418-4.219
			c-2.684-6.982-5.596-13.897-7.833-21.022c-1.398-4.452-3.868-5.454-8.207-5.406c-19.486,0.216-38.979,0.248-58.464-0.021
			c-4.534-0.062-6.65,1.451-8.054,5.625c-2.381,7.086-5.283,13.997-8.024,20.96c-0.805,2.044-1.438,4.142-4.483,4.099
			C1533.176,1525.582,1523.5,1525.668,1512.957,1525.668z"/>
		<path fill-rule="evenodd" clip-rule="evenodd" fill="#3A3A3A" d="M511.481,1525.676c-9.333,0-18.786-0.07-28.238,0.042
			c-2.803,0.033-3.93-1.456-4.784-3.761c-2.689-7.245-5.678-14.387-8.141-21.707c-1.333-3.959-3.403-5.256-7.616-5.205
			c-19.726,0.239-39.459,0.231-59.186,0.005c-4.162-0.048-6.247,1.138-7.6,5.153c-2.467,7.314-5.585,14.406-8.313,21.637
			c-0.85,2.255-1.689,3.926-4.611,3.883c-9.463-0.138-18.929-0.052-28.127-0.052c-1.61-2.606,0.082-4.29,0.752-5.979
			c19.057-47.975,38.239-95.9,57.223-143.902c1.514-3.83,3.277-5.409,7.537-5.239c8.977,0.359,17.987,0.355,26.963,0.001
			c4.243-0.168,6.057,1.284,7.548,5.216c9.627,25.407,19.57,50.693,29.376,76.033c8.639,22.321,17.247,44.655,25.831,66.998
			C510.872,1520.818,512.318,1522.724,511.481,1525.676z"/>
		<path fill-rule="evenodd" clip-rule="evenodd" fill="#3A3A3A" d="M1389.52,1370.658c20.228,0,40.453-0.025,60.681,0.018
			c5.746,0.012,5.792,0.104,5.858,5.675c0.063,5.242-0.004,10.487,0.018,15.731c0.031,7.731,0.246,7.079-7.517,7.08
			c-11.736,0.003-23.473,0.013-35.209-0.003c-6.927-0.01-6.534-0.216-6.532,6.505c0.013,36.957,0.006,73.915,0.006,110.872
			c0,1.748-0.119,3.505,0.018,5.242c0.229,2.92-1.057,3.968-3.912,3.933c-8.238-0.1-16.48-0.076-24.721-0.011
			c-2.47,0.02-3.757-0.879-3.666-3.469c0.061-1.746-0.005-3.495-0.006-5.243c-0.001-35.959,0-71.918,0-107.876
			c0-1.498,0.031-2.997-0.008-4.495c-0.137-5.306-0.146-5.408-5.349-5.433c-12.984-0.062-25.97,0.001-38.954-0.03
			c-6.574-0.016-6.606-0.058-6.673-6.444c-0.052-4.994-0.001-9.988-0.013-14.982c-0.02-8.303,0.199-7.042,7.546-7.057
			C1350.565,1370.634,1370.042,1370.658,1389.52,1370.658z"/>
		<path fill-rule="evenodd" clip-rule="evenodd" fill="#3A3A3A" d="M2054.339,1370.658c19.996,0,39.992,0.013,59.989-0.007
			c7.02-0.007,6.415-0.064,6.407,6.635c-0.006,5.749-0.174,11.505,0.06,17.244c0.148,3.642-1.223,4.739-4.771,4.694
			c-12.745-0.162-25.495-0.049-38.242-0.066c-6.979-0.01-6.549-0.181-6.546,6.503c0.011,37.243,0.005,74.486,0.004,111.729
			c0,1.75-0.058,3.501-0.007,5.249c0.068,2.291-1.155,3.037-3.252,3.031c-8.499-0.023-16.997-0.039-25.495,0.027
			c-2.567,0.021-3.611-1.135-3.527-3.611c0.059-1.748-0.004-3.499-0.004-5.248c-0.002-35.243-0.001-70.487-0.001-105.73
			c0-1.5,0.003-3-0.001-4.499c-0.021-8.064,0.453-7.435-7.123-7.442c-10.998-0.011-21.996-0.003-32.994-0.003
			c-10.874,0-10.875,0-10.875-10.521c-0.001-3-0.013-5.999,0.001-8.998c0.052-10.377-0.684-8.937,8.638-8.968
			C2015.846,1370.614,2035.093,1370.658,2054.339,1370.658z"/>
		<path fill-rule="evenodd" clip-rule="evenodd" fill="#3A3A3A" d="M1034.626,1448.023c0,23.716,0.016,47.432-0.01,71.147
			c-0.007,6.432-0.064,6.469-6.559,6.505c-7.239,0.041-14.481-0.096-21.718,0.05c-3.265,0.064-4.557-1.228-4.237-4.413
			c0.125-1.236,0.018-2.494,0.018-3.743c0-46.183,0-92.366,0.001-138.55c0-1.747,0.05-3.495,0.008-5.242
			c-0.053-2.218,1.047-3.113,3.19-3.106c8.737,0.028,17.475,0.024,26.211,0.007c2.191-0.004,3.147,1.05,3.089,3.203
			c-0.046,1.746,0.006,3.495,0.006,5.242C1034.626,1402.09,1034.626,1425.057,1034.626,1448.023z"/>
		<path fill-rule="evenodd" clip-rule="evenodd" fill="#FFFFFF" d="M2288.479,1087.705c0.001-9.988,0.108-19.978-0.056-29.963
			c-0.059-3.543,1.119-4.781,4.738-4.754c19.475,0.142,38.966-0.381,58.423,0.226c13.681,0.427,25.625,5.55,31.479,19.041
			c5.513,12.702,4.877,25.434-3.426,36.96c-6.97,9.676-17.385,13.404-28.713,13.688c-19.214,0.481-38.451,0.027-57.674,0.24
			c-4.361,0.048-4.873-1.953-4.824-5.477C2288.567,1107.682,2288.478,1097.692,2288.479,1087.705z"/>
		<path fill-rule="evenodd" clip-rule="evenodd" fill="#FFFFFF" d="M917.647,325.145c-10.469,6.011-19.718,11.323-28.969,16.632
			c-1.95,1.119-3.886,2.261-5.856,3.342c-16.664,9.142-33.756-0.342-39.586-11.289c-7.672-14.407-3.348-31.235,11.081-39.641
			c37.976-22.123,76.086-44.015,114.152-65.983c86.079-49.678,172.224-99.24,258.137-149.201c7.596-4.417,12.865-4.583,20.641-0.065
			c105.794,61.477,211.839,122.523,317.819,183.678c18.169,10.483,36.393,20.875,54.474,31.507
			c10.066,5.919,15.461,14.942,14.912,26.688c-0.531,11.359-6.32,19.859-16.479,24.987c-9.152,4.62-18.401,3.977-27.267-0.973
			c-9.813-5.479-19.502-11.179-29.254-16.767c-1.056-0.605-2.169-1.11-3.781-1.929c-1.267,2.838-0.743,5.541-0.746,8.097
			c-0.042,39.743-0.679,79.5,0.132,119.227c1.059,51.849-12.479,99.588-36.98,144.837c-25.688,47.438-58.013,89.729-96.953,126.943
			c-37.612,35.945-79.745,65.729-125.468,90.474c-6.587,3.565-13.201,7.103-19.958,10.329c-11.011,5.258-20.845-0.499-22.027-12.692
			c-0.072-0.745-0.087-1.499-0.085-2.247c0.07-34.992-0.922-70.027,0.467-104.966c2.126-53.476,21.296-100.602,56.905-140.875
			c31.596-35.732,67.222-66.935,105.75-94.926c1.827-1.327,3.632-2.751,5.863-3.24c4.902-1.073,9.089,2.87,9.281,9.119
			c0.348,11.297-1.274,22.387-4.039,33.338c-5.855,23.189-18.695,42.174-34.732,59.502c-17.136,18.514-33.681,37.572-50.539,56.343
			c-4.336,4.827-7.045,10.138-6.988,16.835c0.09,10.375,5.06,18.686,14.538,22.334c9.394,3.615,18.312,2.316,25.623-4.937
			c30.758-30.514,59.259-62.979,82.644-99.559c18.95-29.644,30.45-62.194,35.238-97.101c1.835-13.382,2.702-26.791,2.665-40.301
			c-0.108-38.743-0.046-77.486-0.024-116.229c0.002-2.994-0.33-6.132,0.43-8.95c1.152-4.271-0.579-6.141-4.07-8.13
			c-24.305-13.85-48.482-27.919-72.712-41.901c-59.274-34.205-118.595-68.332-177.764-102.719c-5.161-3-8.886-3.039-14.075-0.032
			c-83.197,48.218-166.523,96.213-249.813,144.27c-6.075,3.505-5.918,2.782-4.66,9.918c0.472,2.677,0.333,5.475,0.338,8.217
			c0.09,42.991-0.359,85.99,0.37,128.97c0.81,47.654,15.176,91.395,41.776,130.867c22.548,33.458,48.976,63.757,77.604,92.162
			c6.912,6.858,15.16,8.864,24.113,6.248c9.078-2.652,14.725-9.238,16.491-18.653c1.484-7.911-1.029-14.757-6.338-20.687
			c-12.164-13.585-24.302-27.193-36.459-40.785c-7.328-8.193-14.783-16.275-21.986-24.577
			c-18.414-21.223-29.244-45.654-30.869-73.916c-0.186-3.231-0.74-6.456-0.72-9.681c0.025-3.881,1.089-7.357,5.016-9.329
			c3.865-1.938,6.77,0.063,9.612,2.124c22.063,16.004,43.307,33.012,63.346,51.515c19.667,18.16,38.683,36.967,54.897,58.319
			c24.717,32.55,39.19,69.292,43.899,109.938c0.982,8.471,1.372,16.926,1.392,25.41c0.074,31.495,0.034,62.989,0.019,94.482
			c-0.001,2.246,0.093,4.537-0.29,6.731c-1.654,9.489-11.629,14.569-20.761,10.096c-10.983-5.38-21.804-11.13-32.439-17.17
			c-47.426-26.937-90.613-59.447-128.55-98.739c-43.14-44.679-77.589-95.184-101.007-152.854
			c-11.665-28.728-17.536-58.717-17.422-89.854c0.167-45.492,0.043-90.984,0.043-136.477
			C917.647,329.763,917.647,328.271,917.647,325.145z"/>
		<path fill-rule="evenodd" clip-rule="evenodd" fill="#FFFFFF" d="M1310.602,394.805c0,7.997-0.177,15.999,0.074,23.987
			c0.127,4.032-1.516,5.172-5.259,5.146c-16.242-0.111-32.487-0.126-48.729,0.013c-3.707,0.031-4.654-1.499-4.631-4.916
			c0.114-16.492,0.118-32.986,0-49.479c-0.025-3.531,1.148-4.812,4.768-4.779c16.241,0.148,32.485,0.152,48.729,0.004
			c3.956-0.037,5.206,1.463,5.111,5.286C1310.461,378.308,1310.602,386.559,1310.602,394.805z"/>
		<path fill-rule="evenodd" clip-rule="evenodd" fill="#FFFFFF" d="M1222.11,393.955c0.003,8.236-0.157,16.477,0.074,24.707
			c0.108,3.877-1.223,5.312-5.113,5.282c-16.222-0.125-32.446-0.134-48.667,0.011c-3.663,0.033-4.719-1.356-4.693-4.844
			c0.123-16.471,0.112-32.944,0.008-49.416c-0.021-3.382,0.856-4.956,4.62-4.92c16.471,0.157,32.944,0.111,49.417,0.037
			c3.194-0.014,4.439,1.239,4.393,4.436C1222.026,377.482,1222.107,385.719,1222.11,393.955z"/>
		<path fill-rule="evenodd" clip-rule="evenodd" fill="#FFFFFF" d="M1310.602,306.004c0.002,7.749,0.049,15.498-0.014,23.246
			c-0.049,5.942-0.109,6.097-5.618,6.126c-15.996,0.082-31.993-0.038-47.99,0.079c-3.411,0.024-4.964-0.882-4.931-4.62
			c0.144-16.496,0.128-32.995,0.012-49.49c-0.023-3.365,1.379-4.229,4.468-4.212c16.497,0.093,32.995,0.122,49.49-0.016
			c3.691-0.031,4.718,1.429,4.639,4.894C1310.477,290.004,1310.601,298.006,1310.602,306.004z"/>
		<path fill-rule="evenodd" clip-rule="evenodd" fill="#FFFFFF" d="M1163.766,306c-0.001-7.738-0.056-15.476,0.018-23.213
			c0.052-5.425,0.13-5.565,5.23-5.588c15.974-0.071,31.95,0.051,47.923-0.084c3.73-0.031,5.311,0.945,5.259,5.039
			c-0.205,15.972-0.174,31.95-0.015,47.923c0.038,3.769-1.011,5.412-5.013,5.379c-16.223-0.134-32.449-0.129-48.672,0.005
			c-3.555,0.029-4.869-1.152-4.787-4.751C1163.896,322.478,1163.768,314.238,1163.766,306z"/>
		<path fill-rule="evenodd" clip-rule="evenodd" fill="#FFFFFF" d="M1318.3,1204.39c-10.241-0.001-20.485-0.142-30.723,0.069
			c-3.987,0.083-5.107-1.43-5.067-5.236c0.158-15.485,0.093-30.973,0.041-46.46c-0.011-2.998,0.059-5.38,4.206-5.269
			c21.449,0.58,42.935-1.015,64.364,1.119c3.764,0.374,7.392,1.219,10.967,2.292c19.604,5.884,21.382,25.418,16.381,37.426
			c-2.68,6.433-7.789,10.249-14.109,12.583c-7.357,2.717-15.06,3.406-22.829,3.465
			C1333.787,1204.437,1326.044,1204.391,1318.3,1204.39z"/>
		<path fill-rule="evenodd" clip-rule="evenodd" fill="#FFFFFF" d="M1311.381,1052.733c7.743,0,15.486-0.046,23.229,0.017
			c5.306,0.042,10.419,1.279,15.282,3.29c8.723,3.606,13.051,10.335,13.647,19.706c0.653,10.231-1.9,18.759-11.576,24.02
			c-7.019,3.816-14.696,4.974-22.414,5.174c-13.98,0.362-27.979,0-41.966,0.19c-3.996,0.054-5.118-1.446-5.074-5.246
			c0.162-13.988,0.021-27.979,0.088-41.968c0.025-5.175,0.146-5.263,5.55-5.32c7.744-0.082,15.488-0.021,23.232-0.021
			C1311.38,1052.628,1311.381,1052.681,1311.381,1052.733z"/>
		<path fill-rule="evenodd" clip-rule="evenodd" fill="#FFFFFF" d="M474.134,1129.754c-0.817,25.565-10.25,48.711-34.429,63.402
			c-43.59,26.487-104.187,3.416-111.372-53.936c-2.663-21.256,1.668-40.826,14.602-57.986
			c12.371-16.415,29.194-25.247,49.679-27.271c24.991-2.471,46.474,4.645,63.271,23.611
			C468.513,1091.833,473.602,1109.115,474.134,1129.754z"/>
		<path fill-rule="evenodd" clip-rule="evenodd" fill="#FEFEFE" d="M1593.876,1403.996c8.552,22.21,16.892,43.872,25.534,66.319
			c-17.952,0-34.804,0-51.656,0C1567.971,1465.255,1587.086,1416.458,1593.876,1403.996z"/>
		<path fill-rule="evenodd" clip-rule="evenodd" fill="#FEFEFE" d="M433.942,1403.096c8.918,23.203,17.249,44.877,25.854,67.264
			c-18.132,0-35.12,0-53.136,0C415.771,1447.897,424.584,1426.167,433.942,1403.096z"/>
	</g>
</g>
</svg>
