<?xml version="1.0" encoding="utf-8"?>
<!-- Generator: Adobe Illustrator 16.0.0, SVG Export Plug-In . SVG Version: 6.00 Build 0)  -->
<!DOCTYPE svg PUBLIC "-//W3C//DTD SVG 1.1//EN" "http://www.w3.org/Graphics/SVG/1.1/DTD/svg11.dtd">
<svg version="1.1" id="Layer_1" xmlns="http://www.w3.org/2000/svg" xmlns:xlink="http://www.w3.org/1999/xlink" x="0px" y="0px"
	 width="932.884px" height="899.888px" viewBox="0 0 932.884 899.888" enable-background="new 0 0 932.884 899.888"
	 xml:space="preserve">
<g>
	<g>
		<path fill-rule="evenodd" clip-rule="evenodd" fill="#FEFEFE" d="M467.566,0.75c154.48,0,308.962,0.009,463.442-0.07
			c2.812-0.001,3.444,0.633,3.444,3.445c-0.074,297.713-0.074,595.425,0,893.138c0,2.812-0.633,3.445-3.444,3.444
			c-308.962-0.074-617.923-0.074-926.884,0c-2.812,0.001-3.445-0.633-3.444-3.444c0.075-297.713,0.075-595.425,0-893.138
			c0-2.812,0.633-3.446,3.444-3.445C158.605,0.759,313.086,0.75,467.566,0.75z"/>
		<path fill-rule="evenodd" clip-rule="evenodd" fill="#0D9DB9" d="M80.869,444.322c-0.195-10.596-0.002-21.177,1.472-31.695
			c0.371-2.643,0.32-4.194-3.278-4.97c-18.654-4.021-34.831-12.969-48.33-26.427c-13.072-13.033-20.434-28.973-23.379-47.187
			c-2.234-13.813-2.352-27.557,1.03-41.065c3.05-12.183,9.096-23.033,16.824-33.034c8.747-11.319,20.66-18.222,32.746-25.096
			c19.01-10.813,37.879-21.874,56.839-32.776c17.346-9.974,34.757-19.837,52.098-29.82c17.349-9.987,34.637-20.079,51.971-30.091
			c15.406-8.898,30.845-17.739,46.256-26.628c18.944-10.927,37.861-21.904,56.816-32.812c15.849-9.121,31.761-18.134,47.604-27.265
			c23.766-13.699,47.49-27.469,71.242-41.191c6.954-4.018,13.947-7.968,20.91-11.972c1.775-1.021,3.05-0.851,5.005,0.321
			c10.44,6.254,21.129,12.096,31.674,18.18c12.55,7.24,25.012,14.634,37.569,21.862c12.249,7.051,24.606,13.916,36.854,20.972
			c13.822,7.962,27.542,16.106,41.367,24.063c15.731,9.054,31.563,17.932,47.292,26.989c15.521,8.939,30.934,18.064,46.453,27.006
			c15.714,9.052,31.533,17.919,47.245,26.974c15.51,8.939,30.913,18.063,46.419,27.008c13.822,7.974,27.747,15.77,41.581,23.723
			c14.46,8.313,29.263,16.118,43.169,25.279c10.866,7.157,19.236,17.195,25.616,28.756c8.764,15.881,12.143,32.926,10.33,50.776
			c-1.842,18.142-6.762,35.275-18.731,49.854c-14.476,17.629-32.882,28.619-54.877,33.751c-2.946,0.688-2.895,1.899-2.618,4.003
			c2.138,16.262,1.83,32.61,1.281,48.925c-0.693,20.615-3.55,41.006-7.61,61.23c-4.045,20.147-9.851,39.808-16.61,59.177
			c-4.242,12.155-9.36,23.982-14.725,35.7c-10.356,22.619-22.683,44.104-36.682,64.648c-8.393,12.318-17.262,24.262-26.837,35.706
			c-7.056,8.434-14.34,16.637-21.7,24.804c-6.521,7.234-13.306,14.192-20.37,20.834c-10.055,9.452-20.394,18.602-30.975,27.501
			c-20.177,16.966-41.519,32.298-63.507,46.738c-11.08,7.276-22.432,14.161-34.018,20.651c-8.719,4.887-17.386,9.857-26.373,14.233
			c-15.954,7.771-32.761,12.913-50.221,15.932c-11.892,2.056-23.897,3.196-35.957,2.938c-16.654-0.355-33.108-2.494-49.21-6.915
			c-17.167-4.713-33.291-11.775-48.807-20.56c-19.57-11.079-38.831-22.608-57.402-35.287
			c-17.988-12.281-35.325-25.402-52.083-39.334c-17.762-14.767-34.368-30.741-50.168-47.517
			c-17.339-18.409-33.039-38.207-47.261-59.151c-12.673-18.662-23.954-38.125-33.722-58.456
			c-6.865-14.288-12.989-28.872-18.326-43.825c-5.285-14.805-9.778-29.805-13.33-45.096c-3.307-14.235-5.791-28.615-7.638-43.12
			C81.789,475.872,80.521,460.152,80.869,444.322z"/>
		<path fill-rule="evenodd" clip-rule="evenodd" fill="#FEFEFE" d="M784.245,324.648c0,1.897,0,3.267,0,4.636
			c0,44.367,0.144,88.734-0.067,133.1c-0.09,18.649-1.774,37.243-6.067,55.425c-4.835,20.479-11.96,40.141-21.084,59.209
			c-11.396,23.815-24.355,46.629-39.337,68.328c-9.214,13.345-19.193,26.094-29.576,38.551
			c-13.515,16.216-28.384,31.141-43.668,45.619c-15.188,14.385-31.487,27.502-48.356,39.908
			c-26.028,19.141-53.406,36.068-82.115,50.862c-3.524,1.816-6.965,3.813-10.573,5.44c-9.343,4.211-19.444-1.846-20.309-12.082
			c-0.126-1.49-0.146-2.994-0.146-4.492c-0.009-29.994,0.11-59.988-0.046-89.982c-0.112-21.59,2.073-42.924,7.729-63.724
			c5.693-20.942,14.063-40.838,25.688-59.316c7.395-11.751,15.79-22.641,24.853-33.153c11.57-13.422,24.231-25.755,36.877-38.082
			c9.958-9.708,20.577-18.781,31.32-27.63c12.418-10.228,25.22-19.997,38.336-29.333c2.515-1.79,5.272-3.025,8.307-1.413
			c3.312,1.761,5.208,4.634,5.227,8.434c0.049,9.715-0.735,19.395-3.05,28.822c-4.271,17.4-11.135,33.659-22.242,47.94
			c-5.806,7.463-12.295,14.316-18.557,21.375c-11.522,12.99-23.039,25.984-34.57,38.965c-4.537,5.106-9.273,10.045-13.624,15.305
			c-6.161,7.446-6.27,20.038-0.293,28.28c5.649,7.792,16.797,11.81,25.997,8.807c3.609-1.178,6.961-2.892,9.702-5.759
			c4.749-4.966,9.885-9.566,14.55-14.605c8.472-9.153,16.83-18.405,25.001-27.841c11.16-12.886,21.655-26.263,31.719-39.995
			c11.327-15.457,20.984-31.875,28.62-49.499c5.976-13.792,10.683-27.971,14.165-42.567c3.051-12.791,5.015-25.745,5.949-38.879
			c1.394-19.582,0.545-39.178,0.67-58.767c0.174-27.494,0.068-54.989,0.015-82.484c-0.008-3.63,0.306-7.198,1.096-10.717
			c0.271-1.207,0.398-1.878-0.949-2.642c-9.436-5.345-18.805-10.807-28.175-16.265c-9.156-5.332-18.276-10.724-27.437-16.049
			c-7.066-4.109-14.173-8.153-21.259-12.23c-8.861-5.099-17.709-10.222-26.582-15.299c-9.199-5.265-18.442-10.455-27.631-15.739
			c-10.224-5.88-20.4-11.841-30.61-17.744c-7.484-4.327-15.008-8.59-22.482-12.934c-9.15-5.317-18.24-10.735-27.406-16.024
			c-8.64-4.985-17.362-9.826-26.013-14.794c-7.291-4.186-14.578-8.383-21.755-12.758c-1.604-0.978-2.724-0.711-4.08,0.07
			c-15.091,8.695-30.195,17.366-45.276,26.08c-15.617,9.022-31.196,18.111-46.819,27.122c-16.799,9.689-33.645,19.301-50.447,28.986
			c-15.523,8.949-31.006,17.968-46.523,26.927c-23.115,13.347-46.235,26.686-69.39,39.965c-1.439,0.826-1.825,1.467-1.438,3.183
			c0.847,3.76,0.996,7.619,0.99,11.5c-0.053,38.743,0.042,77.485-0.062,116.228c-0.054,20.206,1.717,40.168,5.926,59.969
			c3.741,17.596,9.497,34.412,16.92,50.771c10.188,22.448,24.21,42.384,39.281,61.688c10.691,13.695,21.894,26.944,33.663,39.735
			c7.836,8.516,15.666,17.027,23.857,25.205c7.48,7.471,17.551,8.873,25.655,5.516c10.548-4.371,16.154-13.355,15.324-23.982
			c-0.439-5.625-2.63-10.504-6.608-14.794c-7.631-8.229-14.84-16.848-22.311-25.228c-5.185-5.817-10.567-11.457-15.762-17.264
			c-5.515-6.165-10.732-12.604-16.409-18.611c-6.185-6.545-11.72-13.54-16.498-21.154c-6.217-9.908-10.912-20.446-14.068-31.758
			c-3.256-11.675-4.698-23.531-4.837-35.578c-0.044-3.813,0.786-7.371,5.096-8.953c2.571-0.943,4.855-0.809,7.075,0.76
			c11.726,8.282,23.14,16.979,34.257,26.055c13.743,11.217,27.066,22.905,39.893,35.191c21.027,20.139,41.297,40.89,57.097,65.549
			c8.13,12.688,14.568,26.187,19.984,40.273c6.41,16.674,10.621,33.843,13.11,51.449c1.182,8.358,1.744,16.821,1.751,25.285
			c0.026,33.619,0.051,67.238-0.014,100.856c-0.019,9.723-8.941,17.366-17.496,14.854c-3.999-1.175-7.792-3.187-11.517-5.128
			c-25.685-13.382-50.556-28.088-74.239-44.825c-11.051-7.811-21.869-15.921-32.368-24.411c-6.392-5.169-12.59-10.652-18.745-16.15
			c-10.113-9.035-20.111-18.188-29.34-28.094c-8.984-9.644-17.762-19.485-26.168-29.675c-12.164-14.74-23.4-30.124-33.776-46.13
			c-6.729-10.38-12.928-21.094-18.905-31.947c-6.6-11.985-12.395-24.332-17.871-36.836c-7.656-17.481-12.972-35.678-16.462-54.452
			c-3.502-18.838-3.93-37.822-3.853-56.899c0.167-41.242,0.052-82.485,0.05-123.727c0-4.222-0.078-4.348-3.731-2.284
			c-10.327,5.836-20.634,11.71-30.866,17.711c-9.951,5.836-22.995,4.831-31.975-2.153c-12.774-9.934-14.979-28.04-6.118-40.356
			c3.363-4.674,8.137-7.718,13.095-10.555c12.804-7.325,25.482-14.868,38.268-22.227c12.139-6.987,24.385-13.789,36.517-20.789
			c10.349-5.972,20.56-12.185,30.91-18.154c12.119-6.989,24.36-13.767,36.479-20.755c12.019-6.931,23.918-14.067,35.932-21.007
			c9.162-5.292,18.463-10.342,27.625-15.636c10.339-5.974,20.558-12.153,30.891-18.139c7.375-4.272,14.889-8.307,22.274-12.563
			c9.084-5.235,18.072-10.637,27.152-15.881c8.651-4.998,17.401-9.822,26.043-14.833c12.115-7.024,24.139-14.205,36.264-21.213
			c9.377-5.419,18.87-10.638,28.26-16.036c1.888-1.085,3.398-0.83,5.168,0.196c23.726,13.751,47.485,27.444,71.221,41.18
			c26.957,15.598,53.877,31.258,80.85,46.827c20.326,11.731,40.732,23.322,61.062,35.046c18.621,10.738,37.168,21.606,55.784,32.351
			c18.615,10.743,37.354,21.274,55.898,32.139c19.403,11.369,39.523,21.586,58.166,34.163c16.295,10.993,15.702,34.696-0.217,46.353
			c-10.816,7.921-22.015,7.81-33.505,0.935C805.843,336.61,795.243,330.874,784.245,324.648z"/>
		<path fill-rule="evenodd" clip-rule="evenodd" fill="#FEFEFE" d="M390.859,392.963c0-8.617,0.059-17.234-0.041-25.85
			c-0.025-2.24,0.299-3.331,2.987-3.312c17.482,0.12,34.966,0.1,52.449,0.015c2.247-0.011,3.005,0.531,2.992,2.9
			c-0.096,17.732-0.094,35.465-0.001,53.198c0.012,2.334-0.688,2.937-2.969,2.925c-17.483-0.089-34.967-0.105-52.449,0.011
			c-2.653,0.019-3.039-1.012-3.012-3.289C390.921,410.696,390.859,401.829,390.859,392.963z"/>
		<path fill-rule="evenodd" clip-rule="evenodd" fill="#FEFEFE" d="M537.683,393.608c0,8.741-0.065,17.484,0.046,26.223
			c0.029,2.218-0.485,3.025-2.882,3.012c-17.606-0.1-35.215-0.1-52.822,0c-2.398,0.013-2.889-0.801-2.879-3.014
			c0.079-17.732,0.073-35.464,0.006-53.197c-0.008-2.05,0.487-2.824,2.688-2.813c17.732,0.079,35.465,0.079,53.197,0
			c2.202-0.01,2.708,0.767,2.687,2.816C537.63,375.625,537.683,384.617,537.683,393.608z"/>
		<path fill-rule="evenodd" clip-rule="evenodd" fill="#FEFEFE" d="M449.194,305.141c0,8.743-0.068,17.486,0.048,26.228
			c0.029,2.248-0.563,2.995-2.911,2.983c-17.485-0.094-34.971-0.104-52.456,0.006c-2.579,0.016-3.075-0.888-3.063-3.239
			c0.087-17.36,0.093-34.722-0.005-52.082c-0.014-2.462,0.687-3.143,3.15-3.127c17.36,0.104,34.721,0.121,52.081-0.013
			c2.749-0.021,3.257,0.883,3.213,3.391C449.103,287.903,449.195,296.522,449.194,305.141z"/>
		<path fill-rule="evenodd" clip-rule="evenodd" fill="#FEFEFE" d="M537.683,304.891c0,8.744-0.071,17.488,0.048,26.231
			c0.032,2.329-0.44,3.255-3.04,3.238c-17.487-0.114-34.976-0.109-52.463-0.005c-2.521,0.016-3.104-0.781-3.09-3.188
			c0.097-17.363,0.094-34.727,0.003-52.089c-0.012-2.351,0.488-3.191,3.042-3.174c17.487,0.116,34.976,0.111,52.463,0.004
			c2.478-0.015,3.133,0.697,3.093,3.125C537.597,287.65,537.683,296.271,537.683,304.891z"/>
	</g>
</g>
</svg>
