<?xml version="1.0" encoding="utf-8"?>
<!-- Generator: Adobe Illustrator 16.0.0, SVG Export Plug-In . SVG Version: 6.00 Build 0)  -->
<!DOCTYPE svg PUBLIC "-//W3C//DTD SVG 1.1//EN" "http://www.w3.org/Graphics/SVG/1.1/DTD/svg11.dtd">
<svg version="1.1" id="Layer_1" xmlns="http://www.w3.org/2000/svg" xmlns:xlink="http://www.w3.org/1999/xlink" x="0px" y="0px"
	 width="1124.859px" height="2435.695px" viewBox="0 0 1124.859 2435.695" enable-background="new 0 0 1124.859 2435.695"
	 xml:space="preserve">
<g>
	<g>
		<path fill-rule="evenodd" clip-rule="evenodd" fill="#FEFEFE" d="M1,457.942C1,307.129,1.016,156.313,0.906,5.499
			C0.903,1.751,1.751,0.904,5.5,0.906C202.308,1.013,399.117,1,595.926,1c2.716,5.552,2.131,11.695,2.978,17.557
			c4.804,33.251,15.216,64.803,28.518,95.491c2.048,4.728,4.829,9.136,7.621,13.477c8.38,13.03,16.321,26.319,24.334,39.577
			c12.276,20.313,30.087,35.412,49.51,48.657c7.295,4.975,14.553,10.025,22.423,14.084c4.251,2.192,6.66,5.469,8.019,10.185
			c5.532,19.209,15.862,35.886,28.303,51.304c17.339,21.491,37.761,39.86,58.872,57.51c21.091,17.633,42.289,35.133,64.288,51.631
			c26.428,19.819,53.946,37.941,83.071,53.604c34.327,18.46,68.869,36.516,103.195,54.978c14.229,7.653,28.591,15.063,42.92,22.532
			c1.146,0.599,2.226,1.461,3.978,1.422c-0.299-2.021-1.94-2.557-3.282-3.26c-17.414-9.113-34.838-18.21-52.108-27.593
			c-42.001-22.818-85.186-43.478-125.965-68.513c-24.303-14.92-47.334-31.704-69.682-49.428
			c-21.013-16.668-41.841-33.563-61.989-51.263c-21.847-19.195-42.169-39.81-57.146-65.042c-4.42-7.448-8.285-15.23-11.126-23.448
			c-0.721-2.085-2.635-4.683-0.442-6.464c2.098-1.705,4.438,0.435,6.379,1.508c6.71,3.712,13.518,7.223,20.381,10.635
			c17.003,8.454,33.994,16.933,51.386,24.574c0.768,0.338,1.469,0.783,1.984,1.47c0.751,3.757-1.724,6.641-2.691,9.933
			c-0.545,1.853-2.164,3.373-1.713,6.056c7.445-0.97,14.69-2.727,22.034-3.837c3.561-0.539,7.076-2.119,10.795-0.85
			c3.777,2.892,8.324,4.19,12.623,5.927c29.095,11.758,59.05,20.833,89.421,28.634c55.189,14.177,110.235,28.91,165.48,42.875
			c1.533,0.388,3.042,1.17,4.918,0.741c-1.106-1.973-2.911-1.917-4.414-2.302c-52.135-13.349-104.15-27.152-156.269-40.559
			c-32.94-8.474-65.623-17.732-97.232-30.445c-4.939-1.987-9.686-4.485-14.899-5.745c-3.405-1.543-4.86-4.892-6.908-7.651
			c-4.422-5.96-8.516-12.163-13.462-18.579c-1.885,3.771-2.919,7.254-4.433,10.514c-0.787,1.694-1.014,3.977-3.546,4.276
			c-7.359-5.94-16.18-9.2-24.561-13.187c-18.207-8.661-36.221-17.682-53.98-27.222c-2.776-1.491-4.683-3.657-5.773-6.605
			c-8.03-21.728-16.013-43.426-18.707-66.697c-3.882-33.521-6.065-66.995,0.42-100.443c3.546-18.291,10.274-35.48,18.504-52.119
			c1.257-2.541,2.569-5.042,2.958-7.898c127.151,0,254.302,0.02,381.452-0.095c3.75-0.003,4.593,0.846,4.593,4.594
			c-0.096,809.232-0.096,1618.465,0,2427.696c0,3.749-0.844,4.594-4.593,4.593c-372.286-0.1-744.573-0.1-1116.86,0
			c-3.749,0.001-4.595-0.844-4.593-4.593C1.011,2208.391,1,1983.585,1,1758.78c1.61-1.471,3.622-1.552,5.63-1.605
			c2.499-0.065,4.998-0.032,7.497-0.032c366.039-0.001,732.077,0.002,1098.115-0.011c13.207,0,11.878,0.944,11.977-11.747
			c0.12-15.658-0.22-31.318,0.164-46.975c0.029-0.984,0.03-1.97-0.098-2.951c0.021-19.885-0.191-39.771,0.088-59.656
			c-0.208-20.649-0.231-41.297-0.002-61.945c-0.202-19.997-0.228-39.996,0-59.994c-0.201-20.318-0.229-40.637,0.002-60.955
			c-0.182-20.537-0.247-41.076,0.018-61.613c-0.075-1.633-0.075-3.266-0.002-4.898c-0.343-36.3-0.068-72.601-0.148-108.9
			c-0.007-3.162-0.137-6.329,0.132-9.486c-0.202-19.651-0.169-39.305-0.032-58.95c0.147-1.133,0.039-2.283,0.125-3.417
			c0.689-3.79-0.885-6.144-4.236-8.068c-31.805-18.265-64.357-35.048-97.957-49.775c-2.897-1.27-5.654-2.86-8.699-3.808
			c-68.621-29.583-139.562-51.823-212.682-67.11c-33.111-6.922-66.462-12.554-100.08-16.316
			c-19.996-2.238-40.021-4.368-60.141-5.453c-5.794-0.313-11.626-0.592-17.415-1.23c-1.869-0.616-3.79-0.729-5.74-0.57
			c-22.629-0.777-45.26-1.157-67.905-1.032c-22.804,0.126-45.546,1.359-68.29,2.88c-41.9,2.801-83.532,7.78-124.871,15.117
			c-44.322,7.866-87.995,18.428-131.113,31.412c-39.132,11.784-77.271,26.181-114.888,42.036
			c-35.723,15.312-70.353,32.813-104.033,52.215c-1.648,0.95-3.161,2.565-5.416,1.911c0-36.995,0-73.991,0-110.986
			c2.329-7.929,7.2-14.556,11.202-21.609c18.412-32.448,38.063-64.201,55.215-97.351c6.958-13.449,12.88-27.437,18.235-41.629
			c1.662-4.405,4.064-8.357,6.769-12.191c22.875-32.425,44.56-65.608,62.474-101.08c6.929-13.72,11.995-28.197,14.314-43.507
			c0.25-1.652,0.424-3.3,0.46-4.97c0.246-11.477-0.581-22.975,0.911-34.434c0.372-2.851,0.541-5.904-0.712-9.209
			c-2.047,1.634-1.548,3.528-1.56,5.171c-0.056,7.996-0.345,16.01,0.039,23.988c0.911,18.964-4.105,36.577-11.387,53.781
			c-9.791,23.131-23.504,44.049-36.582,65.332c-6.195,10.082-12.896,19.831-19.483,29.655c-1.147,1.711-2.388,4.837-4.555,3.758
			c-2.265-1.127-0.313-3.874,0.342-5.816c8.043-23.826,16.817-47.425,21.568-72.243c3.738-19.529,4.54-38.919-1.237-58.262
			c-2.957-9.9-3.399-20.379-6.524-30.267c-7.388-23.375-18.058-45.179-32.271-65.114c-16.856-23.643-35.928-45.452-56.553-65.886
			C15.161,598.538,7.684,593.18,1,586.927c0-42.328,0-84.656,0-126.984c2.532-0.569,3.473,1.499,4.716,2.938
			c27.428,31.726,54.664,63.62,81.303,96.008c20.929,25.447,42.363,50.556,59.401,78.938c6.756,11.255,10.451,23.726,13.838,36.284
			c0.737,2.732,1.488,5.457,2.409,8.135c-0.503,6.419-4.09,11.741-6.363,17.516c-2.349,5.967-4.787,11.911-7.37,17.784
			c-0.307,0.733-0.684,1.431-1.39,2.21c1.158,0.243,2.164-0.154,3.16-0.146c0.934-0.085,1.825-0.364,2.73-0.597
			c1.193-0.305,2.419-0.384,3.626-0.597c3.494-0.686,7.024-1.15,10.513-1.857c2.706-0.53,5.425-0.996,8.106-1.64
			c1.823-0.376,3.726-0.114,5.511-0.691c1.197-0.42,1.351-1.114,0.516-2.072c-4.892-8.031-10.765-15.39-15.66-23.401
			c-0.856-1.402-1.867-2.745-1.785-4.52c0.452-2.216-0.322-4.28-0.797-6.379c-5.573-24.625-16.817-46.447-32.069-66.466
			c-23.612-30.991-48.588-60.856-73.667-90.648c-16.178-19.219-32.592-38.234-48.794-57.432C6.804,460.785,4.781,458.049,1,457.942z
			"/>
		<path fill-rule="evenodd" clip-rule="evenodd" fill="#F6FBFC" d="M1125.859,1267.842c0,39.662,0,79.322,0,118.984
			c-1.46,1.338-3.278,1.521-5.131,1.593c-1.997,0.077-3.997,0.049-5.997,0.049c-367.536,0.002-735.072,0.005-1102.608-0.04
			c-3.739,0-7.715,0.973-11.124-1.602c0-39.662,0-79.322,0-118.984c1.459-1.338,3.278-1.521,5.129-1.593
			c1.999-0.076,3.999-0.049,5.998-0.049c367.535-0.002,735.069-0.005,1102.604,0.04
			C1118.473,1266.24,1122.449,1265.266,1125.859,1267.842z"/>
		<path fill-rule="evenodd" clip-rule="evenodd" fill="#F7FBFC" d="M1125.859,1390.826c0,20.664,0,41.328,0,61.992
			c-1.46,1.338-3.278,1.521-5.131,1.593c-1.997,0.076-3.997,0.049-5.997,0.049c-367.536,0.002-735.072,0.005-1102.608-0.04
			c-3.739,0-7.715,0.973-11.124-1.602c0-20.664,0-41.328,0-61.992c1.459-1.338,3.278-1.521,5.129-1.593
			c1.999-0.076,3.999-0.049,5.998-0.049c367.535-0.002,735.069-0.005,1102.604,0.04
			C1118.473,1389.225,1122.449,1388.25,1125.859,1390.826z"/>
		<path fill-rule="evenodd" clip-rule="evenodd" fill="#FAFCFD" d="M1125.859,1573.803c0,20.665,0,41.328,0,61.992
			c-1.46,1.338-3.278,1.521-5.131,1.593c-1.997,0.076-3.997,0.049-5.997,0.049c-367.536,0.002-735.072,0.005-1102.608-0.04
			c-3.739-0.001-7.715,0.973-11.124-1.602c0-20.664,0-41.327,0-61.992c1.459-1.338,3.278-1.521,5.129-1.592
			c1.999-0.076,3.999-0.049,5.998-0.049c367.535-0.002,735.069-0.006,1102.604,0.039
			C1118.473,1572.201,1122.449,1571.228,1125.859,1573.803z"/>
		<path fill-rule="evenodd" clip-rule="evenodd" fill="#FCFDFD" d="M1125.859,1697.787c0,18.657-0.1,37.315,0.081,55.971
			c0.037,3.888-0.995,5.646-5.028,5.048c-1.14-0.169-2.327-0.025-3.493-0.025c-372.14,0-744.28,0-1116.419,0
			c0-20.331,0-40.662,0-60.993c1.33-1.225,2.984-1.36,4.671-1.392c1.666-0.03,3.332-0.024,4.997-0.024
			c368.507-0.001,737.014-0.003,1105.522,0.038C1119.437,1696.41,1122.901,1695.507,1125.859,1697.787z"/>
		<path fill-rule="evenodd" clip-rule="evenodd" fill="#FBFDFD" d="M1,1635.795c374.953,0,749.906,0,1124.859,0
			c0,19.998,0,39.996,0,59.993c-0.66,1.13-1.67,1.515-2.941,1.487c-1.499-0.033-2.998-0.004-4.498-0.004
			c-370.338,0.002-740.676,0.002-1111.014-0.025c-2.131,0-4.332,0.51-6.406-0.458C1,1676.457,1,1656.126,1,1635.795z"/>
		<path fill-rule="evenodd" clip-rule="evenodd" fill="#F9FCFD" d="M1,1452.818c374.953,0,749.906,0,1124.859,0
			c0,20.33,0,40.662,0,60.992c-1.763,1.594-3.96,1.604-6.122,1.604c-46.091,0.034-92.182,0.063-138.272-0.011
			c-1.498-0.003-2.993-0.105-4.469-0.394c-2.414-0.782-4.902-0.792-7.407-0.792c-111.724,0.007-223.446,0.007-335.168,0.013
			c-1.994,0-4.001-0.111-5.968,0.381c-0.666,0.098-1.333,0.095-2,0.019c-3.13-0.699-6.309-0.389-9.465-0.389
			c-202.105-0.017-404.211-0.011-606.316-0.055c-3.247,0-6.713,0.906-9.672-1.377C1,1492.813,1,1472.816,1,1452.818z"/>
		<path fill-rule="evenodd" clip-rule="evenodd" fill="#F5FBFC" d="M1125.859,1267.842c-374.953,0-749.906,0-1124.859,0
			c0-19.998,0-39.995,0-59.993c1.317-1.211,2.931-1.481,4.64-1.483c1.5-0.001,2.999-0.01,4.498-0.01
			c368.861-0.001,737.722-0.003,1106.583,0.033c3.084,0,6.39-0.856,9.139,1.46
			C1125.859,1227.847,1125.859,1247.844,1125.859,1267.842z"/>
		<path fill-rule="evenodd" clip-rule="evenodd" fill="#F9FCFD" d="M976.878,1513.811c49.661,0,99.32,0,148.981,0
			c0,19.998,0,39.995,0,59.992c-374.953,0-749.906,0-1124.859,0c0-19.997,0-39.994,0-59.992c1.731-0.92,3.6-0.462,5.397-0.463
			c114.092-0.024,228.184-0.022,342.276-0.022c90.602,0,181.203-0.001,271.806,0.006c2.156,0.001,4.336-0.218,6.443,0.479
			c0.333,0,0.667,0,1,0c1.73-0.916,3.599-0.462,5.396-0.463c112.721-0.024,225.441-0.024,338.163,0
			C973.278,1513.349,975.146,1512.895,976.878,1513.811z"/>
		<path fill-rule="evenodd" clip-rule="evenodd" fill="#F4FAFB" d="M1014.873,1142.857c20.462,9.459,41.094,18.582,61.044,29.09
			c15.38,8.102,30.426,16.835,45.758,25.03c3.497,1.869,4.772,4.191,4.185,7.872c-1.318,1.21-2.932,1.481-4.641,1.483
			c-1.498,0.001-2.998,0.011-4.497,0.011c-368.862,0-737.724,0.002-1106.586-0.034c-3.083,0-6.388,0.854-9.136-1.459
			c0-2.333,0-4.667,0-7c13.152-8.347,26.918-15.628,40.723-22.784c22.075-11.442,44.376-22.446,67.264-32.209
			c25.461-1.365,50.941-0.587,76.41-0.594c271.727-0.071,543.454-0.035,815.181-0.118
			C1005.379,1142.143,1010.088,1143.107,1014.873,1142.857z"/>
		<path fill-rule="evenodd" clip-rule="evenodd" fill="#FEFEFE" d="M1,1012.873c0-140.315,0-280.632,0-420.947
			c2.723-0.59,4.337,1.376,6.042,2.821c15.025,12.725,28.545,26.961,41.468,41.771c9.198,10.542,18.243,21.239,26.259,32.714
			c18.988,27.187,33.676,56.263,38.686,89.527c1.091,7.244,3.749,14.158,4.831,21.433c2.748,18.473,0.063,36.523-4.171,54.434
			c-5.761,24.367-14.942,47.652-22.591,71.426c-4.582,14.239-13.905,24.946-23.302,35.609
			c-20.464,23.221-41.676,45.775-62.965,68.247C4.083,1011.146,3.29,1013.148,1,1012.873z"/>
		<path fill-rule="evenodd" clip-rule="evenodd" fill="#FEFEFE" d="M600.925,1c45.661,0,91.321,0,136.983,0
			c1.572,2.744-0.47,4.788-1.507,6.901c-7.283,14.844-13.49,30.088-17.138,46.261c-5.08,22.525-6.998,45.24-5.291,68.377
			c1.003,13.607,2.097,27.178,3.646,40.731c2.252,19.707,8.26,38.347,15.326,56.73c0.925,2.406,3.172,5.464,0.94,7.396
			c-2.283,1.976-4.83-0.903-6.957-2.212c-16.91-10.397-33.145-21.647-47.2-35.867c-8.97-9.074-16.816-18.861-22.804-30.145
			c-5.002-9.426-10.876-18.329-16.88-27.133c-12.55-18.403-19.786-39.174-26.626-60.067c-6.326-19.327-11.301-39.022-13.419-59.325
			C599.592,8.744,598.548,4.714,600.925,1z"/>
		<path fill-rule="evenodd" clip-rule="evenodd" fill="#E6E6E6" d="M600.925,1c-0.105,18.588,4.218,36.45,8.953,54.236
			c5.007,18.806,11.697,37.032,19.27,54.936c2.985,7.058,7.054,13.588,11.382,19.874c9.245,13.425,16.254,28.256,25.685,41.494
			c13.678,19.202,31.957,33.598,51.573,46.341c5.094,3.31,10.329,6.4,16.585,10.262c-2.18-6.301-3.687-11.522-5.764-16.505
			c-7.018-16.831-10.555-34.443-12.81-52.454c-2.475-19.771-4.357-39.589-3.781-59.497c0.808-27.903,5.875-54.99,17.776-80.514
			c2.803-6.012,5.414-12.114,8.114-18.173c0.999,0,1.999,0,2.999,0c2.349,1.732,0.781,3.462-0.063,5.118
			c-8.401,16.479-15.372,33.508-19.299,51.64c-2.771,12.796-4.69,25.72-4.643,38.87c0.052,14.458-0.396,28.93,1.042,43.347
			c2.62,26.272,6.482,52.278,17.292,76.71c0.067,0.151,0.192,0.296,0.207,0.451c1.217,13.04,10.868,18.258,21.114,23.181
			c20.99,10.087,41.839,20.471,62.842,30.53c2.055,0.984,2.21,2.672,3.207,4.065c0.707,0.981,0.169,1.137-0.708,1.068
			c-3.272-0.079-6.076-1.575-8.9-2.979c-21.759-10.807-43.961-20.725-65.208-32.559c-1.575-0.877-3.262-1.551-5.407-2.559
			c0.341,5.193,2.482,9.301,4.289,13.402c7.915,17.955,19.213,33.631,32.213,48.277c18.721,21.088,40.345,38.912,61.895,56.899
			c23.563,19.669,47.505,38.838,72.652,56.434c25.217,17.645,51.616,33.326,79.004,47.441
			c32.371,16.686,64.374,34.086,96.543,51.166c11.163,5.928,22.317,11.875,33.535,17.697c2.532,1.313,4.092,2.784,3.009,5.896
			c-1.987,0.296-3.407-1.035-4.938-1.841c-36.056-18.989-72.172-37.863-108.095-57.101c-23.876-12.787-48.097-24.96-71.082-39.377
			c-20.827-13.064-40.934-27.138-60.372-42.18c-22.821-17.66-45.139-35.93-66.948-54.828c-22.413-19.42-43.808-39.784-59.888-65
			c-7.167-11.238-13.457-22.977-16.482-36.113c-0.946-4.109-3.861-5.993-7.088-7.777c-18.387-10.175-35.456-22.281-50.726-36.657
			c-10.029-9.442-18.764-20.15-25.179-32.563c-6.497-12.567-15.046-23.886-22.345-35.966c-8.735-14.455-14.252-30.335-19.721-46.197
			c-7.201-20.883-12.548-42.242-15.615-64.133c-0.665-4.746-0.761-9.573-1.118-14.362C597.592,1,599.258,1,600.925,1z"/>
		<path fill-rule="evenodd" clip-rule="evenodd" fill="#F7FBFC" d="M1125.859,1390.826c-374.953,0-749.906,0-1124.859,0
			c0-1.333,0-2.667,0-4c374.953,0,749.906,0,1124.859,0C1125.859,1388.159,1125.859,1389.493,1125.859,1390.826z"/>
		<path fill-rule="evenodd" clip-rule="evenodd" fill="#E6E6E6" d="M1,1012.873c4.667-5.84,10.17-10.913,15.167-16.459
			c14.337-15.914,29.368-31.202,43.725-47.099c8.542-9.459,16.476-19.484,24.391-29.486c3.552-4.486,4.497-10.351,6.347-15.638
			c8.329-23.795,17.158-47.445,22.788-72.1c3.372-14.77,5.432-29.69,4.468-44.854c-0.344-5.415-1.521-10.774-2.8-16.105
			c-2.663-11.096-4.358-22.446-7.431-33.418c-5.132-18.333-13.552-35.346-23.255-51.65c-11.579-19.458-26.325-36.535-41.185-53.521
			c-8.974-10.259-18.777-19.668-28.377-29.297c-4.235-4.249-8.856-7.997-13.837-11.319c0-1.667,0-3.333,0-4.999
			c4.452,1.022,7.334,4.518,10.536,7.233c15.879,13.467,29.723,28.928,43.167,44.786c13.106,15.462,25.894,31.13,35.828,48.893
			c11.802,21.104,21.805,42.868,25.518,67.097c1.276,8.328,3.768,16.462,5.299,24.759c1.967,10.655,1.535,21.377,0.202,32.105
			c-3.775,30.401-14.542,58.828-24.512,87.484c-0.31,0.891-0.51,1.819-0.06,3.114c5.815-8.762,11.811-17.409,17.41-26.306
			c13.004-20.665,26.433-41.095,37.045-63.158c10.043-20.882,17.11-42.45,15.615-66.127c-0.514-8.131-0.056-16.321-0.062-24.485
			c-0.001-1.781,0.085-3.393,2.519-3.382c2.042,0.009,2.643,1.24,2.438,2.932c-2.345,19.428,1.31,39.197-3.595,58.502
			c-5.549,21.84-15.624,41.618-27.174,60.719c-9.88,16.339-19.986,32.543-30.211,48.668c-4.261,6.719-8.779,13.327-13.737,19.542
			c-7.505,9.406-11.573,20.458-16.016,31.348c-8.748,21.442-19.573,41.814-31.221,61.791c-13.133,22.527-26.077,45.163-39.13,67.736
			c-3.234,5.593-6.57,11.127-9.859,16.688c0-3,0-6,0-8.999c3.167-9.571,9.238-17.595,14.096-26.252
			c15.872-28.288,33.043-55.846,47.907-84.695c4.556-8.842,8.785-17.896,12.537-27.208c-5.295,7.213-11.416,13.655-17.486,20.05
			c-10.76,11.337-21.169,22.995-31.906,34.354c-5.814,6.15-11.713,12.252-17.228,18.703c-2.135,2.498-3.778,6.028-7.92,6.055
			C1,1016.873,1,1014.873,1,1012.873z"/>
		<path fill-rule="evenodd" clip-rule="evenodd" fill="#F4FAFB" d="M1,1204.85c374.953,0,749.906,0,1124.859,0c0,1,0,2,0,3
			c-374.953,0-749.906,0-1124.859,0C1,1206.849,1,1205.849,1,1204.85z"/>
		<path fill-rule="evenodd" clip-rule="evenodd" fill="#FEFEFE" d="M1,1018.873c7.123-5.55,12.511-12.827,18.515-19.414
			c5.235-5.744,10.652-11.375,15.872-17.14c13.572-14.991,27.761-29.426,40.708-44.99c0.298-0.358,0.791-0.556,1.538-1.062
			c-0.468,4.687-2.881,8.321-4.541,12.13c-10.694,24.551-24.464,47.474-37.819,70.611c-10.776,18.672-21.557,37.342-32.351,56.005
			c-0.572,0.99-1.278,1.902-1.922,2.851C1,1058.201,1,1038.537,1,1018.873z"/>
		<path fill-rule="evenodd" clip-rule="evenodd" fill="#E6E6E6" d="M1,457.942c1.808-1.448,3.016-2.124,5.094,0.365
			c13.383,16.031,27.063,31.815,40.598,47.721c13.213,15.526,26.625,30.893,39.491,46.702c21.02,25.828,42.905,51.01,60.602,79.389
			c9.448,15.149,14.438,31.967,18.809,49.045c0.33,1.291,0.321,2.292-1.074,2.857c-1.416,0.03-1.856-1.081-2.408-2.06
			c-3.325-3.312-3.1-7.948-4.127-11.993c-5.554-21.857-17.123-40.409-30.516-58.165c-20.256-26.854-41.745-52.688-63.417-78.388
			c-17.084-20.26-33.994-40.666-51.547-60.525C8.679,468.564,5.449,463.713,1,459.942C1,459.275,1,458.609,1,457.942z"/>
		<path fill-rule="evenodd" clip-rule="evenodd" fill="#FBFDFD" d="M1,1696.788c372.523,0,745.047,0.001,1117.57-0.015
			c2.458-0.001,5.019,0.512,7.289-0.985c0,0.667,0,1.333,0,1.999c-374.953,0-749.906,0-1124.859,0C1,1697.455,1,1697.121,1,1696.788
			z"/>
		<path fill-rule="evenodd" clip-rule="evenodd" fill="#F9FCFD" d="M626.922,1513.811c-208.641,0-417.282,0-625.922,0
			c0-0.333,0-0.667,0-1c206.413,0,412.825-0.004,619.238,0.044C622.463,1512.855,624.923,1511.947,626.922,1513.811z"/>
		<path fill-rule="evenodd" clip-rule="evenodd" fill="#F3F9FB" d="M1014.873,1142.857c-1.477,1.638-3.436,0.972-5.184,0.972
			c-298.506,0.029-597.013,0.029-895.519,0c-1.749,0-3.708,0.667-5.184-0.972c30.486-13.179,61.441-25.165,93.019-35.439
			c39.727-12.927,80.018-23.922,120.955-32.269c26.214-5.344,52.558-10.105,79.148-13.412c18.039-2.244,36.083-4.303,54.186-5.964
			c13.851-1.271,27.722-2.06,41.583-3.073c32.217-2.355,64.456-1.908,96.688-1.636c7.752,0.065,15.561,0.768,23.358,0.804
			c1.488,1.231,3.503-0.179,5.002,0.999c17.564,0.269,35.021,1.963,52.468,3.876c13.638,1.497,27.343,2.439,40.94,4.222
			c15.722,2.062,31.406,4.5,47.021,7.259c33.089,5.847,65.945,12.839,98.377,21.665c25.438,6.922,50.678,14.501,75.625,23.092
			C963.566,1122.006,989.226,1132.401,1014.873,1142.857z"/>
		<path fill-rule="evenodd" clip-rule="evenodd" fill="#E6E6E6" d="M850.231,285.907c3.454-1.216,6.099,1.207,8.831,2.345
			c31.012,12.928,63.021,22.623,95.555,30.909c54.106,13.782,108.07,28.124,162.097,42.224c2.244,0.586,4.499,1.126,6.754,1.667
			c1.767,0.423,2.604,1.613,2.24,3.299c-0.47,2.18-2.13,1.57-3.596,1.191c-19.405-5.027-38.822-10.018-58.217-15.087
			c-46.646-12.192-93.37-24.1-139.887-36.769c-24.186-6.587-47.794-15.117-70.827-25.107c-1.044-0.453-3.483-0.104-2.337-2.653
			C850.28,287.362,849.004,287.015,850.231,285.907z"/>
		<path fill-rule="evenodd" clip-rule="evenodd" fill="#3D3D3D" d="M162.111,681.961c0.803,0.686,1.605,1.374,2.408,2.06
			c5.497,8.241,10.898,16.549,16.604,24.643c0.763,1.083,0.947,2.382,1.861,3.297c1.6,1.535-0.904,1.924-0.845,3.03
			c-1.887,1.355-4.06,0.899-6.15,0.966c-2.829-0.113-5.571,0.162-8.008,1.797c-3.694,0.645-7.388,1.29-11.082,1.936
			c-1.274-0.17-2.601-0.93-3.747,0.334c-0.583,0.749-1.369,0.862-2.238,0.709c-1.417-0.661-4.353,0.121-3.012-3.165
			c2.754-8.976,7.189-17.271,10.509-26.018C159.627,688.346,160.877,685.156,162.111,681.961z"/>
		<path fill-rule="evenodd" clip-rule="evenodd" fill="#0E9EB9" d="M850.231,285.907c0.205,0.672,0.409,1.345,0.614,2.019
			c-11.796,2.039-23.591,4.078-35.751,6.179c2.37-6.316,4.587-12.22,6.804-18.123c0.236-0.356,0.472-0.712,0.708-1.068
			c2.271-5.466,4.544-10.934,7.121-17.133C836.732,267.391,843.482,276.649,850.231,285.907z"/>
		<path fill-rule="evenodd" clip-rule="evenodd" fill="#3B3B3B" d="M167.981,717.754c2.213-2.632,4.96-2.886,8.008-1.797
			C173.569,717.669,170.575,716.817,167.981,717.754z"/>
		<path fill-rule="evenodd" clip-rule="evenodd" fill="#2A2A2A" d="M182.139,714.991c-0.525-0.298-2.506-0.263-0.296-1.196
			c0.864-0.365,1.025-1.059,1.141-1.833c1.286,0.359,1.665,1.408,1.929,2.542C183.988,714.666,183.063,714.828,182.139,714.991z"/>
		<path fill-rule="evenodd" clip-rule="evenodd" fill="#181818" d="M147.902,717.567c-0.333,2.328,2.09,2.033,3.012,3.165
			c-1.46,0.03-2.92,0.061-4.381,0.092C146.54,719.549,146.887,718.418,147.902,717.567z"/>
		<path fill-rule="evenodd" clip-rule="evenodd" fill="#1B1B1B" d="M153.152,720.023c1.095-1.839,2.397-1.352,3.747-0.334
			C155.65,719.801,154.401,719.912,153.152,720.023z"/>
		<path fill-rule="evenodd" clip-rule="evenodd" fill="#F6FBFC" d="M622.925,1052.867c-1.687-0.242-3.602,0.669-5.002-0.999
			C619.608,1052.11,621.523,1051.203,622.925,1052.867z"/>
		<path fill-rule="evenodd" clip-rule="evenodd" fill="#F9FCFD" d="M976.878,1513.811c-116.318,0-232.638,0-348.956,0
			c1.475-1.637,3.432-0.972,5.18-0.972c112.865-0.031,225.73-0.031,338.597,0C973.445,1512.839,975.402,1512.174,976.878,1513.811z"
			/>
	</g>
</g>
</svg>
