<?xml version="1.0" encoding="utf-8"?>
<!-- Generator: Adobe Illustrator 16.0.0, SVG Export Plug-In . SVG Version: 6.00 Build 0)  -->
<!DOCTYPE svg PUBLIC "-//W3C//DTD SVG 1.1//EN" "http://www.w3.org/Graphics/SVG/1.1/DTD/svg11.dtd">
<svg version="1.1" id="Layer_1" xmlns="http://www.w3.org/2000/svg" xmlns:xlink="http://www.w3.org/1999/xlink" x="0px" y="0px"
	 width="1124.859px" height="2435.695px" viewBox="0 0 1124.859 2435.695" enable-background="new 0 0 1124.859 2435.695"
	 xml:space="preserve">
<g>
	<g>
		<path fill-rule="evenodd" clip-rule="evenodd" fill="#FEFEFE" d="M1,457.942C1,307.129,1.016,156.313,0.906,5.499
			C0.903,1.751,1.751,0.904,5.5,0.906C202.308,1.013,399.117,1,595.926,1c2.716,5.552,2.131,11.695,2.978,17.557
			c4.804,33.251,15.216,64.803,28.518,95.491c2.048,4.728,4.829,9.136,7.621,13.477c8.38,13.03,16.321,26.319,24.334,39.577
			c12.276,20.313,30.087,35.412,49.51,48.657c7.295,4.975,14.553,10.025,22.423,14.084c4.251,2.192,6.66,5.469,8.019,10.185
			c5.532,19.209,15.862,35.886,28.303,51.304c17.339,21.491,37.761,39.86,58.872,57.51c21.091,17.633,42.289,35.133,64.288,51.631
			c26.428,19.819,53.946,37.941,83.071,53.604c34.327,18.46,68.869,36.516,103.195,54.978c14.229,7.653,28.591,15.063,42.92,22.532
			c1.146,0.599,2.226,1.461,3.978,1.422c-0.299-2.021-1.94-2.557-3.282-3.26c-17.414-9.113-34.838-18.21-52.108-27.593
			c-42.001-22.818-85.186-43.478-125.965-68.513c-24.303-14.92-47.334-31.704-69.682-49.428
			c-21.013-16.668-41.841-33.563-61.989-51.263c-21.847-19.195-42.169-39.81-57.146-65.042c-4.42-7.448-8.285-15.23-11.126-23.448
			c-0.721-2.085-2.635-4.683-0.442-6.464c2.098-1.705,4.438,0.435,6.379,1.508c6.71,3.712,13.518,7.223,20.381,10.635
			c17.003,8.454,33.994,16.933,51.386,24.574c0.768,0.338,1.469,0.783,1.984,1.47c0.751,3.757-1.724,6.641-2.691,9.933
			c-0.545,1.853-2.164,3.373-1.713,6.056c7.445-0.97,14.69-2.727,22.034-3.837c3.561-0.539,7.076-2.119,10.795-0.85
			c3.777,2.892,8.324,4.19,12.623,5.927c29.095,11.758,59.05,20.833,89.421,28.634c55.189,14.177,110.235,28.91,165.48,42.875
			c1.533,0.388,3.042,1.17,4.918,0.741c-1.106-1.973-2.911-1.917-4.414-2.302c-52.135-13.349-104.15-27.152-156.269-40.559
			c-32.94-8.474-65.623-17.732-97.232-30.445c-4.939-1.987-9.686-4.485-14.899-5.745c-3.405-1.543-4.86-4.892-6.908-7.651
			c-4.422-5.96-8.516-12.163-13.462-18.579c-1.885,3.771-2.919,7.254-4.433,10.514c-0.787,1.694-1.014,3.977-3.546,4.276
			c-7.359-5.94-16.18-9.2-24.561-13.187c-18.207-8.661-36.221-17.682-53.98-27.222c-2.776-1.491-4.683-3.657-5.773-6.605
			c-8.03-21.728-16.013-43.426-18.707-66.697c-3.882-33.521-6.065-66.995,0.42-100.443c3.546-18.291,10.274-35.48,18.504-52.119
			c1.257-2.541,2.569-5.042,2.958-7.898c127.151,0,254.302,0.02,381.452-0.095c3.75-0.003,4.593,0.846,4.593,4.594
			c-0.096,809.232-0.096,1618.465,0,2427.696c0,3.749-0.844,4.594-4.593,4.593c-372.286-0.1-744.573-0.1-1116.86,0
			c-3.749,0.001-4.595-0.844-4.593-4.593C1.011,2208.724,1,1984.252,1,1759.779c1.61-1.469,3.622-1.549,5.63-1.604
			c2.332-0.063,4.665-0.032,6.997-0.032c364.851-0.001,729.703,0,1094.554-0.002c2.832,0,5.665,0.07,8.495-0.057
			c6.579-0.297,7.501-1.184,7.526-7.707c0.057-14.827,0.007-29.655,0.027-44.481c0.003-2.497-0.145-4.999,0.152-7.488
			c0.029-0.986,0.03-1.971-0.098-2.951c0.021-19.885-0.191-39.77,0.088-59.654c-0.208-20.649-0.231-41.297-0.002-61.945
			c-0.202-19.997-0.228-39.996,0-59.994c-0.201-20.318-0.229-40.637,0.002-60.955c-0.182-20.537-0.247-41.076,0.018-61.613
			c-0.075-1.633-0.075-3.266-0.002-4.898c-0.343-36.3-0.068-72.601-0.148-108.9c-0.007-3.162-0.137-6.329,0.132-9.486
			c-0.202-19.651-0.169-39.305-0.032-58.95c0.147-1.133,0.039-2.283,0.125-3.417c0.689-3.79-0.885-6.144-4.236-8.068
			c-31.805-18.265-64.357-35.048-97.957-49.775c-2.897-1.27-5.654-2.86-8.699-3.808c-68.621-29.583-139.562-51.823-212.682-67.11
			c-33.111-6.922-66.462-12.554-100.08-16.316c-19.996-2.238-40.021-4.368-60.141-5.453c-5.794-0.313-11.626-0.592-17.415-1.23
			c-1.869-0.616-3.79-0.729-5.74-0.57c-22.629-0.777-45.26-1.157-67.905-1.032c-22.804,0.126-45.546,1.359-68.29,2.88
			c-41.9,2.801-83.532,7.78-124.871,15.117c-44.322,7.866-87.995,18.428-131.113,31.412
			c-39.132,11.784-77.271,26.181-114.888,42.036c-35.723,15.312-70.353,32.813-104.033,52.215c-1.648,0.95-3.161,2.565-5.416,1.911
			c0-36.995,0-73.991,0-110.986c2.329-7.929,7.2-14.556,11.202-21.609c18.412-32.448,38.063-64.201,55.215-97.351
			c6.958-13.449,12.88-27.437,18.235-41.629c1.662-4.405,4.064-8.357,6.769-12.191c22.875-32.425,44.56-65.608,62.474-101.08
			c6.929-13.72,11.995-28.197,14.314-43.507c0.25-1.652,0.424-3.3,0.46-4.97c0.246-11.477-0.581-22.975,0.911-34.434
			c0.372-2.851,0.541-5.904-0.712-9.209c-2.047,1.634-1.548,3.528-1.56,5.171c-0.056,7.996-0.345,16.01,0.039,23.988
			c0.911,18.964-4.105,36.577-11.387,53.781c-9.791,23.131-23.504,44.049-36.582,65.332c-6.195,10.082-12.896,19.831-19.483,29.655
			c-1.147,1.711-2.388,4.837-4.555,3.758c-2.265-1.127-0.313-3.874,0.342-5.816c8.043-23.826,16.817-47.425,21.568-72.243
			c3.738-19.529,4.54-38.919-1.237-58.262c-2.957-9.9-3.399-20.379-6.524-30.267c-7.388-23.375-18.058-45.179-32.271-65.114
			c-16.856-23.643-35.928-45.452-56.553-65.886C15.161,598.538,7.684,593.18,1,586.927c0-42.328,0-84.656,0-126.984
			c2.532-0.569,3.473,1.499,4.716,2.938c27.428,31.726,54.664,63.62,81.303,96.008c20.929,25.447,42.363,50.556,59.401,78.938
			c6.756,11.255,10.451,23.726,13.838,36.284c0.737,2.732,1.488,5.457,2.409,8.135c-0.503,6.419-4.09,11.741-6.363,17.516
			c-2.349,5.967-4.787,11.911-7.37,17.784c-0.307,0.733-0.684,1.431-1.39,2.21c1.158,0.243,2.164-0.154,3.16-0.146
			c0.934-0.085,1.825-0.364,2.73-0.597c1.193-0.305,2.419-0.384,3.626-0.597c3.494-0.686,7.024-1.15,10.513-1.857
			c2.706-0.53,5.425-0.996,8.106-1.64c1.823-0.376,3.726-0.114,5.511-0.691c1.197-0.42,1.351-1.114,0.516-2.072
			c-4.892-8.031-10.765-15.39-15.66-23.401c-0.856-1.402-1.867-2.745-1.785-4.52c0.452-2.216-0.322-4.28-0.797-6.379
			c-5.573-24.625-16.817-46.447-32.069-66.466c-23.612-30.991-48.588-60.856-73.667-90.648
			c-16.178-19.219-32.592-38.234-48.794-57.432C6.804,460.785,4.781,458.049,1,457.942z"/>
		<path fill-rule="evenodd" clip-rule="evenodd" fill="#F6FBFC" d="M1125.859,1267.842c0,39.662,0,79.322,0,118.984
			c-1.46,1.338-3.278,1.521-5.131,1.593c-1.997,0.077-3.997,0.049-5.997,0.049c-367.536,0.002-735.072,0.005-1102.608-0.04
			c-3.739,0-7.715,0.973-11.124-1.602c0-39.662,0-79.322,0-118.984c1.459-1.338,3.278-1.521,5.129-1.593
			c1.999-0.076,3.999-0.049,5.998-0.049c367.535-0.002,735.069-0.005,1102.604,0.04
			C1118.473,1266.24,1122.449,1265.266,1125.859,1267.842z"/>
		<path fill-rule="evenodd" clip-rule="evenodd" fill="#FAFCFD" d="M1125.859,1573.803c0,20.665,0,41.328,0,61.992
			c-1.46,1.338-3.278,1.521-5.131,1.593c-1.997,0.076-3.997,0.049-5.997,0.049c-367.536,0.002-735.072,0.005-1102.608-0.04
			c-3.739-0.001-7.715,0.973-11.124-1.602c0-20.664,0-41.327,0-61.992c1.459-1.338,3.278-1.521,5.129-1.592
			c1.999-0.076,3.999-0.049,5.998-0.049c367.535-0.002,735.069-0.006,1102.604,0.039
			C1118.473,1572.201,1122.449,1571.228,1125.859,1573.803z"/>
		<path fill-rule="evenodd" clip-rule="evenodd" fill="#F7FBFC" d="M1125.859,1390.826c0,20.664,0,41.328,0,61.992
			c-1.46,1.338-3.278,1.521-5.131,1.593c-1.997,0.076-3.997,0.049-5.997,0.049c-367.536,0.002-735.072,0.005-1102.608-0.04
			c-3.739,0-7.715,0.973-11.124-1.602c0-20.664,0-41.328,0-61.992c1.459-1.338,3.278-1.521,5.129-1.593
			c1.999-0.076,3.999-0.049,5.998-0.049c367.535-0.002,735.069-0.005,1102.604,0.04
			C1118.473,1389.225,1122.449,1388.25,1125.859,1390.826z"/>
		<path fill-rule="evenodd" clip-rule="evenodd" fill="#FCFDFD" d="M1125.859,1697.787c0,18.493-0.191,36.99,0.139,55.479
			c0.08,4.439-1.644,5.991-5.422,6.367c-1.981,0.197-3.992,0.143-5.989,0.143c-371.195,0.004-742.391,0.004-1113.587,0.004
			c0-20.664,0-41.327,0-61.992c1.33-1.225,2.984-1.36,4.671-1.392c1.666-0.03,3.332-0.024,4.997-0.024
			c368.507-0.001,737.014-0.003,1105.522,0.038C1119.437,1696.41,1122.901,1695.507,1125.859,1697.787z"/>
		<path fill-rule="evenodd" clip-rule="evenodd" fill="#FBFDFD" d="M1,1635.795c374.953,0,749.906,0,1124.859,0
			c0,19.998,0,39.996,0,59.993c-0.66,1.13-1.67,1.515-2.941,1.487c-1.499-0.033-2.998-0.004-4.498-0.004
			c-370.338,0.002-740.676,0.002-1111.014-0.025c-2.131,0-4.332,0.51-6.406-0.458C1,1676.457,1,1656.126,1,1635.795z"/>
		<path fill-rule="evenodd" clip-rule="evenodd" fill="#F9FCFD" d="M1,1452.818c374.953,0,749.906,0,1124.859,0
			c0,20.33,0,40.662,0,60.992c-1.763,1.594-3.96,1.604-6.122,1.604c-46.091,0.034-92.182,0.063-138.272-0.011
			c-1.498-0.003-2.993-0.105-4.469-0.394c-2.414-0.782-4.902-0.792-7.407-0.792c-111.724,0.007-223.446,0.007-335.168,0.013
			c-1.994,0-4.001-0.111-5.968,0.381c-0.666,0.098-1.333,0.095-2,0.019c-3.13-0.699-6.309-0.389-9.465-0.389
			c-202.105-0.017-404.211-0.011-606.316-0.055c-3.247,0-6.713,0.906-9.672-1.377C1,1492.813,1,1472.816,1,1452.818z"/>
		<path fill-rule="evenodd" clip-rule="evenodd" fill="#F5FBFC" d="M1125.859,1267.842c-374.953,0-749.906,0-1124.859,0
			c0-19.998,0-39.995,0-59.993c1.317-1.211,2.931-1.481,4.64-1.483c1.5-0.001,2.999-0.01,4.498-0.01
			c368.861-0.001,737.722-0.003,1106.583,0.033c3.084,0,6.39-0.856,9.139,1.46
			C1125.859,1227.847,1125.859,1247.844,1125.859,1267.842z"/>
		<path fill-rule="evenodd" clip-rule="evenodd" fill="#F9FCFD" d="M626.922,1513.811c0.333,0,0.667,0,1,0
			c1.73-0.916,3.599-0.462,5.396-0.463c112.721-0.024,225.441-0.024,338.163,0c1.797,0.001,3.665-0.453,5.396,0.463
			c49.661,0,99.32,0,148.981,0c0,19.998,0,39.995,0,59.992c-374.953,0-749.906,0-1124.859,0c0-19.997,0-39.994,0-59.992
			c1.731-0.92,3.6-0.462,5.397-0.463c114.092-0.024,228.184-0.022,342.276-0.022c90.602,0,181.203-0.001,271.806,0.006
			C622.635,1513.332,624.814,1513.113,626.922,1513.811z"/>
		<path fill-rule="evenodd" clip-rule="evenodd" fill="#F4FAFB" d="M1014.873,1142.857c20.462,9.459,41.094,18.582,61.044,29.09
			c15.38,8.102,30.426,16.835,45.758,25.03c3.497,1.869,4.772,4.191,4.185,7.872c-1.318,1.21-2.932,1.481-4.641,1.483
			c-1.498,0.001-2.998,0.011-4.497,0.011c-368.862,0-737.724,0.002-1106.586-0.034c-3.083,0-6.388,0.854-9.136-1.459
			c0-2.333,0-4.667,0-7c13.152-8.347,26.919-15.628,40.723-22.784c22.075-11.442,44.376-22.446,67.264-32.209
			c25.461-1.365,50.941-0.587,76.41-0.594c271.727-0.071,543.454-0.035,815.181-0.118
			C1005.379,1142.143,1010.088,1143.107,1014.873,1142.857z"/>
		<path fill-rule="evenodd" clip-rule="evenodd" fill="#FEFEFE" d="M1,1012.873c0-140.315,0-280.632,0-420.947
			c2.723-0.59,4.337,1.376,6.042,2.821c15.025,12.725,28.545,26.961,41.468,41.771c9.198,10.542,18.243,21.239,26.259,32.714
			c18.988,27.187,33.676,56.263,38.686,89.527c1.091,7.244,3.749,14.158,4.831,21.433c2.748,18.473,0.063,36.523-4.171,54.434
			c-5.761,24.367-14.942,47.652-22.591,71.426c-4.582,14.239-13.905,24.946-23.302,35.609
			c-20.464,23.221-41.676,45.775-62.965,68.247C4.083,1011.146,3.29,1013.148,1,1012.873z"/>
		<path fill-rule="evenodd" clip-rule="evenodd" fill="#FEFEFE" d="M600.925,1c45.661,0,91.321,0,136.983,0
			c1.572,2.744-0.47,4.788-1.507,6.901c-7.283,14.844-13.49,30.088-17.138,46.261c-5.08,22.525-6.998,45.24-5.291,68.377
			c1.003,13.607,2.097,27.178,3.646,40.731c2.252,19.707,8.26,38.347,15.326,56.73c0.925,2.406,3.172,5.464,0.94,7.396
			c-2.283,1.976-4.83-0.903-6.957-2.212c-16.91-10.397-33.145-21.647-47.2-35.867c-8.97-9.074-16.816-18.861-22.804-30.145
			c-5.002-9.426-10.876-18.329-16.88-27.133c-12.55-18.403-19.786-39.174-26.626-60.067c-6.326-19.327-11.301-39.022-13.419-59.325
			C599.592,8.744,598.548,4.714,600.925,1z"/>
		<path fill-rule="evenodd" clip-rule="evenodd" fill="#E6E6E6" d="M600.925,1c-0.105,18.588,4.218,36.45,8.953,54.236
			c5.007,18.806,11.697,37.032,19.27,54.936c2.985,7.058,7.054,13.588,11.382,19.874c9.245,13.425,16.254,28.256,25.685,41.494
			c13.678,19.202,31.957,33.598,51.573,46.341c5.094,3.31,10.329,6.4,16.585,10.262c-2.18-6.301-3.687-11.522-5.764-16.505
			c-7.018-16.831-10.555-34.443-12.81-52.454c-2.475-19.771-4.357-39.589-3.781-59.497c0.808-27.903,5.875-54.99,17.776-80.514
			c2.803-6.012,5.414-12.114,8.114-18.173c0.999,0,1.999,0,2.999,0c2.349,1.732,0.781,3.462-0.063,5.118
			c-8.401,16.479-15.372,33.508-19.299,51.64c-2.771,12.796-4.69,25.719-4.643,38.87c0.052,14.458-0.396,28.93,1.042,43.347
			c2.62,26.272,6.483,52.278,17.292,76.709c0.067,0.152,0.192,0.297,0.207,0.452c1.217,13.039,10.868,18.258,21.114,23.181
			c20.99,10.087,41.839,20.471,62.842,30.53c2.055,0.984,2.21,2.672,3.207,4.065c0.707,0.981,0.169,1.137-0.708,1.068
			c-3.272-0.079-6.076-1.575-8.901-2.979c-21.758-10.807-43.96-20.725-65.207-32.559c-1.573-0.876-3.258-1.549-5.407-2.559
			c0.341,5.193,2.482,9.301,4.289,13.402c7.915,17.955,19.213,33.631,32.213,48.277c18.721,21.089,40.345,38.912,61.895,56.899
			c23.563,19.669,47.505,38.837,72.652,56.434c25.217,17.645,51.616,33.326,79.004,47.441
			c32.371,16.686,64.374,34.086,96.543,51.166c11.163,5.928,22.317,11.875,33.535,17.697c2.532,1.313,4.092,2.784,3.009,5.896
			c-1.987,0.296-3.407-1.036-4.938-1.841c-36.055-18.989-72.172-37.863-108.095-57.101c-23.876-12.786-48.097-24.96-71.082-39.377
			c-20.827-13.064-40.934-27.138-60.372-42.18c-22.82-17.659-45.139-35.93-66.947-54.828c-22.414-19.42-43.809-39.784-59.889-65
			c-7.166-11.239-13.457-22.977-16.482-36.114c-0.946-4.109-3.861-5.993-7.087-7.777c-18.387-10.175-35.457-22.28-50.727-36.657
			c-10.028-9.442-18.764-20.15-25.179-32.563c-6.497-12.568-15.046-23.887-22.345-35.967c-8.735-14.455-14.252-30.334-19.721-46.197
			c-7.2-20.883-12.548-42.242-15.615-64.132c-0.665-4.746-0.761-9.574-1.118-14.363C597.592,1,599.258,1,600.925,1z"/>
		<path fill-rule="evenodd" clip-rule="evenodd" fill="#F7FBFC" d="M1125.859,1390.826c-374.953,0-749.906,0-1124.859,0
			c0-1.333,0-2.667,0-4c374.953,0,749.906,0,1124.859,0C1125.859,1388.159,1125.859,1389.493,1125.859,1390.826z"/>
		<path fill-rule="evenodd" clip-rule="evenodd" fill="#E6E6E6" d="M1,1012.873c4.667-5.84,10.17-10.913,15.167-16.459
			c14.337-15.914,29.368-31.202,43.725-47.099c8.542-9.459,16.476-19.484,24.391-29.486c3.552-4.486,4.497-10.351,6.347-15.638
			c8.329-23.795,17.158-47.445,22.788-72.1c3.372-14.77,5.432-29.69,4.468-44.854c-0.344-5.415-1.521-10.774-2.8-16.105
			c-2.663-11.096-4.358-22.446-7.431-33.418c-5.132-18.333-13.552-35.346-23.255-51.65c-11.579-19.458-26.325-36.535-41.185-53.521
			c-8.974-10.259-18.777-19.668-28.377-29.297c-4.235-4.249-8.856-7.997-13.837-11.319c0-1.667,0-3.333,0-4.999
			c4.452,1.022,7.334,4.518,10.536,7.233c15.879,13.467,29.724,28.927,43.167,44.786c13.106,15.462,25.894,31.13,35.828,48.893
			c11.802,21.103,21.805,42.868,25.518,67.097c1.276,8.327,3.768,16.462,5.299,24.759c1.967,10.655,1.535,21.377,0.202,32.105
			c-3.775,30.401-14.542,58.828-24.512,87.484c-0.31,0.891-0.51,1.819-0.06,3.114c5.815-8.762,11.811-17.409,17.41-26.306
			c13.004-20.665,26.434-41.094,37.045-63.158c10.043-20.882,17.11-42.45,15.615-66.127c-0.514-8.13-0.056-16.321-0.062-24.484
			c-0.001-1.782,0.085-3.394,2.519-3.383c2.042,0.009,2.644,1.24,2.439,2.932c-2.345,19.428,1.31,39.197-3.595,58.502
			c-5.549,21.84-15.624,41.618-27.174,60.719c-9.88,16.338-19.986,32.543-30.212,48.668c-4.261,6.719-8.778,13.327-13.737,19.542
			c-7.505,9.406-11.573,20.457-16.016,31.348c-8.748,21.442-19.573,41.814-31.221,61.791c-13.133,22.526-26.078,45.163-39.13,67.736
			c-3.234,5.593-6.57,11.126-9.859,16.688c0-3,0-6,0-8.999c3.167-9.571,9.238-17.595,14.096-26.252
			c15.872-28.288,33.043-55.846,47.907-84.695c4.556-8.842,8.785-17.896,12.537-27.208c-5.295,7.213-11.416,13.655-17.486,20.05
			c-10.76,11.337-21.169,22.995-31.906,34.354c-5.814,6.15-11.713,12.252-17.228,18.703c-2.135,2.498-3.778,6.028-7.92,6.055
			C1,1016.873,1,1014.873,1,1012.873z"/>
		<path fill-rule="evenodd" clip-rule="evenodd" fill="#F4FAFB" d="M1,1204.85c374.953,0,749.906,0,1124.859,0c0,1,0,2,0,3
			c-374.953,0-749.906,0-1124.859,0C1,1206.849,1,1205.849,1,1204.85z"/>
		<path fill-rule="evenodd" clip-rule="evenodd" fill="#FEFEFE" d="M1,1018.873c7.123-5.55,12.511-12.827,18.515-19.414
			c5.235-5.744,10.652-11.375,15.872-17.14c13.572-14.991,27.761-29.426,40.708-44.99c0.298-0.358,0.791-0.556,1.538-1.062
			c-0.468,4.687-2.881,8.321-4.541,12.13c-10.694,24.551-24.464,47.474-37.819,70.611c-10.776,18.672-21.557,37.342-32.351,56.005
			c-0.572,0.99-1.278,1.902-1.922,2.851C1,1058.201,1,1038.537,1,1018.873z"/>
		<path fill-rule="evenodd" clip-rule="evenodd" fill="#E6E6E6" d="M162.111,681.961c-3.325-3.312-3.1-7.948-4.127-11.993
			c-5.554-21.857-17.123-40.409-30.516-58.165c-20.256-26.854-41.745-52.688-63.417-78.388
			c-17.084-20.26-33.994-40.666-51.547-60.525C8.679,468.564,5.449,463.713,1,459.942c0-0.667,0-1.333,0-2
			c1.808-1.448,3.016-2.124,5.094,0.365c13.383,16.031,27.063,31.815,40.598,47.721c13.213,15.526,26.625,30.893,39.491,46.702
			c21.02,25.828,42.905,51.01,60.602,79.389c9.448,15.149,14.438,31.967,18.809,49.045c0.33,1.291,0.321,2.292-1.074,2.857
			C163.103,684.051,162.662,682.94,162.111,681.961z"/>
		<path fill-rule="evenodd" clip-rule="evenodd" fill="#FBFDFD" d="M1,1696.788c372.523,0,745.047,0.001,1117.57-0.015
			c2.458-0.001,5.019,0.512,7.289-0.985c0,0.667,0,1.333,0,1.999c-374.953,0-749.906,0-1124.859,0C1,1697.455,1,1697.121,1,1696.788
			z"/>
		<path fill-rule="evenodd" clip-rule="evenodd" fill="#F9FCFD" d="M626.922,1513.811c-208.641,0-417.282,0-625.922,0
			c0-0.333,0-0.667,0-1c206.413,0,412.825-0.004,619.238,0.044C622.463,1512.855,624.923,1511.947,626.922,1513.811z"/>
		<path fill-rule="evenodd" clip-rule="evenodd" fill="#F3F9FB" d="M1014.873,1142.857c-1.477,1.638-3.436,0.972-5.184,0.972
			c-298.506,0.029-597.013,0.029-895.519,0c-1.749,0-3.708,0.667-5.184-0.972c30.486-13.179,61.441-25.165,93.019-35.439
			c39.727-12.926,80.036-23.827,120.948-32.304c27.336-5.664,54.88-10.312,82.546-14.09c13.092-1.788,26.292-2.769,39.438-4.171
			c17.776-1.894,35.604-2.975,53.437-4.195c32.394-2.217,64.792-1.874,97.188-1.557c7.41,0.072,14.9,0.591,22.359,0.768
			c1.488,1.231,3.503-0.179,5.002,0.999c17.564,0.269,35.021,1.963,52.468,3.876c13.638,1.497,27.343,2.439,40.94,4.222
			c15.722,2.062,31.406,4.5,47.021,7.259c33.089,5.847,65.945,12.839,98.377,21.665c25.438,6.922,50.678,14.5,75.625,23.091
			C963.566,1122.006,989.226,1132.401,1014.873,1142.857z"/>
		<path fill-rule="evenodd" clip-rule="evenodd" fill="#0D9DB9" d="M464.829,485.561c1.13-3.688,3.642-6.17,6.898-8.056
			c30.208-17.488,60.416-34.977,90.59-52.52c1.978-1.149,3.527-1.09,5.496,0.055c30.038,17.459,60.125,34.837,90.182,52.264
			c7.079,4.104,9.794,10.648,9.435,18.458c-0.384,8.396-4.769,14.556-12.473,17.606c-3.734,1.479-4.232,3.268-4.208,6.884
			c0.199,29.751-11.627,54.359-32.99,74.555c-12.234,11.564-25.58,21.589-41.902,26.873c-0.882-0.447-1.847-0.24-2.767-0.304
			c-0.646-0.044-0.949,0.521-0.324,0.29c0.045-0.017,0.175,0.195,0.266,0.3c-0.919,0.778-1.979,1-3.146,0.797
			c-3.311-0.572-6.618-0.604-9.926,0.017c-12.551-1.3-22.504-8.299-32.308-15.257c-21.644-15.363-37.975-34.83-45.042-61.01
			c-2.556-9.469-4.268-19.089-2.984-28.942c0.36-2.77-1.491-2.943-3.105-3.543c-7.174-2.666-11.948-7.422-13.397-15.138
			C463.931,494.478,462.737,489.809,464.829,485.561z"/>
		<path fill-rule="evenodd" clip-rule="evenodd" fill="#0D9DB9" d="M465.874,701.977c-1.807-1.214-0.851-3.046-0.867-4.55
			c-0.103-9.609-0.052-19.221-0.052-30.129c-4.888,5.919-9.097,10.893-13.167,15.979c-5.566,6.956-6.195,5.648-10,0.357
			c-3.921-5.452-8.588-10.366-13.789-16.535c0,11.199-0.342,21.113,0.138,30.986c0.257,5.296-2.743,4.417-5.882,4.564
			c-3.47,0.163-5.466-0.231-5.359-4.724c0.339-14.141,0.092-28.294,0.263-42.441c0.022-1.86-1.637-5.146,1.347-5.473
			c3.465-0.379,7.473-1.999,10.564,1.89c5.578,7.016,11.442,13.805,17.417,20.965c6.427-7.385,12.796-14.704,19.165-22.023
			c9.771-1.305,9.771-1.305,9.771,8.015c0.001,12.327,0.004,24.653-0.001,36.98c-0.002,5.995-0.01,5.996-6.053,6.07
			C468.205,701.922,467.039,701.912,465.874,701.977z"/>
		<path fill-rule="evenodd" clip-rule="evenodd" fill="#0D9DB9" d="M597.771,674.788c9.731,4.277,12.902,10.007,10.332,17.859
			c-1.886,5.757-6.377,8.431-11.858,9.205c-9.748,1.377-19.6,0.407-29.403,0.647c-2.369,0.059-2.625-1.327-2.621-3.222
			c0.036-15.471,0.063-30.941-0.023-46.411c-0.013-2.387,0.735-3.203,3.135-3.155c7.981,0.159,15.977-0.103,23.944,0.263
			c6.672,0.307,11.354,4.232,12.816,9.856C605.788,666.354,604.203,670.251,597.771,674.788z"/>
		<path fill-rule="evenodd" clip-rule="evenodd" fill="#0D9DB9" d="M817.842,650.117c5.486,1.152,10.691,2.735,13.142,8.551
			c1.725,3.904,1.136,8.129,1.694,12.196c-1.796,7.019-6.904,10.486-13.696,12.502c3.438,3.616,6.544,7.311,10.999,9.408
			c1.953,0.921,4.176,1.747,6.26,0.772c3.538-1.656,3.281,0.484,4.015,2.962c1.508,5.088-1.142,5.964-5.131,6.506
			c-6.897,0.938-12.285-1.958-17.027-6.421c-3.265-3.074-6.386-6.326-9.341-9.701c-2.45-2.799-5.198-4.007-8.822-2.918
			c-1.232,4.208-0.675,8.541-0.426,12.755c0.26,4.372-1.732,4.743-5.262,4.774c-3.442,0.031-5.01-0.473-4.932-4.529
			c0.267-13.945,0.224-27.899,0.02-41.846c-0.053-3.63,0.775-4.879,4.639-4.803C801.921,650.484,809.893,650.841,817.842,650.117z"
			/>
		<path fill-rule="evenodd" clip-rule="evenodd" fill="#0D9DB9" d="M404.728,681.86c-2.012,8.583-6.388,15.304-14.834,18.815
			c-4.418,0.285-8.546,2.193-13.151,1.869c-2.604-0.183-5.116-1.18-7.755-0.813c-11.2-4.285-17.903-13.145-17.932-24.836
			c-0.029-11.705,4.731-20.823,15.953-25.745c7.298-2.001,14.603-1.976,21.915-0.081c7.395,3.012,12.354,8.297,14.837,15.894
			C404.48,671.903,404.296,676.901,404.728,681.86z"/>
		<path fill-rule="evenodd" clip-rule="evenodd" fill="#E6E6E6" d="M850.231,285.907c3.454-1.216,6.099,1.207,8.831,2.345
			c31.012,12.928,63.021,22.623,95.555,30.909c54.106,13.782,108.07,28.124,162.097,42.224c2.244,0.586,4.499,1.126,6.754,1.667
			c1.767,0.423,2.604,1.613,2.24,3.299c-0.471,2.18-2.13,1.57-3.596,1.191c-19.405-5.027-38.822-10.018-58.217-15.086
			c-46.646-12.193-93.37-24.102-139.887-36.77c-24.186-6.587-47.794-15.117-70.826-25.107c-1.045-0.453-3.484-0.104-2.338-2.653
			C850.28,287.362,849.004,287.015,850.231,285.907z"/>
		<path fill-rule="evenodd" clip-rule="evenodd" fill="#0D9DB9" d="M328.94,701.973c-1.997-5.417-0.746-11.031-0.795-16.534
			c-0.032-3.592-0.732-4.936-4.63-4.747c-7.807,0.375-15.641,0.194-23.464,0.244c-1.36,5.547-0.625,11.193-0.485,16.763
			c0.113,4.515-2.643,3.611-5.18,3.705c-2.746,0.101-5.089,0.464-5.008-3.86c0.27-14.43,0.275-28.872-0.002-43.302
			c-0.085-4.405,2.377-3.858,5.047-3.809c2.564,0.048,5.259-0.773,5.15,3.726c-0.136,5.558-0.946,11.201,0.536,16.728
			c8.11,0.001,16.223-0.106,24.33,0.063c2.786,0.059,3.558-0.751,3.691-3.581c0.273-5.785-1.324-11.673,0.833-17.359
			c1.18,5.179,0.03,10.453,0.537,15.104c-0.064-3.555,0.084-7.665-0.042-11.769c-0.112-3.603,2.421-2.915,4.459-2.877
			c1.974,0.037,4.56-0.883,4.548,2.775c-0.05,15.164-0.041,30.328-0.006,45.491c0.008,3.289-2.329,2.704-4.191,2.614
			c-1.899-0.093-4.73,1.125-4.768-2.537c-0.047-4.627-0.054-9.254,0.081-13.879c0.078-0.666-1.058,0.097-0.419-0.096
			c0.104-0.031,0.176,0.075,0.175,0.318C329.303,690.762,329.968,696.388,328.94,701.973z"/>
		<path fill-rule="evenodd" clip-rule="evenodd" fill="#0D9DB9" d="M633.969,701.699c-8.206-2.67-12.394-8.639-13.829-16.862
			c0.669-9.719,0.144-19.451,0.288-29.177c0.077-5.225,0.028-5.261,5.457-5.204c1.62,0.018,3.305-0.412,4.857,0.44
			c0.055,9.101,0.118,18.2,0.163,27.3c0.043,8.588,2.121,12.288,8.003,14.189c6.77,2.189,12.205,0.122,17.007-6.47
			c1.601-1.952,1.514-4.294,1.516-6.609c0.007-8.126,0.135-16.255-0.062-24.376c-0.08-3.309,0.671-4.767,4.342-4.602
			c3.22,0.145,5.425,0.28,5.251,4.451c-0.485,11.695,0.876,23.454-1.252,35.094c-2.993,7.114-8.392,11.247-15.868,12.803
			C644.573,701.981,639.202,702.959,633.969,701.699z"/>
		<path fill-rule="evenodd" clip-rule="evenodd" fill="#0D9DB9" d="M745.955,680.148c-0.003,4.195-0.006,8.391-0.009,12.586
			c1.44,1.295,3.19,0.642,4.785,0.66c6.997,0.079,13.998,0.149,20.992-0.019c3.121-0.075,4.829,0.293,4.808,4.179
			c-0.021,3.719-1.681,3.923-4.571,3.89c-10.495-0.12-20.997-0.199-31.489,0.035c-3.657,0.081-4.609-1.326-4.591-4.649
			c0.081-13.996,0.065-27.993,0.009-41.988c-0.012-3.04,0.802-4.529,4.248-4.473c10.827,0.178,21.661,0.181,32.488-0.006
			c3.246-0.056,3.831,1.202,3.857,4.094c0.026,3.008-0.801,4.098-3.942,4.012c-7.492-0.205-14.994-0.119-22.491-0.018
			c-1.342,0.018-3.021-0.868-4.05,0.862c-0.017,3.789-0.033,7.577-0.049,11.367c6.667,1.698,13.447,0.569,20.164,0.637
			c3.622,0.036,4.437,1.239,4.379,4.594c-0.051,2.997-1.231,3.603-3.873,3.533c-5.481-0.145-10.971-0.097-16.455-0.007
			C748.761,679.459,747.155,678.757,745.955,680.148z"/>
		<path fill-rule="evenodd" clip-rule="evenodd" fill="#0D9DB9" d="M502.03,659.301c-0.017,3.796-0.033,7.593-0.05,11.389
			c6.674,1.67,13.458,0.569,20.18,0.625c3.65,0.03,4.409,1.283,4.364,4.613c-0.042,3.023-1.272,3.579-3.891,3.514
			c-5.649-0.139-11.306-0.084-16.958-0.01c-1.234,0.016-2.69-0.636-3.682,0.742c-0.005,4.188-0.011,8.375-0.016,12.563
			c1.442,1.288,3.191,0.64,4.787,0.657c6.996,0.078,14.011,0.325,20.987-0.072c4.368-0.249,4.975,1.661,4.727,5.236
			c-0.148,2.132-0.856,2.885-2.987,2.872c-11.329-0.072-22.659-0.082-33.988,0.003c-2.664,0.021-3.536-1.187-3.541-3.6
			c-0.027-14.661-0.034-29.322,0.003-43.984c0.006-2.543,1.167-3.467,3.696-3.448c11.162,0.079,22.326,0.135,33.487-0.027
			c3.295-0.048,3.289,1.702,3.316,4.075c0.028,2.457-0.167,4.095-3.383,4.014c-7.493-0.188-14.994-0.12-22.49-0.01
			C505.08,658.475,503.258,657.522,502.03,659.301z"/>
		<path fill-rule="evenodd" clip-rule="evenodd" fill="#0D9DB9" d="M725.002,653.225c-4.298,8.028-9.758,15.314-14.838,22.832
			c-2.442,3.614-3.827,7.174-3.438,11.556c0.28,3.138-0.256,6.36,0.129,9.477c0.554,4.496-1.146,5.49-5.49,5.588
			c-4.746,0.106-6.179-1.451-5.521-5.856c1.561-10.45-1.595-19.386-8.142-27.608c-4.307-5.407-7.69-11.549-11.487-17.362
			c3.693-2.915,7.754-1.11,11.69-0.91c4.342,6.594,8.686,13.189,13.24,20.106c4.618-6.939,9.035-13.576,13.453-20.214
			c2.768-0.833,5.603-0.259,8.403-0.368C724.931,650.39,725.874,651.191,725.002,653.225z"/>
		<path fill-rule="evenodd" clip-rule="evenodd" fill="#3D3D3D" d="M162.11,681.961c0.803,0.686,1.606,1.374,2.408,2.06
			c5.497,8.241,10.898,16.549,16.604,24.643c0.763,1.083,0.947,2.382,1.861,3.297c1.6,1.535-0.904,1.924-0.845,3.03
			c-1.887,1.355-4.06,0.899-6.15,0.966c-2.829-0.113-5.571,0.162-8.008,1.797c-3.694,0.645-7.388,1.29-11.082,1.936
			c-1.274-0.17-2.601-0.93-3.747,0.334c-0.583,0.749-1.369,0.862-2.238,0.709c-1.417-0.661-4.353,0.121-3.012-3.165
			c2.754-8.976,7.189-17.271,10.509-26.018C159.627,688.346,160.876,685.156,162.11,681.961z"/>
		<path fill-rule="evenodd" clip-rule="evenodd" fill="#0E9EB9" d="M850.231,285.907c0.205,0.672,0.409,1.345,0.614,2.019
			c-11.795,2.039-23.591,4.078-35.751,6.179c2.37-6.316,4.587-12.22,6.804-18.123c0.236-0.356,0.472-0.712,0.708-1.068
			c2.271-5.466,4.544-10.934,7.121-17.132C836.732,267.391,843.482,276.649,850.231,285.907z"/>
		<path fill-rule="evenodd" clip-rule="evenodd" fill="#3A3A3A" d="M469.885,757.156c3.086,1.349,6.28,2.03,9.673,1.756
			c2.162-0.175,4.145-0.957,4.577-3.095c0.498-2.468-1.741-3.226-3.603-3.863c-1.869-0.64-3.807-1.077-5.702-1.648
			c-7.639-2.307-10.216-5.009-9.913-10.358c0.312-5.523,3.501-8.349,11.102-9.835c1.955,0.492,3.909,0.516,5.862-0.014
			c2.182-0.167,4.124,0.744,6.129,1.372c0.799,1.216,2.805,1.456,2.724,3.38c-0.306,3.478-1.61,5.111-5.238,3.073
			c-2.736-1.537-5.788-1.103-8.762-1.045c-2.004,0.04-3.74,0.567-3.918,2.876c-0.159,2.061,1.395,2.77,3.109,3.215
			c3.749,0.973,7.431,2.06,10.61,4.454c2.315,1.743,5.467,2.84,5.338,6.427c-0.151,4.255-1.582,8.048-5.64,10.085
			c-6.227,3.126-12.529,2.344-18.677-0.305c-2.558-1.101-1.99-3.03-0.706-4.882C467.876,758.246,468.448,756.877,469.885,757.156z"
			/>
		<path fill-rule="evenodd" clip-rule="evenodd" fill="#3A3A3A" d="M681.123,730.971c4.692-2.911,7.058,1.001,9.373,3.625
			c5.379,6.091,9.658,13.149,16.166,18.25c0.646-5.711,0.041-11.441,0.264-17.159c0.086-2.188-0.021-4.613,3.14-4.534
			c2.837,0.071,2.864,2.319,2.809,4.329c-0.265,9.403,0.737,18.832-0.56,28.213c-1.821,1.153-3.714,0.81-5.615,0.266
			c-5.254-5.14-9.506-11.133-14.253-16.707c-1.351-1.585-2.509-3.393-4.488-4.339c-1.223,5.871-0.3,11.809-0.528,17.712
			c-0.082,2.114,0.05,3.833-2.996,3.842c-3.008,0.009-3-1.623-3.029-3.79C681.271,750.777,681.821,740.868,681.123,730.971z"/>
		<path fill-rule="evenodd" clip-rule="evenodd" fill="#3A3A3A" d="M543.862,757.197c1.983-0.267,3.621,0.563,5.179,1.639
			c1.217,1.1,2.535,0.569,3.84,0.238c1.148-0.119,2.326-0.119,3.439-0.385c1.67-0.399,3.223-1.297,3.46-3.1
			c0.267-2.036-1.53-2.84-3.044-3.353c-2.788-0.946-5.69-1.545-8.51-2.403c-3.203-0.976-6.105-2.392-7.167-5.972
			c-0.002-2.305,0.751-4.607,0.018-6.913c1.873-5.095,6.09-6.477,10.917-6.894c1.629,0.579,3.259,0.591,4.888-0.009
			c2.537,0.01,4.988,0.367,7.174,1.787c1.368,1.007,1.244,2.654,1.732,4.039c-0.852,3.62-3.545,2.385-5.49,1.72
			c-2.933-1.001-5.835-0.762-8.772-0.674c-1.813,0.054-3.252,0.967-3.49,2.81c-0.228,1.775,1.311,2.604,2.688,3.077
			c3.428,1.179,7.009,1.95,10.355,3.312c1.964,0.8,4.486,1.403,4.911,4.198c0.653,2.59,0.628,5.185,0.051,7.783l0.191-0.105
			c-1.176,1.96-2.564,3.752-4.195,5.355c-6.8,4.16-13.48,2.879-20.118-0.438C542.707,761.054,541.493,758.517,543.862,757.197z"/>
		<path fill-rule="evenodd" clip-rule="evenodd" fill="#3A3A3A" d="M436.875,730.117c1.773,0.304,3.619,0.394,5.298,0.97
			c1.919,0.658,4.627,0.527,3.051,4.441c-1.237,3.071-2.014,4.004-5.05,2.383c-3.039-1.622-6.443-1.147-9.742-0.989
			c-1.691,0.08-2.941,1.252-3.296,2.58c-0.453,1.694,1.196,2.679,2.549,3.175c3.075,1.127,6.253,1.969,9.376,2.97
			c2.884,0.926,5.466,2.265,6.689,5.302c-0.062,2.64-0.026,5.281-0.021,7.922c-1.059,2.159-2.503,3.93-4.833,4.813
			c-5.675,1.437-11.371,1.635-17.092,0.278c-0.306,0.019-0.591-0.049-0.857-0.202c-1.635-1.222-1.362-3.189-1.894-4.842
			c2.283-4.135,4.684-0.857,7.044-0.112c1.19,1.196,2.507,0.561,3.8,0.263c0.822-0.056,1.646-0.095,2.466-0.172
			c2.104-0.196,4.111-1.001,4.446-3.172c0.386-2.498-1.908-3.173-3.777-3.779c-2.951-0.958-5.96-1.736-8.921-2.664
			c-2.813-0.882-4.827-2.693-5.934-5.46c0.489-2.271,0.39-4.548,0.056-6.825c1.89-4.957,6.394-5.849,10.774-6.933
			C432.959,730.672,434.916,730.579,436.875,730.117z"/>
		<path fill-rule="evenodd" clip-rule="evenodd" fill="#3A3A3A" d="M378.01,758.158c-0.984,1.924-1.969,3.848-2.953,5.771
			c-2.314,0.734-4.631,0.703-6.947,0.009c4.108-10.367,8.215-20.734,12.323-31.102c3.233-2.38,6.46-3.167,9.672,0.036
			c3.564,5.148,4.843,11.27,7.177,16.938c1.923,4.669,3.641,9.423,5.45,14.139c-2.359,0.727-4.72,0.627-7.084,0.028
			c-0.92-1.912-1.84-3.823-2.76-5.734C387.937,756.768,382.976,756.939,378.01,758.158z"/>
		<path fill-rule="evenodd" clip-rule="evenodd" fill="#3A3A3A" d="M636.988,758.213c-0.918,1.922-1.836,3.845-2.755,5.767
			c-2.365,0.594-4.729,0.7-7.087-0.03c3.986-10.023,7.974-20.046,11.96-30.07c2.773-3.751,6.333-3.631,10.187-2.07
			c3.732,9.551,8.316,18.794,10.602,28.864c0.315,1.389,2.142,1.688,1.87,3.266c-2.319,0.695-4.64,0.723-6.958-0.007
			c-0.978-1.934-1.954-3.868-2.932-5.803C646.906,756.96,641.943,756.788,636.988,758.213z"/>
		<path fill-rule="evenodd" clip-rule="evenodd" fill="#3C3C3C" d="M733.134,730.99c9.146-1.713,18.375-0.35,27.56-0.723
			c2.178-0.088,2.029,1.776,1.983,3.275c-0.044,1.428,0.379,3.172-1.876,3.393c-0.33,0.032-0.667-0.016-0.997,0.014
			c-8.22,0.734-8.22,0.735-8.22,9.317c0,5.156-0.183,10.32,0.068,15.464c0.152,3.114-1.226,3.512-3.824,3.458
			c-2.457-0.052-4.003-0.146-3.874-3.391c0.265-6.642-0.127-13.31,0.16-19.951c0.161-3.741-0.657-5.585-4.792-4.958
			c-1.771,0.27-3.637-0.08-5.46-0.148C732.827,734.924,733.931,732.836,733.134,730.99z"/>
		<path fill-rule="evenodd" clip-rule="evenodd" fill="#0E96B4" d="M745.999,659.313c1.126-2.22,3.204-1.334,4.886-1.358
			c6.985-0.095,13.973-0.089,20.958-0.014c2.454,0.026,4.137-0.245,4.126-3.41c-0.01-2.923-1.209-3.674-3.898-3.649
			c-10.479,0.099-20.959,0.105-31.438-0.003c-2.805-0.029-3.783,0.974-3.766,3.772c0.094,14.138,0.117,28.278-0.014,42.416
			c-0.03,3.194,1.287,3.92,4.165,3.888c10.312-0.115,20.625-0.095,30.938-0.011c2.576,0.021,4.014-0.493,4.015-3.531
			c0-3.041-1.44-3.565-4.016-3.529c-7.151,0.101-14.305,0.068-21.457,0.007c-1.57-0.013-3.396,0.63-4.552-1.156
			c9.144,0.048,18.296,0.354,27.427,0.037c4.668-0.163,3.432,2.711,3.566,5.134c0.145,2.618,0.333,4.673-3.679,4.563
			c-11.467-0.314-22.947-0.189-34.421-0.055c-2.689,0.031-3.811-0.461-3.781-3.494c0.15-15.131,0.118-30.266,0.021-45.398
			c-0.017-2.617,0.416-3.874,3.476-3.83c11.639,0.166,23.285,0.261,34.919-0.034c4.272-0.109,3.416,2.399,3.465,4.777
			c0.051,2.48,0.598,4.901-3.51,4.802C764.292,659.017,755.143,659.259,745.999,659.313z"/>
		<path fill-rule="evenodd" clip-rule="evenodd" fill="#0D96B4" d="M502.03,659.301c1.137-2.207,3.211-1.323,4.894-1.345
			c6.984-0.096,13.972-0.092,20.957-0.015c2.461,0.027,4.128-0.26,4.119-3.417c-0.01-2.93-1.223-3.667-3.905-3.642
			c-10.479,0.098-20.958,0.106-31.436-0.003c-2.809-0.029-3.779,0.982-3.761,3.776c0.093,14.138,0.118,28.277-0.014,42.414
			c-0.03,3.195,1.292,3.918,4.167,3.886c10.31-0.115,20.624-0.095,30.936-0.01c2.576,0.021,4.013-0.493,4.014-3.531
			c0-3.041-1.439-3.566-4.014-3.53c-7.151,0.101-14.305,0.068-21.457,0.008c-1.57-0.014-3.396,0.628-4.553-1.154
			c9.146,0.047,18.302,0.351,27.435,0.035c4.675-0.161,3.422,2.729,3.556,5.145c0.145,2.611,0.348,4.67-3.681,4.554
			c-11.302-0.327-22.622-0.237-33.929-0.043c-3.177,0.055-4.333-0.556-4.286-4.035c0.203-14.802,0.158-29.608,0.027-44.413
			c-0.027-3.066,0.52-4.384,4.033-4.311c11.306,0.237,22.626,0.294,33.929-0.019c4.167-0.115,3.932,1.963,3.975,4.829
			c0.045,2.995-0.028,4.902-4.066,4.774C520,658.971,511.011,659.251,502.03,659.301z"/>
		<path fill-rule="evenodd" clip-rule="evenodd" fill="#393939" d="M613.795,735.861c-3.371,2.375-7.172,0.447-10.718,1.07
			c-1.468,7.866-0.267,15.809-0.684,23.704c-0.08,1.507,0.672,3.526-1.985,3.747c-2.426,0.202-4.131-0.015-4.027-3.275
			c0.205-6.469,0.107-12.951,0.027-19.424c-0.02-1.597,0.604-3.329-0.613-4.79l0.063,0.199c-2.131-1.894-4.746-0.965-7.153-1.202
			c-1.767-0.174-3.47-0.436-3.303-2.723c0.144-1.957,1.752-2.22,3.303-2.211c7.785,0.042,15.575-0.313,23.354,0.185
			C614.336,732.087,612.805,734.438,613.795,735.861z"/>
		<path fill-rule="evenodd" clip-rule="evenodd" fill="#0995B3" d="M665.71,689.875c0.069-6.528,0.158-13.057,0.2-19.585
			c0.033-4.981-0.119-9.969,0.053-14.945c0.105-3.025-0.559-4.522-4.062-4.528c-3.549-0.007-4.071,1.584-4.024,4.561
			c0.133,8.469,0.094,16.94,0.008,25.41c-0.019,1.867,0.797,4.24-1.97,5.129c1.88-10.71,0.925-21.519,0.844-32.272
			c-0.04-5.339,3.271-3.701,5.88-3.848c2.781-0.156,5.598-0.735,5.285,3.979c-0.702,10.599,0.839,21.278-0.937,31.853
			C666.744,687.074,666.145,688.46,665.71,689.875z"/>
		<path fill-rule="evenodd" clip-rule="evenodd" fill="#0087AA" d="M300.107,670.886c-2.471-4.694-0.771-9.721-1.074-14.58
			c-0.336-5.416-0.736-5.901-6.127-5.431c-2.102,0.183-2.953,0.956-2.949,3.045c0.034,14.656,0.048,29.311-0.002,43.967
			c-0.014,3.9,2.783,2.86,4.929,3.028c2.431,0.191,4.253-0.179,4.115-3.369c-0.172-3.989-0.09-7.993-0.01-11.989
			c0.032-1.583-0.604-3.388,1.062-4.621c-0.03,5.996-0.134,11.993-0.052,17.988c0.032,2.321-0.215,3.484-3.144,3.475
			c-7.892-0.026-7.892,0.162-7.892-7.6c0-13.66,0.229-27.328-0.128-40.979c-0.119-4.555,2.21-4.312,5.12-4.074
			c2.765,0.226,6.548-1.468,6.113,4.164C299.632,659.535,300.059,665.225,300.107,670.886z"/>
		<path fill-rule="evenodd" clip-rule="evenodd" fill="#0592B1" d="M328.94,701.973c0-6.614,0-13.229,0-19.843
			c0.34-0.007,0.68-0.014,1.019-0.021c0,4.969,0.146,9.945-0.054,14.907c-0.125,3.136,1.163,3.95,4.096,3.973
			c3.051,0.024,4.03-1.042,4.004-4.063c-0.12-13.954-0.104-27.91-0.01-41.865c0.019-2.833-0.609-4.215-3.84-4.232
			c-3.287-0.018-4.396,1.091-4.253,4.335c0.215,4.879,0.056,9.776-0.941,14.661c0-6.604,0-13.21,0-19.814
			c10.08-0.74,10.08-0.74,10.08,9.195c0,12.793-0.159,25.589,0.097,38.377c0.078,3.873-0.899,5.489-4.84,4.758
			C332.533,702.013,330.676,702.852,328.94,701.973z"/>
		<path fill-rule="evenodd" clip-rule="evenodd" fill="#008DAE" d="M817.842,650.117c-7.187,1.771-14.502,0.794-21.724,0.644
			c-5.092-0.107-6.486,1.31-6.342,6.386c0.374,13.123,0.241,26.265,0.052,39.397c-0.053,3.624,1.308,4.425,4.641,4.477
			c3.555,0.055,4.668-1.171,4.491-4.621c-0.211-4.117,0.063-8.259,0.146-12.39c0.001-0.077,0.238-0.21,0.366-0.21
			c0.153-0.002,0.307,0.111,0.461,0.175c-0.009,4.979-0.196,9.967,0.041,14.936c0.139,2.924-0.861,3.816-3.63,3.437
			c-1.466-0.201-2.994-0.137-4.474,0.011c-2.078,0.205-3.012-0.416-3.002-2.692c0.066-15.77,0.077-31.539-0.004-47.308
			c-0.013-2.451,1.246-2.611,3.104-2.58C800.594,649.923,809.218,650.01,817.842,650.117z"/>
		<path fill-rule="evenodd" clip-rule="evenodd" fill="#2F2F2F" d="M612.789,731.937c-7.803-0.006-15.605-0.031-23.408,0.003
			c-1.228,0.006-3.106-0.425-3.102,1.479c0.004,1.905,1.89,1.316,3.111,1.496c2.285,0.335,5.177-1.11,6.468,2.178
			c-2.989-0.06-5.981-0.219-8.966-0.144c-1.998,0.05-2.766-0.829-2.567-2.666c0.159-1.479-0.856-3.973,1.698-3.911
			c9.212,0.229,18.46-0.995,27.636,0.617C613.56,731.479,613.261,731.787,612.789,731.937z"/>
		<path fill-rule="evenodd" clip-rule="evenodd" fill="#262626" d="M512.635,747.124c0-4.15,0.095-8.305-0.034-12.452
			c-0.085-2.756-0.105-4.639,3.784-4.496c3.445,0.127,3.621,1.568,3.582,4.263c-0.128,8.965-0.205,17.937,0.036,26.898
			c0.086,3.173-0.886,3.863-3.881,3.832c-2.807-0.029-3.687-0.773-3.55-3.6C512.803,756.764,512.635,751.94,512.635,747.124z"/>
		<path fill-rule="evenodd" clip-rule="evenodd" fill="#0088AA" d="M465.874,701.977c0.717-0.347,1.409-0.922,2.156-1.004
			c6.906-0.763,6.91-0.738,6.91-7.549c0-11.962,0.001-23.925-0.001-35.887c-0.001-6.573-0.003-6.572-6.794-6.629
			c-0.831-0.007-1.661-0.042-2.491-0.064c2.623-2.254,5.724-0.669,8.584-1.001c2.062-0.239,1.688,1.588,1.69,2.843
			c0.016,15.624,0.011,31.247,0.011,46.87c0,1.535,0.183,3.242-2.295,2.529c-2.599,0.438-5.193,0.611-7.774-0.118L465.874,701.977z"
			/>
		<path fill-rule="evenodd" clip-rule="evenodd" fill="#0F0F0F" d="M595.795,736.893c2.083,1.89,1.007,4.362,1.068,6.55
			c0.162,5.783,0.084,11.575,0.047,17.364c-0.013,1.933,0.459,3.202,2.762,3.089c2.156-0.104,2.237-1.531,2.237-3.098
			c0.003-6.449-0.037-12.9,0.037-19.349c0.019-1.551-0.672-3.375,1.131-4.518c-0.049,8.299-0.281,16.603-0.056,24.894
			c0.091,3.341-1.538,3.14-3.876,3.25c-2.599,0.121-3.339-0.651-3.294-3.285C595.992,753.494,595.836,745.192,595.795,736.893z"/>
		<path fill-rule="evenodd" clip-rule="evenodd" fill="#161616" d="M681.123,730.971c1.791,5.146,0.492,10.45,0.753,15.674
			c0.23,4.632,0.065,9.285,0.046,13.929c-0.008,1.796,0.14,3.343,2.555,3.312c2.479-0.033,2.422-1.713,2.42-3.433
			c-0.005-4.312-0.055-8.625,0.03-12.935c0.03-1.572-0.633-3.371,1.031-4.604c-0.01,6.316-0.161,12.637,0.036,18.947
			c0.085,2.686-0.681,3.422-3.332,3.241c-2.313-0.158-3.959,0.114-3.855-3.246C681.123,751.568,681.046,741.268,681.123,730.971z"/>
		<path fill-rule="evenodd" clip-rule="evenodd" fill="#2E2E2E" d="M711.884,763.844c0.009-9.322,0.045-18.643-0.001-27.964
			c-0.007-1.514,0.636-3.753-1.963-3.76c-2.607-0.008-1.939,2.234-1.97,3.748c-0.082,4.159,0.027,8.324-0.059,12.482
			c-0.032,1.561,0.671,3.411-1.229,4.495c0.053-0.279,0.119-0.554,0.203-0.825c-0.693-7.034-0.792-14.064,0.057-21.092l0.007-0.01
			c2.021-0.819,4.062-0.663,6.109-0.113l-0.033-0.021c0.848,10.837,0.234,21.689,0.32,32.535
			C713.054,764.069,712.573,764.244,711.884,763.844z"/>
		<path fill-rule="evenodd" clip-rule="evenodd" fill="#008DAD" d="M745.955,680.147c2.006-2.307,4.673-1.058,7.021-1.172
			c4.319-0.212,8.658-0.15,12.984-0.028c2.584,0.073,4.015-0.494,4.015-3.535c0.001-3.047-1.443-3.586-4.021-3.53
			c-5.159,0.115-10.324,0.079-15.484,0.006c-1.567-0.022-3.408,0.645-4.521-1.209c7.307,0.037,14.619,0.289,21.914,0.033
			c4.421-0.155,3.103,2.761,3.208,4.951c0.106,2.232,0.697,4.596-3.203,4.459C760.574,679.866,753.262,680.111,745.955,680.147z"/>
		<path fill-rule="evenodd" clip-rule="evenodd" fill="#008DAD" d="M501.993,680.175c1.615-2.253,3.985-1.133,6.002-1.206
			c4.657-0.17,9.326-0.14,13.986-0.021c2.573,0.065,4.026-0.473,4.025-3.525c-0.001-3.038-1.424-3.598-4.012-3.54
			c-5.159,0.116-10.325,0.079-15.486,0.006c-1.568-0.022-3.407,0.644-4.528-1.198c7.287,0.033,14.58,0.273,21.856,0.025
			c4.412-0.151,3.09,2.774,3.194,4.959c0.104,2.213,0.73,4.587-3.184,4.45C516.571,679.869,509.278,680.13,501.993,680.175z"/>
		<path fill-rule="evenodd" clip-rule="evenodd" fill="#008AAC" d="M630.742,650.896c-9.82,0.065-9.642,0.069-9.877,9.936
			c-0.189,8.001,1.008,16.052-0.726,24.005c-0.077-10.642-0.102-21.284-0.273-31.924c-0.037-2.296,0.544-3.582,3.007-3.091
			C625.479,650.34,628.4,648.529,630.742,650.896z"/>
		<path fill-rule="evenodd" clip-rule="evenodd" fill="#3A3A3A" d="M712.842,763.983c0.055-11.067,0.108-22.133,0.163-33.2
			c1.815,2.003,0.728,4.416,0.774,6.6c0.167,7.824,0.117,15.654,0.015,23.48c-0.017,1.302,0.907,2.986-0.905,3.934
			c-0.329-0.162-0.445-0.337-0.351-0.524C712.637,764.08,712.737,763.983,712.842,763.983z"/>
		<path fill-rule="evenodd" clip-rule="evenodd" fill="#0A94B3" d="M388.924,651.071c-0.418,0.246-0.927,0.792-1.239,0.695
			c-6.477-1.989-12.924-2.061-19.397,0.015c-0.325,0.104-0.847-0.405-1.277-0.629C374.303,647.987,381.608,648.027,388.924,651.071z
			"/>
		<path fill-rule="evenodd" clip-rule="evenodd" fill="#343434" d="M423.804,763.962c5.698-0.093,11.396-0.186,17.092-0.278
			C435.244,766.545,429.549,766.775,423.804,763.962z"/>
		<path fill-rule="evenodd" clip-rule="evenodd" fill="#0992B2" d="M368.988,701.732c4.011-0.937,7.972,0.747,12.004,0.186
			c2.967-0.413,5.695-2.605,8.902-1.242C383.055,703.59,376.093,704.075,368.988,701.732z"/>
		<path fill-rule="evenodd" clip-rule="evenodd" fill="#3A3A3A" d="M706.922,730.928c-0.019,7.03-0.037,14.061-0.057,21.092
			C706.112,744.987,705.995,737.957,706.922,730.928z"/>
		<path fill-rule="evenodd" clip-rule="evenodd" fill="#1E1E1E" d="M649.293,731.809c-3.456,0.396-7.232-0.791-10.187,2.07
			C640.885,729.886,645.415,728.965,649.293,731.809z"/>
		<path fill-rule="evenodd" clip-rule="evenodd" fill="#1E1E1E" d="M390.105,732.873c-3.218-1.565-6.444-1.174-9.672-0.036
			C382.99,729.168,388.363,729.189,390.105,732.873z"/>
		<path fill-rule="evenodd" clip-rule="evenodd" fill="#008FAE" d="M633.969,701.699c5.311,0.007,10.639-0.266,15.873,0.979
			C644.49,703.325,639.152,703.765,633.969,701.699z"/>
		<path fill-rule="evenodd" clip-rule="evenodd" fill="#0790B0" d="M404.728,681.86c-0.943-4.926-1.553-9.872-0.967-14.896
			C405.563,671.833,405.308,676.836,404.728,681.86z"/>
		<path fill-rule="evenodd" clip-rule="evenodd" fill="#038DAD" d="M725.002,653.225c-0.386-2.982-2.709-2.204-4.535-2.292
			c-1.953-0.094-3.912-0.072-5.867-0.102c3.459-2.336,7.425-1.321,10.903-0.787C728.446,650.496,725.592,652.15,725.002,653.225z"/>
		<path fill-rule="evenodd" clip-rule="evenodd" fill="#028EAE" d="M687.906,650.94c-3.87,0.651-7.93-1.145-11.69,0.91
			c-0.198-0.637-1.474-1.86-0.218-1.823C679.966,650.145,684.14,648.287,687.906,650.94z"/>
		<path fill-rule="evenodd" clip-rule="evenodd" fill="#1C1C1C" d="M378.01,758.158c4.971-1.947,9.931-2.102,14.877,0.086
			C387.928,758.216,382.969,758.187,378.01,758.158z"/>
		<path fill-rule="evenodd" clip-rule="evenodd" fill="#1C1C1C" d="M636.988,758.213c4.951-2.145,9.914-1.981,14.887-0.084
			C646.913,758.157,641.951,758.185,636.988,758.213z"/>
		<path fill-rule="evenodd" clip-rule="evenodd" fill="#0590B0" d="M464.829,485.561c-0.569,4.442-1.138,8.886-1.707,13.328
			C462.719,494.322,461.877,489.698,464.829,485.561z"/>
		<path fill-rule="evenodd" clip-rule="evenodd" fill="#0691B0" d="M832.678,670.864c-0.565-4.066-1.129-8.131-1.694-12.196
			C833.881,662.409,833.023,666.672,832.678,670.864z"/>
		<path fill-rule="evenodd" clip-rule="evenodd" fill="#343434" d="M445.729,758.87c-1.247-2.645-1.282-5.285,0.021-7.922
			C447.157,753.592,447.071,756.232,445.729,758.87z"/>
		<path fill-rule="evenodd" clip-rule="evenodd" fill="#3B3B3B" d="M167.981,717.754c2.213-2.632,4.96-2.886,8.008-1.797
			C173.569,717.67,170.575,716.817,167.981,717.754z"/>
		<path fill-rule="evenodd" clip-rule="evenodd" fill="#0991B1" d="M559.958,622.779c3.306-1.395,6.615-1.375,9.926-0.017
			C566.575,622.769,563.268,622.773,559.958,622.779z"/>
		<path fill-rule="evenodd" clip-rule="evenodd" fill="#191919" d="M541.077,736.95c1.295,2.307,1.302,4.612-0.018,6.913
			C540.21,741.556,540.334,739.251,541.077,736.95z"/>
		<path fill-rule="evenodd" clip-rule="evenodd" fill="#232323" d="M543.862,757.197c-1.626,1.572-0.031,4.239-1.942,5.714
			C541.491,760.641,540.426,758.153,543.862,757.197z"/>
		<path fill-rule="evenodd" clip-rule="evenodd" fill="#0D9DB9" d="M465.87,701.966c2.592,0.039,5.183,0.079,7.774,0.118
			C471.043,702.652,468.448,702.867,465.87,701.966z"/>
		<path fill-rule="evenodd" clip-rule="evenodd" fill="#272727" d="M562.037,763.35c0.775-2.272,2.396-3.881,4.193-5.354
			C566.113,760.782,564.537,762.427,562.037,763.35z"/>
		<path fill-rule="evenodd" clip-rule="evenodd" fill="#393939" d="M421.053,758.918c1.195,1.394,1.438,3.16,1.894,4.842
			C419.086,763.409,420.75,760.897,421.053,758.918z"/>
		<path fill-rule="evenodd" clip-rule="evenodd" fill="#2A2A2A" d="M182.139,714.991c-0.525-0.298-2.506-0.263-0.295-1.196
			c0.863-0.365,1.024-1.059,1.14-1.833c1.286,0.359,1.665,1.407,1.929,2.542C183.988,714.666,183.063,714.828,182.139,714.991z"/>
		<path fill-rule="evenodd" clip-rule="evenodd" fill="#212121" d="M565.788,735.873c-0.771-1.264-2.062-2.305-1.732-4.039
			C567.813,731.816,566.258,734.077,565.788,735.873z"/>
		<path fill-rule="evenodd" clip-rule="evenodd" fill="#121212" d="M368.109,763.938c2.316-0.003,4.632-0.006,6.947-0.009
			C372.743,765.798,370.427,765.527,368.109,763.938z"/>
		<path fill-rule="evenodd" clip-rule="evenodd" fill="#111111" d="M395.647,763.979c2.361-0.01,4.723-0.02,7.084-0.028
			C400.376,765.558,398.016,765.727,395.647,763.979z"/>
		<path fill-rule="evenodd" clip-rule="evenodd" fill="#111111" d="M627.146,763.949c2.361,0.011,4.725,0.021,7.087,0.03
			C631.863,765.707,629.501,765.571,627.146,763.949z"/>
		<path fill-rule="evenodd" clip-rule="evenodd" fill="#121212" d="M654.807,763.932c2.319,0.002,4.639,0.005,6.958,0.007
			C659.444,765.52,657.124,765.808,654.807,763.932z"/>
		<path fill-rule="evenodd" clip-rule="evenodd" fill="#262626" d="M469.885,757.156c-1.169,0.231-1.254,2.528-3.036,1.593
			C466.477,755.579,467.84,755.719,469.885,757.156z"/>
		<path fill-rule="evenodd" clip-rule="evenodd" fill="#171717" d="M566.041,758.1c-0.016-2.594-0.033-5.188-0.051-7.782
			C567.604,752.9,568.077,755.491,566.041,758.1z"/>
		<path fill-rule="evenodd" clip-rule="evenodd" fill="#141414" d="M420.235,736.997c1.056,2.284,1.15,4.559-0.056,6.825
			C419.622,741.541,419.62,739.266,420.235,736.997z"/>
		<path fill-rule="evenodd" clip-rule="evenodd" fill="#181818" d="M147.902,717.567c-0.334,2.328,2.089,2.033,3.012,3.165
			c-1.46,0.03-2.92,0.061-4.381,0.092C146.54,719.549,146.887,718.418,147.902,717.567z"/>
		<path fill-rule="evenodd" clip-rule="evenodd" fill="#131313" d="M481.88,730.098c-1.951,1.262-3.905,1.269-5.862,0.014
			C477.973,730.107,479.926,730.103,481.88,730.098z"/>
		<path fill-rule="evenodd" clip-rule="evenodd" fill="#0F0F0F" d="M436.875,730.117c-1.966,1.199-3.923,1.336-5.866-0.053
			C432.964,730.082,434.92,730.099,436.875,730.117z"/>
		<path fill-rule="evenodd" clip-rule="evenodd" fill="#3A3A3A" d="M713.038,730.805c-2.037,0.038-4.073,0.076-6.109,0.113
			C708.938,729.442,710.988,730.111,713.038,730.805z"/>
		<path fill-rule="evenodd" clip-rule="evenodd" fill="#141414" d="M712.842,763.983c0.035,0.271,0.05,0.542,0.047,0.814
			c-2.104,0.018-4.394,1.408-6.189-0.838c1.728-0.039,3.456-0.077,5.185-0.116C712.205,763.872,712.525,763.918,712.842,763.983z"/>
		<path fill-rule="evenodd" clip-rule="evenodd" fill="#0A0A0A" d="M733.134,730.99c1.506,1.756,0.505,3.831,0.729,5.75
			C731.913,735.039,733.18,732.931,733.134,730.99z"/>
		<path fill-rule="evenodd" clip-rule="evenodd" fill="#1A1A1A" d="M552.881,759.074c-1.355,1.126-2.663,1.492-3.84-0.238
			C550.321,758.915,551.601,758.995,552.881,759.074z"/>
		<path fill-rule="evenodd" clip-rule="evenodd" fill="#191919" d="M431.897,759.068c-1.352,1.142-2.65,1.517-3.8-0.263
			C429.364,758.894,430.631,758.98,431.897,759.068z"/>
		<path fill-rule="evenodd" clip-rule="evenodd" fill="#F6FBFC" d="M622.925,1052.867c-1.687-0.242-3.602,0.669-5.002-0.999
			C619.608,1052.11,621.523,1051.203,622.925,1052.867z"/>
		<path fill-rule="evenodd" clip-rule="evenodd" fill="#0991B1" d="M573.031,621.965c-0.319-0.078-0.664-0.111-0.943-0.264
			c-0.081-0.044-0.003-0.621,0.047-0.629c1.298-0.181,2.626-0.466,3.722,0.606C574.914,621.775,573.973,621.871,573.031,621.965z"/>
		<path fill-rule="evenodd" clip-rule="evenodd" fill="#1B1B1B" d="M153.152,720.023c1.097-1.819,2.396-1.356,3.747-0.334
			C155.65,719.801,154.401,719.912,153.152,720.023z"/>
		<path fill-rule="evenodd" clip-rule="evenodd" fill="#080808" d="M612.789,731.937c0.291-0.315,0.58-0.632,0.87-0.947
			c0.045,1.624,0.091,3.248,0.136,4.872C612.346,734.839,613.23,733.218,612.789,731.937z"/>
		<path fill-rule="evenodd" clip-rule="evenodd" fill="#181818" d="M490.733,734.85c-0.908-1.126-1.816-2.253-2.724-3.38
			C489.747,731.928,491.882,732.065,490.733,734.85z"/>
		<path fill-rule="evenodd" clip-rule="evenodd" fill="#0B0B0B" d="M556.881,730.047c-1.627,1.303-3.256,1.305-4.888,0.009
			C553.622,730.053,555.252,730.05,556.881,730.047z"/>
		<path fill-rule="evenodd" clip-rule="evenodd" fill="#F9FCFD" d="M976.878,1513.811c-116.318,0-232.638,0-348.956,0
			c1.475-1.637,3.432-0.972,5.18-0.972c112.865-0.031,225.73-0.031,338.597,0C973.445,1512.839,975.402,1512.174,976.878,1513.811z"
			/>
		<path fill-rule="evenodd" clip-rule="evenodd" fill="#FEFEFE" d="M569.975,573.031c5.051-19.618,19.244-31.98,34.54-43.45
			c0.962-0.722,1.849-2.214,3.422-1.249c1.418,0.871,0.962,2.386,0.922,3.647c-0.268,8.538-4.968,14.883-10.412,20.856
			c-3.024,3.319-6.027,6.658-8.997,10.024c-2.426,2.748-2.858,5.731-0.037,8.344c2.751,2.545,5.342,1.572,7.785-0.946
			c10.571-10.894,20.696-22.057,24.464-37.393c1.315-13.34,0.61-26.719,0.768-40.081c0.02-1.637,0.349-3.314-0.434-4.884
			c-18.243-10.683-36.497-21.348-54.713-32.078c-1.664-0.981-3.023-0.878-4.599,0.045c-18.242,10.704-36.5,21.38-54.755,32.064
			c-0.346,15.188-2.031,30.414,1.342,45.492c0.187,0.832,0.147,1.642-0.091,2.452c4.522,14.21,14.198,24.861,24.367,35.15
			c2.413,2.441,5.276,2.16,7.506-0.096c2.251-2.277,2.233-4.954-0.054-7.519c-4.532-5.086-8.97-10.258-13.448-15.394
			c-4.083-4.684-5.938-10.286-6.52-16.339c-0.222-2.322,0.156-5.167,3.396-2.759c14.167,10.532,28.038,21.417,33.829,39.185
			c1.066,3.27,1.734,6.668,2.585,10.008c0.861,9.59,1.145,19.176-0.142,28.756c-1.969,2.445-3.989,1.846-6.466,0.549
			c-27.879-14.598-48.46-35.71-59.125-65.762c-1.976-4.672-2.039-9.651-2.125-14.575c-0.146-8.311-0.03-16.625-0.047-24.937
			c-0.004-2.014,0.245-4.255-2.927-3.919c-0.875,0.465-1.75,0.931-2.625,1.393c-4.623,2.437-8.368,1.745-10.294-1.898
			c-1.969-3.723-0.903-6.578,3.735-9.276c16.44-9.563,32.917-19.062,49.375-28.593c10.307-5.968,20.661-11.856,30.869-17.985
			c2.717-1.631,4.688-1.876,7.611-0.164c26.396,15.462,52.911,30.715,79.389,46.036c1.002,0.58,2.035,1.144,2.928,1.869
			c2.983,2.427,3.898,5.416,1.681,8.754c-2.085,3.14-5.198,3.296-8.425,2.088c-1.53-0.572-2.926-1.508-4.382-2.279
			c-2.594,0.214-2.493,2.043-2.482,3.955c0.041,7.793,0.004,15.587,0.022,23.381c0.009,4.111-0.653,8.12-1.719,12.074
			c-9.156,32.739-31.129,54.445-60.235,70.033c-2.247,1.204-4.27,1.83-5.969-0.751c-0.301-0.147-0.843-0.299-0.844-0.458
			c-0.029-8.749-0.878-17.512,0.397-26.24c0.778-1.33,0.881-2.777,0.734-4.267C569.381,574.908,569.17,573.934,569.975,573.031z"/>
		<path fill-rule="evenodd" clip-rule="evenodd" fill="#F8FCFC" d="M581.439,497.865c-0.814,0.072-1.629,0.195-2.444,0.21
			c-11.63,0.201-12.778-1.31-9.972-13.084c3.361-1.146,6.823-0.293,10.232-0.512c1.488-0.096,2.91,0.685,2.926,2.057
			C582.227,490.314,583.416,494.213,581.439,497.865z"/>
		<path fill-rule="evenodd" clip-rule="evenodd" fill="#FBFDFD" d="M580.936,504.932c0.885,1.72,0.53,3.576,0.541,5.377
			c0.045,7.657,0.01,7.354-7.525,7.757c-4.649,0.248-6.274-1.259-5.615-5.753c0.356-2.429-0.444-4.969,0.597-7.359
			C572.933,504.117,576.933,504.158,580.936,504.932z"/>
		<path fill-rule="evenodd" clip-rule="evenodd" fill="#FDFEFE" d="M561.724,517.894c-13.188,0.25-13.188,0.25-12.761-12.83
			c4.322-0.95,8.638-1.083,12.945,0.087l-0.203-0.187C562.865,509.272,562.833,513.582,561.724,517.894z"/>
		<path fill-rule="evenodd" clip-rule="evenodd" fill="#FCFDFD" d="M561.78,497.907c-13.319,0.741-13.319,0.741-12.804-12.766
			c4.477-0.803,8.972-1.866,13.226,0.842C562.317,489.967,563.029,493.972,561.78,497.907z"/>
		<path fill-rule="evenodd" clip-rule="evenodd" fill="#0196B4" d="M490.009,498.223c1.062-0.718,2.016-1.677,3.64-1.582
			c0.941,15.006-1.104,30.094,1.459,45.013c-3.43-4.215-2.705-9.457-3.025-14.242c-0.531-7.955-0.169-15.971-0.128-23.961
			C491.966,501.425,492.128,499.42,490.009,498.223z"/>
		<path fill-rule="evenodd" clip-rule="evenodd" fill="#048FAF" d="M509.18,535.875c-3.089-8.666-2.203-17.682-2.318-26.604
			c-0.079-6.147-0.035-12.295-0.075-18.441c-0.007-1.145-0.366-2.374,1.143-2.898c0.003,8.7,0.087,17.401-0.017,26.1
			c-0.076,6.444,0.151,12.827,1.896,19.083C510.077,534.078,510.001,535.095,509.18,535.875z"/>
		<path fill-rule="evenodd" clip-rule="evenodd" fill="#0392B2" d="M621.995,487.9c1.298,0.455,1.526,1.309,1.496,2.685
			c-0.251,11.313-0.434,22.628-0.495,33.943c-0.016,2.884-0.912,5.557-1.335,8.337c-2.212-3.574,0.433-7.005,0.357-10.556
			C621.777,510.844,621.97,499.37,621.995,487.9z"/>
		<path fill-rule="evenodd" clip-rule="evenodd" fill="#0292B1" d="M635.691,537.576c1.56-12.501,0.611-25.066,0.838-37.599
			c0.063-3.506,1.534-2.503,3.341-1.812c-2.039,1.223-1.986,3.177-1.973,5.223c0.056,8.144-0.045,16.288,0.057,24.43
			c0.043,3.472-0.998,6.739-1.452,10.113c-0.002,0.014-0.309,0.03-0.438-0.028C635.92,537.839,635.814,537.689,635.691,537.576z"/>
		<path fill-rule="evenodd" clip-rule="evenodd" fill="#038DAE" d="M560.698,606.867c0.047-9.585,0.094-19.17,0.142-28.756
			c0.242-0.422,0.923-1.416,0.921-0.869c-0.032,9.674,0.763,19.363-0.326,29.02C561.409,606.488,560.953,606.666,560.698,606.867z"
			/>
		<path fill-rule="evenodd" clip-rule="evenodd" fill="#0590B0" d="M569.041,580.16c0.394,8.895-0.713,17.816,0.445,26.698
			c-1.379-0.436-1.553-1.545-1.552-2.759c0.001-8.677,0-17.356,0-26.218C569.282,578.483,568.743,579.478,569.041,580.16z"/>
		<path fill-rule="evenodd" clip-rule="evenodd" fill="#0191B0" d="M581.439,497.865c0.426-12.593,0.426-12.593-12.416-12.874
			c2.77-1.455,11.66-1.535,13.032-0.118C583.605,486.473,583.197,495.055,581.439,497.865z"/>
		<path fill-rule="evenodd" clip-rule="evenodd" fill="#008EAE" d="M561.964,485.93c-4.234-1.838-8.66-0.504-12.988-0.788
			c4.757-1.686,9.472-2.616,13.937,0.799C562.592,486.412,562.274,486.432,561.964,485.93z"/>
		<path fill-rule="evenodd" clip-rule="evenodd" fill="#008CAD" d="M561.724,517.894c-0.006-4.31-0.012-8.618-0.019-12.929
			C563.696,509.271,563.663,513.58,561.724,517.894z"/>
		<path fill-rule="evenodd" clip-rule="evenodd" fill="#0087AA" d="M580.936,504.932c-4.001,0.008-8.002,0.016-12.003,0.022
			c3.84-2.064,7.921-0.714,11.898-0.833c0.081-0.002,0.226,0.218,0.237,0.344C581.082,504.616,580.984,504.775,580.936,504.932z"/>
		<path fill-rule="evenodd" clip-rule="evenodd" fill="#0087AA" d="M561.907,505.15c-4.315-0.029-8.63-0.059-12.945-0.087
			C553.29,503.292,557.606,503.122,561.907,505.15z"/>
		<path fill-rule="evenodd" clip-rule="evenodd" fill="#008CAD" d="M561.964,485.93c0.316,0.005,0.633,0.009,0.949,0.011
			c-0.567,3.971,1.28,8.171-1.133,11.967C561.842,493.915,561.902,489.922,561.964,485.93z"/>
		<path fill-rule="evenodd" clip-rule="evenodd" fill="#0590B0" d="M569.975,573.031c-0.066,0.954-0.133,1.909-0.199,2.863
			c-1.143-0.938-0.834-2.229-0.802-3.434c0.014-0.498,0.328-0.795,0.76-0.308C569.914,572.356,569.9,572.733,569.975,573.031z"/>
		<path fill-rule="evenodd" clip-rule="evenodd" fill="#FDFEFE" d="M584.177,692.927c-0.996,0-2.017-0.146-2.981,0.024
			c-4.925,0.865-6.324-0.928-6.325-6.039c-0.002-5.289,1.507-7.041,6.634-6.368c3.269,0.429,6.638,0.07,9.924,0.421
			c3.59,0.383,5.651,2.427,5.516,6.293c-0.133,3.775-2.64,5.148-5.809,5.541c-2.286,0.283-4.637,0.055-6.958,0.055
			C584.177,692.878,584.177,692.902,584.177,692.927z"/>
		<path fill-rule="evenodd" clip-rule="evenodd" fill="#FDFDFE" d="M588.664,659.082c6.146,3.692,6.214,7.817,0.188,11.504
			c-4.646,1.199-9.279,1.601-13.875-0.231c0.005-3.645,0.01-7.289,0.015-10.934C579.505,657.532,584.083,658.281,588.664,659.082z"
			/>
		<path fill-rule="evenodd" clip-rule="evenodd" fill="#008BAC" d="M588.664,659.082c-4.56,0.03-9.138-0.731-13.673,0.338
			c4.406-2.991,9.227-1.095,13.88-1.156c0.022,0,0.096,0.283,0.061,0.412C588.892,658.824,588.758,658.947,588.664,659.082z"/>
		<path fill-rule="evenodd" clip-rule="evenodd" fill="#008BAC" d="M574.977,670.354c4.609,1.047,9.243,0.573,13.876,0.231
			C584.19,672.633,579.558,673.061,574.977,670.354z"/>
		<path fill-rule="evenodd" clip-rule="evenodd" fill="#FDFEFE" d="M815.554,659.146c3.221,1.449,6.048,3.285,6.282,7.263
			c0.226,3.833-1.653,6.451-5.022,8.099c-5.61,1.681-11.256,1.086-16.904,0.258l0.139,0.144c-0.915-5.322-1.223-10.638,0.11-15.943
			l-0.188,0.266C805.157,657.86,810.354,658.07,815.554,659.146z"/>
		<path fill-rule="evenodd" clip-rule="evenodd" fill="#008FAF" d="M815.554,659.146c-5.194,0.027-10.388,0.055-15.582,0.083
			c5.159-2.667,10.564-1.049,15.886-0.888c0.006,0,0.043,0.292-0.008,0.419C815.793,658.906,815.656,659.019,815.554,659.146z"/>
		<path fill-rule="evenodd" clip-rule="evenodd" fill="#018BAC" d="M799.909,674.765c5.638,0.123,11.28,0.512,16.904-0.257
			C811.214,676.91,805.571,676.483,799.909,674.765z"/>
		<path fill-rule="evenodd" clip-rule="evenodd" fill="#0087AA" d="M800.158,658.965c-0.037,5.314-0.074,10.627-0.111,15.942
			C798.219,669.581,798.033,664.265,800.158,658.965z"/>
		<path fill-rule="evenodd" clip-rule="evenodd" fill="#FEFEFE" d="M361.989,676.103c-0.01-9.651,6.925-16.861,16.281-16.929
			c8.781-0.063,16.072,7.417,16.248,16.669c0.182,9.615-6.823,16.989-16.18,17.03C368.818,692.915,362,685.921,361.989,676.103z"/>
		<path fill-rule="evenodd" clip-rule="evenodd" fill="#FBFBFB" d="M379.961,752.859c0.657-5.244,4.011-9.473,5.261-15.535
			c2.273,5.807,4.706,10.389,5.718,15.519C387.281,753.718,383.622,753.696,379.961,752.859z"/>
		<path fill-rule="evenodd" clip-rule="evenodd" fill="#151515" d="M379.961,752.859c3.66-0.005,7.319-0.011,10.979-0.017
			C387.283,754.58,383.623,754.549,379.961,752.859z"/>
		<path fill-rule="evenodd" clip-rule="evenodd" fill="#FBFBFB" d="M638.94,752.795c1.712-4.793,3.424-9.586,5.448-15.258
			c2.317,5.616,4.632,10.223,5.531,15.374C646.252,753.625,642.591,753.787,638.94,752.795z"/>
		<path fill-rule="evenodd" clip-rule="evenodd" fill="#121212" d="M638.94,752.795c3.66,0.039,7.319,0.078,10.979,0.116
			C646.243,754.458,642.581,754.668,638.94,752.795z"/>
		<path fill-rule="evenodd" clip-rule="evenodd" fill="#373737" d="M518.939,748.135c0,3.984,0.006,7.968-0.003,11.952
			c-0.005,1.842,0.212,3.82-2.61,3.765c-2.493-0.05-2.379-1.79-2.379-3.487c-0.002-8.298-0.005-16.598,0.002-24.898
			c0.001-1.679-0.155-3.449,2.348-3.519c2.812-0.078,2.637,1.881,2.64,3.738C518.942,739.836,518.939,743.985,518.939,748.135z"/>
	</g>
</g>
</svg>
