<?xml version="1.0" encoding="utf-8"?>
<!-- Generator: Adobe Illustrator 16.0.0, SVG Export Plug-In . SVG Version: 6.00 Build 0)  -->
<!DOCTYPE svg PUBLIC "-//W3C//DTD SVG 1.1//EN" "http://www.w3.org/Graphics/SVG/1.1/DTD/svg11.dtd">
<svg version="1.1" id="Layer_1" xmlns="http://www.w3.org/2000/svg" xmlns:xlink="http://www.w3.org/1999/xlink" x="0px" y="0px"
	 width="185.977px" height="180.978px" viewBox="0 0 185.977 180.978" enable-background="new 0 0 185.977 180.978"
	 xml:space="preserve">
<g>
	<path fill-rule="evenodd" clip-rule="evenodd" fill="#FEFEFE" d="M134.98,105.99c-2.771,1.56-5.2,0.43-7.631-0.811
		c-0.13-0.06-0.25-0.13-0.38-0.189c-3.64-0.431-7.12-1.42-10.43-3.101c4.38-0.59,8.3,1.38,12.43,2.12
		C130.97,104.7,133.24,104.54,134.98,105.99z"/>
	<path fill-rule="evenodd" clip-rule="evenodd" fill="#FEFEFE" d="M134.99,105.99h-0.01c0-0.01,0.01-0.01,0.01-0.01V105.99z"/>
	<path fill-rule="evenodd" clip-rule="evenodd" fill="#FEFEFE" d="M175.36,117.7c-2.46-0.58-4.91-1.16-7.37-1.74
		c-4-1-8-1.99-12-2.99c-1.99-0.71-4.28-0.52-6.01-2.02c-4.57-1.03-9.141-2.061-13.711-3.11c-0.939-0.22-1.17-1.02-1.279-1.85
		c5.1,0.96,10.21,1.84,14.979,4.02c2.561-0.109,4.96,0.33,7.04,1.95c4.181,0.271,8.181,1.271,11.99,3.01
		C171.42,114.95,173.73,115.22,175.36,117.7z"/>
	<path fill-rule="evenodd" clip-rule="evenodd" fill="#FEFEFE" d="M42.64,16.49c0.08,0.18,0.2,0.35,0.37,0.51v-1.05
		C42.89,16.13,42.76,16.31,42.64,16.49z M152.19,159.03c-16.181-8.811-32.91-16.681-47.761-27.79
		C90.21,120.6,76.15,109.76,63.67,97.07c-5.03-5.11-9.15-10.95-11.94-17.64c-0.38-0.91-1.03-1.82-0.23-2.76
		c0.53-0.63,1.23-0.31,1.81,0.02c7.47,4.25,15.91,6.72,22.68,12.26c0.19,1.46-1.54,2.58-0.61,4.43c3.43-0.49,6.94-0.979,10.46-1.479
		c5.79,3.02,12.09,4.75,18.16,7.06c1.33,0.33,2.66,0.67,3.99,1.01l3,0.99c1.17-0.31,2.33,1.521,3.58,0.04
		c-0.88-1.58-2.38-0.79-3.58-1.04c-0.73-1.14-1.9-0.94-3-0.99c-0.721-1.149-1.891-0.95-2.98-1c-6.18-2.649-12.37-5.25-18.88-7.01
		c-2.17-2.93-4.34-5.86-6.67-9.02c-0.93,1.62-1.64,2.86-2.35,4.1C68,82.54,59.53,77.69,50.79,73.4c-1.79-0.88-2.01-2.57-2.52-4.06
		c-1.83-5.43-3.52-10.91-5.26-16.37c-0.11-0.75-0.2-1.5-0.28-2.25c-0.03-0.18-0.05-0.36-0.06-0.54c-0.07-0.61-0.13-1.22-0.18-1.84
		c-0.09-0.91-0.15-1.83-0.21-2.75c-0.05-0.81-0.09-1.62-0.13-2.43c-0.14-3.16-0.17-6.32-0.17-9.49c-0.01-3.56,0.03-7.12-0.01-10.68
		c0.01-1.33,0.02-2.65,0.04-3.97c-0.12-0.12-0.24-0.24-0.35-0.36c0.04-0.15,0.09-0.3,0.16-0.45c0.06-0.29,0.14-0.58,0.24-0.86
		c-0.23,0.36-0.43,0.73-0.6,1.11c-0.02,0.04-0.04,0.08-0.05,0.12c-0.16,0.36-0.3,0.73-0.4,1.11c0,0,0,0,0,0.01
		c-0.23,0.87-0.32,1.75-0.36,2.63c-0.02,0.51-0.03,1.01-0.04,1.51c0,1.36,0,2.71-0.02,4.07v1.85c0.01,0.18,0.01,0.36-0.01,0.53
		c0,0.61-0.01,1.2,0,1.81c0,0,0,0,0,0.01c0,0.52-0.01,1.04-0.01,1.56c0,6.12,0.18,12.23,1.27,18.29c0.11,0.6,0.23,1.2,0.36,1.8
		c0,0.01,0.01,0.02,0.01,0.03c1.14,5.25,2.92,10.31,4.64,15.39c0.14,0.41,0.28,0.83,0.43,1.24c0.6,1.66,1.39,3.25,3.1,3.98
		c4.05,1.72,7.95,3.73,11.86,5.73c2.71,1.26,5.41,2.54,8.03,3.99c2.03,0.95,4.09,1.84,6.19,2.63c0.22-0.18,0.43-0.35,0.63-0.5
		c0.03-0.02,0.06-0.04,0.09-0.06c2.14-1.53,3.88-1.31,5.32,1.67c0.72,1.48,1.81,2.86,3.49,3.49c0.12,0.04,0.25,0.08,0.38,0.12
		c0.01,0,0.01,0.011,0.02,0.011c6.04,2.369,12.09,4.77,18.28,6.75c0.021,0.01,0.04,0.01,0.061,0.02c0.05,0.01,0.1,0.03,0.149,0.05
		c1.021,0.32,2.03,0.65,3.03,1.021c0.03,0.01,0.05,0.01,0.08,0.02c0.13,0.03,0.26,0.07,0.39,0.11c0.79,0.229,1.57,0.52,2.37,0.81
		c0.03,0.01,0.05,0.021,0.08,0.03c0.06,0.02,0.11,0.03,0.16,0.05c0.27,0.07,0.47,0.11,0.62,0.13c-0.16,0.011-0.38-0.01-0.62-0.06
		c-0.03,0-0.07,0-0.101-0.01c-0.05-0.021-0.109-0.04-0.159-0.061c-0.761-0.29-1.551-0.58-2.36-0.8c-0.13-0.04-0.25-0.07-0.38-0.09
		c-0.05-0.021-0.101-0.03-0.15-0.04c-0.97-0.43-2-0.71-3.01-1.05c-0.05-0.021-0.11-0.04-0.16-0.061c-0.26-0.09-0.51-0.18-0.76-0.28
		c-5.98-1.789-11.69-4.31-17.55-6.439c-0.09-0.03-0.17-0.061-0.26-0.09c-0.04-0.021-0.09-0.04-0.13-0.061
		c-2.2-1.01-4.4-0.399-6.55,0.141c-2.58,0.66-2.62-0.971-2.67-2.69c-0.01-0.03-0.01-0.05-0.02-0.08c-0.04-0.19-0.08-0.39-0.16-0.56
		c-0.04-0.11-0.1-0.2-0.19-0.27c-1.96-1.44-4.01-2.7-6.11-3.85c-2.71-1.26-5.38-2.62-8.03-3.99c-3.08-1.42-6.17-2.8-9.18-4.33
		c-2.23-1.13-3.02,0.76-2.43,2.75c0.99,3.37,2.84,6.36,4.77,9.28c2.11,3.17,4.45,6.12,6.95,8.9c-5.29-5.25-9.89-11.4-11.9-18.74
		c-0.84-3.05-2.24-5.16-4.43-6.83c-0.51-0.39-1.06-0.75-1.66-1.1c-5.92-3.43-11.49-7.39-16.1-12.48
		c-6.07-6.71-10.03-14.88-14.7-22.53c-0.28-0.45-0.55-0.91-0.81-1.38C10.71,30.05,9.13,26.13,8.21,22C7.79,20.99,7.39,19.98,7,18.96
		c-1.73,1.64-0.02,3.14,0.35,4.55c0.17,0.66,0.36,1.3,0.56,1.95c0.14,0.45,0.29,0.9,0.45,1.35c0.07,0.21,0.15,0.43,0.23,0.64
		c0.45,1.22,0.94,2.42,1.47,3.59c0.2,0.44,0.42,0.88,0.63,1.32s0.43,0.87,0.64,1.31c0.01,0.02,0.02,0.04,0.03,0.06
		c0.31,0.59,0.62,1.17,0.94,1.75c1.13,2.07,2.35,4.1,3.61,6.1c0.33,0.53,0.66,1.05,0.99,1.58c0.37,0.59,0.75,1.18,1.12,1.77
		c0.94,1.47,1.87,2.95,2.79,4.44c0.46,0.74,0.91,1.49,1.35,2.24c5.38,9.13,13.87,15.02,22.77,20.27c2.16,1.28,3.56,2.7,4.24,5.15
		c2.16,7.73,6.93,14.03,12.23,19.73c13.05,14.04,28.06,25.891,43.71,36.811c25.17,17.569,53.199,30.1,80.17,44.5
		c0.33,0.17,0.84,0.02,1.26,0.02C175.31,171.24,163.67,165.28,152.19,159.03z M62.42,96.8c4.65,4.601,9.39,9.07,14.24,13.391
		C71.65,105.98,66.78,101.63,62.42,96.8z M142,154.51c-2.71-1.43-5.42-2.85-8.14-4.27c-6.101-3.181-12.03-6.601-17.79-10.23
		c-3.561-2.17-7.03-4.479-10.431-6.88c-10-6.95-19.53-14.54-28.66-22.66c9.34,7.83,18.72,15.63,28.66,22.66
		c3.42,2.37,6.891,4.67,10.431,6.88c1.609,1.01,3.25,1.98,4.899,2.92C127.91,146.89,134.92,150.72,142,154.51
		c4.68,2.471,9.35,4.96,14.06,7.46C151.34,159.49,146.66,157.01,142,154.51z M156.55,162.23c9.37,4.92,18.86,9.859,28.47,14.979
		C175.27,172.18,165.85,167.17,156.55,162.23z M6.7,16.8c-0.42-0.77-0.73-1.59-0.99-2.43c-0.01-0.02-0.02-0.04-0.02-0.07
		c-0.03-0.08-0.05-0.17-0.08-0.26C4.45,10.7,4.18,7.1,3.1,3.72C2.81,2.79,2.45,1.88,2,1c-0.15,4.91,0.99,9.55,2.99,14.01
		c0,1.44-0.02,2.9,2.01,2.98C6.9,17.59,6.8,17.2,6.7,16.8z"/>
	<path fill-rule="evenodd" clip-rule="evenodd" fill="#FEFEFE" d="M187.48,120.39c-4.36,0.561-7.011-1.47-9.891-2.56
		C180.83,117.55,183.88,118.03,187.48,120.39z"/>
	<path fill-rule="evenodd" clip-rule="evenodd" fill="#FEFEFE" d="M7,17.99c-0.88-0.89-1.29-2.01-1.61-3.16
		c-0.02-0.06-0.04-0.11-0.05-0.17c-0.1-0.34-0.19-0.67-0.28-1.01C4.77,10.31,2.71,7.12,3.1,3.72C3.21,2.83,3.48,1.92,4,1
		C3.71,5.48,5.1,9.7,5.99,14c0.23,0.93,0.47,1.87,0.71,2.8C6.8,17.2,6.9,17.59,7,17.99z"/>
	<path fill-rule="evenodd" clip-rule="evenodd" fill="#FEFEFE" d="M46.59,71.03c-0.19,0.09-0.38,0.13-0.57,0.13
		c-0.8,0.01-1.63-0.59-2.38-1.03c-7.89-4.7-15.12-10.23-20.1-18.07c-3.84-6.05-7.9-12.02-11.16-18.39
		c-1.91-3.76-3.56-7.66-4.72-11.81C7.39,20.9,6.98,19.98,7,18.96c0.39,1.02,0.79,2.03,1.21,3.04c1.62,3.98,3.41,7.86,5.34,11.67
		c2.74,5.39,5.77,10.62,9.08,15.73C28.52,58.5,36.46,65.08,46.59,71.03z"/>
	<path fill-rule="evenodd" clip-rule="evenodd" fill="#FEFEFE" d="M42.14,13.14c-0.04-0.04-0.08-0.09-0.12-0.13
		C43.34,9.01,44.67,5,45.99,1c0.26,0.9,0.32,1.76,0.24,2.58c-0.29,3.32-2.72,6.18-2.88,9.54v0.05c-0.01,0.61-0.14,1.18-0.34,1.74
		c-0.14,0.43-0.32,0.85-0.49,1.27c-0.16-0.66,0.07-1.37,0.09-2.05c0.02-0.08,0.05-0.15,0.07-0.23
		C42.43,13.72,42.34,13.38,42.14,13.14z"/>
	<path fill-rule="evenodd" clip-rule="evenodd" fill="#FEFEFE" d="M47.28,70.42c-0.1,0.16-0.25,0.32-0.45,0.47
		c-0.01,0-0.01,0.01-0.02,0.01c-1.47-6.37-4.57-11.28-4.8-16.91c-0.91-6.75-2.11-13.47-2-20.32c0-0.23,0.01-0.46,0.01-0.69
		c0.35-0.89,0.54-1.79,0.56-2.69c0.02-0.17,0.02-0.35,0.01-0.53c-0.02-0.91-0.21-1.83-0.57-2.75c0.18-1.56-0.53-3.3,0.63-4.68
		c0.04-0.88,0.13-1.76,0.36-2.63c0-0.01,0-0.01,0-0.01c0-0.56,0.01-1.12,0.02-1.68c0.04,0.04,0.08,0.09,0.12,0.13
		c0.11,0.1,0.21,0.21,0.31,0.32c0.17-0.38,0.37-0.75,0.6-1.11c-0.1,0.28-0.18,0.57-0.24,0.86c-0.07,0.15-0.12,0.3-0.16,0.45
		c-0.02,0.06-0.03,0.12-0.04,0.18c-0.24,1.03-0.05,2.1-0.27,3.13c-0.01,0.05-0.03,0.09-0.04,0.14c-0.02,0.05-0.03,0.11-0.04,0.16
		c-0.45,1.7-0.21,3.43-0.28,5.15v5.72c-0.01,0.18-0.01,0.36-0.02,0.53c-0.21,6.51,0.77,12.92,1.6,19.34
		c0.01,0.05,0.02,0.11,0.03,0.16c0,0.06,0.01,0.13,0.03,0.19c0.74,4.81,2.38,9.36,4.05,13.91C47.04,68.24,47.92,69.45,47.28,70.42z"
		/>
	<path fill-rule="evenodd" clip-rule="evenodd" fill="#FEFEFE" d="M47.99,1c-1.55,4.04-3.09,8.08-4.64,12.12v0.05
		c-0.01,0.61-0.14,1.18-0.34,1.74V17c-0.17-0.16-0.29-0.33-0.37-0.51c-0.06-0.1-0.1-0.2-0.12-0.31c-0.16-0.66,0.07-1.37,0.09-2.05
		c0.02-0.08,0.05-0.15,0.07-0.23c0.02-0.05,0.04-0.11,0.05-0.16c1.06-3.43,1.76-7.01,3.5-10.16C46.72,2.68,47.3,1.82,47.99,1z"/>
	<path fill-rule="evenodd" clip-rule="evenodd" fill="#ECECEC" d="M5.99,14c-0.04,0.04-0.09,0.09-0.12,0.13
		c-0.06,0.07-0.11,0.15-0.16,0.24c-0.1,0.16-0.19,0.34-0.32,0.46c-0.1,0.1-0.23,0.16-0.4,0.18C2.99,10.55,1.85,5.91,2,1h2
		C3.71,5.48,5.1,9.7,5.99,14z"/>
	<path fill-rule="evenodd" clip-rule="evenodd" fill="#EBEBEB" d="M47.99,1c-1.55,4.04-3.09,8.08-4.64,12.12v0.01
		c-0.11,0.3-0.23,0.59-0.34,0.89c-0.14-0.01-0.25-0.06-0.33-0.12c-0.25-0.18-0.34-0.52-0.54-0.76c-0.04-0.04-0.08-0.09-0.12-0.13
		C43.34,9.01,44.67,5,45.99,1H47.99z"/>
	<path fill-rule="evenodd" clip-rule="evenodd" fill="#E9E9E9" d="M186.54,178.09c-0.42,0-0.93,0.15-1.26-0.02
		c-26.971-14.4-55-26.931-80.17-44.5C89.46,122.65,74.45,110.8,61.4,96.76c-5.3-5.7-10.07-12-12.23-19.73
		c-0.68-2.45-2.08-3.87-4.24-5.15c-8.9-5.25-17.39-11.14-22.77-20.27c-0.44-0.75-0.89-1.5-1.35-2.24c-0.91-1.49-1.85-2.96-2.79-4.44
		c-0.37-0.59-0.75-1.18-1.12-1.77c-0.33-0.53-0.66-1.05-0.99-1.58c-1.26-2-2.48-4.03-3.61-6.1c-0.32-0.58-0.63-1.16-0.94-1.75
		c-0.01-0.02-0.02-0.04-0.03-0.06c-0.21-0.44-0.43-0.87-0.64-1.31s-0.43-0.88-0.63-1.32c-0.53-1.17-1.03-2.37-1.47-3.59
		c-0.08-0.21-0.16-0.43-0.23-0.64c-0.16-0.45-0.31-0.9-0.45-1.35c-0.2-0.65-0.39-1.29-0.56-1.95C6.98,22.1,5.27,20.6,7,18.96
		c0.39,1.02,0.79,2.03,1.21,3.04c1.62,3.98,3.41,7.86,5.34,11.67c2.74,5.39,5.77,10.62,9.08,15.73c5.89,9.1,13.83,15.68,23.96,21.63
		l0.3,0.18c-0.02-0.11-0.05-0.21-0.08-0.31c-1.47-6.37-4.57-11.28-4.8-16.91c0.04-0.04,0.09-0.09,0.12-0.13
		c0.03-0.03,0.05-0.06,0.07-0.1c0.13-0.2,0.23-0.44,0.4-0.59c0.1-0.11,0.23-0.18,0.41-0.2c1.74,5.46,3.43,10.94,5.26,16.37
		c0.51,1.49,0.73,3.18,2.52,4.06c8.74,4.29,17.21,9.14,26.32,12.64c0.02,0.05,0.05,0.1,0.07,0.15c0.54,1.14,0.86,2.19-0.45,2.61
		c-0.2,0.07-0.45,0.12-0.74,0.15c-6.77-5.54-15.21-8.01-22.68-12.26c-0.58-0.33-1.28-0.65-1.81-0.02c-0.8,0.94-0.15,1.85,0.23,2.76
		c2.79,6.69,6.91,12.53,11.94,17.64c12.48,12.689,26.54,23.529,40.76,34.17c14.851,11.109,31.58,18.979,47.761,27.79
		C163.67,165.28,175.31,171.24,186.54,178.09z"/>
	<path fill-rule="evenodd" clip-rule="evenodd" fill="#15A1BB" d="M86.39,91.48c0,0.039-0.01,0.069-0.03,0.1
		c-0.02,0.04-0.04,0.08-0.08,0.11c-0.14,0.14-0.29,0.21-0.44,0.21c-3.52,0.5-7.03,0.989-10.46,1.479c-0.93-1.85,0.8-2.97,0.61-4.43
		c0.25-0.22,0.44-0.45,0.58-0.71c0.35-0.59,0.47-1.28,0.52-1.99c0.01-0.07,0.02-0.14,0.02-0.21c0.71-1.24,1.42-2.48,2.35-4.1
		c2.33,3.16,4.5,6.09,6.67,9.02C86.31,91.17,86.39,91.34,86.39,91.48z"/>
	<path fill-rule="evenodd" clip-rule="evenodd" fill="#E9E9E9" d="M43.01,52.97c-0.13,0.13-0.25,0.26-0.38,0.39
		c-0.14,0.14-0.28,0.29-0.42,0.43c-0.02,0.02-0.05,0.05-0.08,0.07c-0.03,0.04-0.08,0.09-0.12,0.13c-0.91-6.75-2.11-13.47-2-20.32
		c0-0.23,0.01-0.46,0.01-0.69c0.35-0.89,0.54-1.79,0.56-2.69c0.02-0.17,0.02-0.35,0.01-0.53c-0.02-0.91-0.21-1.83-0.57-2.75
		c0.18-1.56-0.53-3.3,0.63-4.68c0.09-0.12,0.2-0.24,0.33-0.35c0.14,0.01,0.25,0.06,0.33,0.13c0.26,0.17,0.35,0.5,0.54,0.75
		c0.04,0.04,0.08,0.09,0.12,0.13c0.04,3.56,0,7.12,0.01,10.68c0,3.17,0.03,6.33,0.17,9.49c0.04,0.81,0.08,1.62,0.13,2.43
		c0.06,0.92,0.12,1.84,0.21,2.75c0.05,0.62,0.11,1.23,0.18,1.84c0.01,0.18,0.03,0.36,0.06,0.54C42.81,51.47,42.9,52.22,43.01,52.97z
		"/>
	<path fill-rule="evenodd" clip-rule="evenodd" fill="#EAEAEA" d="M105.01,97.97c-0.02,0.141-0.06,0.25-0.13,0.33
		c-0.01,0.021-0.03,0.04-0.05,0.061c-0.18,0.21-0.48,0.31-0.7,0.479c-0.04,0.04-0.09,0.08-0.13,0.12
		c-6.07-2.31-12.37-4.04-18.16-7.06c0.03-0.16,0.08-0.311,0.13-0.471c0-0.02,0.01-0.05,0.02-0.08c0.04-0.13,0.09-0.26,0.14-0.39
		C92.64,92.72,98.83,95.32,105.01,97.97z"/>
	<path fill-rule="evenodd" clip-rule="evenodd" fill="#ECECEC" d="M150.24,110.64c-0.09,0.21-0.17,0.311-0.26,0.311
		c-4.57-1.03-9.141-2.061-13.711-3.11c-0.939-0.22-1.17-1.02-1.279-1.85c5.1,0.96,10.21,1.84,14.979,4.02
		C150.23,110.22,150.32,110.43,150.24,110.64z"/>
	<path fill-rule="evenodd" clip-rule="evenodd" fill="#EAEAEA" d="M128.97,104.01c0.08,1.641-0.66,1.61-1.62,1.17
		c-0.13-0.06-0.25-0.13-0.38-0.189c-3.64-0.431-7.12-1.42-10.43-3.101C120.92,101.3,124.84,103.27,128.97,104.01z"/>
	<path fill-rule="evenodd" clip-rule="evenodd" fill="#EBEBEB" d="M169,114.97c-0.05,0.53-0.56,0.62-0.88,0.87
		c-0.04,0.04-0.09,0.08-0.13,0.12c-4-1-8-1.99-12-2.99c-0.221-0.899-0.05-1.41,1.02-1.01C161.19,112.23,165.19,113.23,169,114.97z"
		/>
	<path fill-rule="evenodd" clip-rule="evenodd" fill="#ECECEC" d="M187.48,120.39c-4.36,0.561-7.011-1.47-9.891-2.56
		C180.83,117.55,183.88,118.03,187.48,120.39z"/>
	<path fill-rule="evenodd" clip-rule="evenodd" fill="#ECECEC" d="M134.98,105.99c-2.771,1.56-5.2,0.43-7.631-0.811
		c-0.13-0.06-0.25-0.13-0.38-0.189c0.82-0.021,1.57-0.181,2-0.98C130.97,104.7,133.24,104.54,134.98,105.99z"/>
	<path fill-rule="evenodd" clip-rule="evenodd" fill="#ECECEC" d="M134.99,105.98v0.01h-0.01
		C134.98,105.98,134.99,105.98,134.99,105.98z"/>
	<path fill-rule="evenodd" clip-rule="evenodd" fill="#ECECEC" d="M157.01,111.96c-0.34,0.34-0.68,0.67-1.02,1.01
		c-1.99-0.71-4.28-0.52-6.01-2.02c0-0.311,0-0.62-0.011-0.94C152.53,109.9,154.93,110.34,157.01,111.96z"/>
	<path fill-rule="evenodd" clip-rule="evenodd" fill="#E8E8E8" d="M175.36,117.7c-2.46-0.58-4.91-1.16-7.37-1.74
		c0.04-0.04,0.09-0.08,0.13-0.12c0.3-0.29,0.58-0.58,0.88-0.87C171.42,114.95,173.73,115.22,175.36,117.7z"/>
	<path fill-rule="evenodd" clip-rule="evenodd" fill="#E7E7E7" d="M41.46,18.46c0.17-0.38,0.37-0.75,0.6-1.11
		c-0.1,0.28-0.18,0.57-0.24,0.86c-0.07,0.15-0.12,0.3-0.16,0.45c0.11,0.12,0.23,0.24,0.35,0.36c-0.17-0.02-0.29-0.08-0.39-0.18
		c-0.09-0.07-0.15-0.16-0.21-0.26c-0.09-0.15-0.16-0.31-0.26-0.44C41.26,18.24,41.36,18.35,41.46,18.46z"/>
	<path fill-rule="evenodd" clip-rule="evenodd" fill="#E7E7E7" d="M43.01,14.02V17c-0.17-0.16-0.29-0.33-0.37-0.51
		c-0.1,0.15-0.21,0.29-0.31,0.44c-0.09,0.14-0.18,0.28-0.27,0.42c0.13-0.4,0.29-0.79,0.46-1.17c-0.16-0.66,0.07-1.37,0.09-2.05
		c0.02-0.08,0.05-0.15,0.07-0.23c-0.25-0.18-0.34-0.52-0.54-0.76c0.2,0.2,0.4,0.4,0.59,0.6C42.83,13.84,42.92,13.93,43.01,14.02z"/>
	<path fill-rule="evenodd" clip-rule="evenodd" fill="#E7E7E7" d="M7,17.99c-2.03-0.08-2.01-1.54-2.01-2.98l0.35-0.35
		c0.12-0.12,0.23-0.24,0.35-0.36c0.06-0.05,0.12-0.11,0.18-0.17C5.9,14.09,5.95,14.04,5.99,14c0.23,0.93,0.47,1.87,0.71,2.8
		C6.8,17.2,6.9,17.59,7,17.99z"/>
	<path fill-rule="evenodd" clip-rule="evenodd" fill="#E7E7E7" d="M108.38,99.45c0,0.03,0,0.06-0.01,0.09s-0.021,0.06-0.04,0.1
		c-0.11,0.221-0.23,0.33-0.34,0.33c-1.33-0.34-2.66-0.68-3.99-1.01c0.04-0.04,0.09-0.08,0.13-0.12c0.18-0.18,0.36-0.359,0.54-0.54
		c0.021-0.02,0.04-0.04,0.061-0.05c0.09-0.1,0.189-0.19,0.279-0.28c1.09,0.05,2.26-0.149,2.98,1
		C108.24,99.13,108.37,99.3,108.38,99.45z"/>
	<path fill-rule="evenodd" clip-rule="evenodd" fill="#E7E7E7" d="M114.57,101c-1.25,1.48-2.41-0.35-3.58-0.04
		c-0.23-0.2-0.32-0.42-0.26-0.62c0-0.02,0-0.04,0.01-0.05c0-0.01,0.01-0.021,0.01-0.03c0.09-0.2,0.16-0.3,0.24-0.3
		C112.19,100.21,113.69,99.42,114.57,101z"/>
	<path fill-rule="evenodd" clip-rule="evenodd" fill="#E6E6E6" d="M42.01,19.02c-0.02,1.32-0.03,2.64-0.04,3.97
		c-0.04-0.04-0.08-0.09-0.12-0.13c-0.2-0.2-0.39-0.4-0.58-0.59l-0.29-0.29c0.01-0.76,0.02-1.52,0.03-2.28c0-0.01,0-0.01,0-0.01
		c0-0.56,0.01-1.12,0.02-1.68c0.04,0.04,0.08,0.09,0.12,0.13c0.11,0.1,0.21,0.21,0.31,0.32c0.07,0.06,0.13,0.13,0.2,0.2
		C41.77,18.78,41.89,18.9,42.01,19.02z"/>
	<path fill-rule="evenodd" clip-rule="evenodd" fill="#E7E7E7" d="M110.99,99.96v1l-3-0.99v-1
		C109.09,99.02,110.26,98.82,110.99,99.96z"/>
	<path fill-rule="evenodd" clip-rule="evenodd" fill="#E8E8E8" d="M40.99,31.04c-0.09,0.35-0.22,0.71-0.41,1.06c0,0,0,0,0,0.01
		c-0.16,0.29-0.34,0.58-0.56,0.87c0.35-0.89,0.54-1.79,0.56-2.69c0.02-0.17,0.02-0.35,0.01-0.53c-0.02-0.91-0.21-1.83-0.57-2.75
		c0.22,0.3,0.41,0.6,0.57,0.9v0.01c0.18,0.35,0.32,0.69,0.4,1.04C41.17,29.65,41.17,30.35,40.99,31.04z"/>
</g>
<path fill-rule="evenodd" clip-rule="evenodd" fill="#FFFFFF" d="M134.99,105.98v0.01h-0.01
	C134.98,105.98,134.99,105.98,134.99,105.98z"/>
</svg>
