<?xml version="1.0" encoding="utf-8"?>
<!-- Generator: Adobe Illustrator 16.0.0, SVG Export Plug-In . SVG Version: 6.00 Build 0)  -->
<!DOCTYPE svg PUBLIC "-//W3C//DTD SVG 1.1//EN" "http://www.w3.org/Graphics/SVG/1.1/DTD/svg11.dtd">
<svg version="1.1" id="Layer_1" xmlns="http://www.w3.org/2000/svg" xmlns:xlink="http://www.w3.org/1999/xlink" x="0px" y="0px"
	 width="78.99px" height="210.974px" viewBox="0 0 78.99 210.974" enable-background="new 0 0 78.99 210.974" xml:space="preserve">
<g>
	<path fill-rule="evenodd" clip-rule="evenodd" fill="#FEFEFE" d="M45.467,38.412c8.65,10.62,18.4,20.64,21.789,34.61
		c0.15,0.62,0.351,1.71,1.861,1.22c-0.101-0.35-0.211-0.71-0.311-1.06c-0.131,0.19-0.45,0.46-0.7,0.17
		c-0.33-1.55-0.75-3.04-1.26-4.49c0.521,1.34,0.979,2.71,1.39,4.11c0.08,0.31,0.28,0.35,0.46,0.17c0.03-0.03,0.06-0.06,0.08-0.06
		c-1.521-5.17-3.17-10.24-6.25-14.78c-12.5-18.44-27.53-34.82-41.94-51.7c-1.7-1.99-2.52-5.28-5.92-5.6
		c0.64,0.7,1.27,1.39,1.89,2.09c2.03,1.48,3.44,3.64,4.98,5.5c0.39,0.47,0.79,0.95,1.19,1.42c5.11,5.82,10.1,11.75,15.01,17.75
		c-5-5.91-10.05-11.8-15.01-17.75c-2.03-2.33-4.09-4.63-6.17-6.92c-0.57-0.43-1.2-0.8-1.89-1.09
		C24.957,14.122,35.437,26.082,45.467,38.412z M66.816,68.772c-1.16-3.05-2.561-5.95-4.141-8.72
		C64.326,62.812,65.746,65.692,66.816,68.772z M48.776,41.112c4.97,5.91,9.82,11.89,13.67,18.54c-2.47-4.08-5.39-7.89-8.31-11.71
		C52.377,45.642,50.586,43.372,48.776,41.112c-2.569-3.07-5.18-6.11-7.69-9.22c-1.06-1.32-2.129-2.63-3.199-3.95
		C41.566,32.292,45.217,36.672,48.776,41.112z"/>
	<path fill-rule="evenodd" clip-rule="evenodd" fill="#FEFEFE" d="M46.916,150.682c-0.049,0.12-0.14,0.23-0.24,0.34
		c-8.559,20.091-19.659,38.841-30.5,57.721c-0.3,0.529-1,0.83-1.51,1.229c0.45-1.04,0.91-2.069,1.41-3.09
		c0.93-2.01,1.94-3.99,2.99-5.939c0.02-0.03,0.04-0.061,0.05-0.091c0.39-0.67,0.75-1.34,1.11-2.029c0.02-0.021,0.03-0.051,0.04-0.08
		c4.46-8.04,9.51-15.76,13.8-23.891c2.18-4.13,3.92-8.47,5.811-12.739c0.699-1.61,1.43-3.221,2.209-4.79
		c0.881-1.771,1.82-3.511,2.871-5.19c0.369-0.59,0.75-1.17,1.14-1.74c0.14-0.17,0.28-0.35,0.409-0.52
		c0.121-0.14,0.23-0.29,0.341-0.43c0.021-0.011,0.03-0.03,0.03-0.04c0.41-0.511,0.81-1.021,1.209-1.53
		c0.181-0.24,0.371-0.49,0.551-0.73c0.59-0.17,1.02-0.67,1.34-1.189c0.8-1.32,1.62-2.641,2.43-3.94
		c4.68-6.569,8.83-13.45,12.301-20.72c1.5-2.99,2.859-6.07,3.989-9.28c0.03-0.08,0.06-0.16,0.08-0.24
		c0.03-0.09,0.07-0.17,0.101-0.26c1.859-4.979,1.74-10.1,1.77-15.22c-0.09,5.2-0.13,10.39-1.87,15.479
		c-1.22,3.25-2.58,6.421-4.069,9.521c-3.58,7.2-8.021,13.91-12.301,20.72c-1.21,1.73-2.47,3.44-3.77,5.13
		c-0.25,0.08-0.53,0.101-0.84,0.021c-0.061-0.01-0.121-0.021-0.18-0.05c-0.041-0.011-0.091-0.021-0.131-0.04
		c-0.33-0.511-0.529-1.021-0.619-1.511c-0.101-0.56-0.08-1.119,0.02-1.659c0.119-0.631,0.33-1.24,0.56-1.851
		c0.011-0.02,0.011-0.05,0.03-0.069c0.189-0.521,0.391-1.04,0.55-1.561c2.101-6.82,4.61-13.5,5.37-20.68
		c1.3-12.271-1.84-23.67-6.689-34.7c-4.82-10.96-12.661-19.81-20.531-28.61c-0.12-0.2-0.24-0.39-0.37-0.58
		c-0.08-0.12-0.16-0.24-0.24-0.36c-1.46-2.11-3.26-3.9-5.36-5.4c-0.04-0.04-0.09-0.07-0.13-0.1c-0.08-0.05-0.16-0.11-0.24-0.16
		c-1.5-1.01-2.76-2.23-3.8-3.65c-0.51-0.68-0.96-1.41-1.37-2.19c2,1.67,4,3.34,5.99,5.01c2.41,1.6,4.41,3.59,6,6
		c8.14,9.16,16.099,18.42,21.41,29.68c4.38,9.28,6.689,19.2,7.21,29.15c0.47,9.01-2.71,17.89-5.81,26.47
		c-0.78,2.17-1.85,4.28-1.801,6.67c9.28-12.16,17.58-24.93,21.621-39.859c1.049-3.891,0.229-8.271,0.409-12.42
		c0.08-1.65-0.81-3.69,1.74-5.14C74.066,114.562,59.996,132.422,46.916,150.682z"/>
	<path fill-rule="evenodd" clip-rule="evenodd" fill="#FEFEFE" d="M68.006,77.022c2.99,2.03,4.061,3.39,7.561,9.63
		c-3.88,1.43-7.9,1.73-12.52,2.47C64.847,84.742,66.426,80.882,68.006,77.022z"/>
	<path fill-rule="evenodd" clip-rule="evenodd" fill="#FEFEFE" d="M49.646,137.622c-1.02,2.59-2.189,5.18-2.779,7.939
		c-0.131,0.65-0.23,1.301-0.291,1.971c-0.08,0.319-0.17,0.64-0.27,0.96c-0.09,0.31-0.18,0.609-0.28,0.92
		c-0.319,0.93-0.67,1.84-1.069,2.72c-0.801,1.811-1.771,3.53-2.871,5.19c-0.689,1.06-1.439,2.1-2.229,3.12
		c-0.12,0.149-0.25,0.3-0.38,0.449c-0.109,0.141-0.221,0.271-0.34,0.41c-0.12,0.15-0.25,0.311-0.39,0.46
		c-6.03,7.181-12.69,13.811-18.99,20.78c-0.03,0.03-0.06,0.07-0.09,0.1c-0.05,0.051-0.1,0.11-0.15,0.17
		c-1.02,1.131-1.76,2.7-3.25,3.131c-0.45,0.14-0.98,0.159-1.6,0.04c1.72-0.95,3.01-2.341,4.03-3.99c6.66-7.34,13.33-14.67,20-22
		c3.29-3.44,4.88-7.87,6.97-12.01c0.4-1.36,0.811-2.721,1.221-4.08c0.119-0.631,0.33-1.24,0.56-1.851
		c0.011-0.02,0.011-0.05,0.03-0.069c1.439-4.78,2.891-9.561,4.21-14.381c4.71-17.22-0.14-32.93-8.021-48.05
		c-4.619-8.86-11.45-16.12-18.009-23.55c-2.38-1.62-4.38-3.62-5.99-6c-1.67-1.34-3.33-2.67-5-4.01c0.53-0.04,0.97,0.03,1.37,0.19
		c1.68,0.64,2.38,2.71,3.98,3.47c0.02,0.02,0.05,0.03,0.07,0.04c0.13,0.11,0.26,0.22,0.39,0.34c1.85,1.58,3.61,3.26,5.16,5.14
		c0.13,0.15,0.25,0.31,0.38,0.47c0.18,0.22,0.36,0.46,0.53,0.69c8.3,8.42,15.65,17.55,20.61,28.35
		C55.086,101.962,56.736,119.562,49.646,137.622z"/>
	<path fill-rule="evenodd" clip-rule="evenodd" fill="#E7E7E7" d="M69.117,74.242c-1.511,0.49-1.711-0.6-1.861-1.22
		c-3.389-13.97-13.139-23.99-21.789-34.61c-10.03-12.33-20.51-24.29-30.8-36.41v-1c3.4,0.32,4.22,3.61,5.92,5.6
		c14.41,16.88,29.44,33.26,41.94,51.7c3.08,4.54,4.729,9.61,6.25,14.78c0.011,0.03,0.021,0.06,0.03,0.1
		C68.906,73.532,69.017,73.892,69.117,74.242z"/>
	<path fill-rule="evenodd" clip-rule="evenodd" fill="#E7E7E7" d="M47.066,149.922c0.03,0.271-0.02,0.53-0.15,0.76
		c-0.049,0.12-0.14,0.23-0.24,0.34c-8.559,20.091-19.659,38.841-30.5,57.721c-0.3,0.529-1,0.83-1.51,1.229v-3
		c1.78-1.81,3.17-3.87,4.4-6.029c0.02-0.03,0.04-0.061,0.05-0.091c0.39-0.67,0.75-1.34,1.11-2.029c0.02-0.021,0.03-0.051,0.04-0.08
		c1.14-2.16,2.22-4.36,3.44-6.45c5.76-9.85,12.03-19.47,15.95-30.3c-0.02-0.01-0.039-0.021-0.06-0.04
		c-0.271-0.16-0.39-0.391-0.46-0.65c-0.12-0.45-0.09-0.97-0.44-1.31c3.29-3.44,4.88-7.87,6.97-12.01
		c0.25,0.14,0.461,0.31,0.641,0.51c0.24,0.25,0.42,0.55,0.561,0.88c0,0.01,0.01,0.02,0.01,0.03c0.049,0.109,0.09,0.22,0.129,0.34
		C47.026,149.802,47.047,149.862,47.066,149.922z"/>
	<path fill-rule="evenodd" clip-rule="evenodd" fill="#E7E7E7" d="M20.477,50.032c-0.07,0.04-0.16,0.06-0.27,0.06
		c-0.14,0-0.33-0.03-0.54-0.09c-1.67-1.34-3.33-2.67-5-4.01v-2c2,1.67,4,3.34,5.99,5.01C20.816,49.562,20.756,49.922,20.477,50.032z
		"/>
	<path fill-rule="evenodd" clip-rule="evenodd" fill="#E7E7E7" d="M19.756,182.542c-0.01,0.13-0.04,0.27-0.09,0.43
		c-1.28,2.061-2.94,3.73-5,5.011v-2c1.72-0.95,3.01-2.341,4.03-3.99c0.53-0.141,0.88-0.101,0.99,0.149
		C19.756,182.242,19.776,182.372,19.756,182.542z"/>
	<path fill-rule="evenodd" clip-rule="evenodd" fill="#E7E7E7" d="M49.467,140.302c-0.78,2.17-1.85,4.28-1.801,6.67
		c0.051,0.061,0.09,0.13,0.131,0.19c0.16,0.26,0.25,0.49,0.289,0.71c0.16,0.8-0.379,1.36-1.08,1.87
		c-0.109,0.08-0.219,0.16-0.34,0.24c-0.06-0.03-0.109-0.061-0.16-0.11c-0.209-0.12-0.359-0.28-0.479-0.46
		c-0.271-0.4-0.351-0.9-0.36-1.43c0.4-1.36,0.811-2.721,1.221-4.08c0.189-0.61,0.369-1.23,0.56-1.851
		c0.011-0.02,0.011-0.05,0.03-0.069c1.439-4.78,2.891-9.561,4.21-14.381c4.71-17.22-0.14-32.93-8.021-48.05
		c-4.619-8.86-11.45-16.12-18.009-23.55c-0.06-0.2-0.09-0.37-0.09-0.51c0-0.13,0.02-0.24,0.07-0.32c0.12-0.27,0.47-0.32,1.02-0.17
		c8.14,9.16,16.099,18.42,21.41,29.68c4.38,9.28,6.689,19.2,7.21,29.15C55.746,122.842,52.566,131.722,49.467,140.302z"/>
	<path fill-rule="evenodd" clip-rule="evenodd" fill="#E7E7E7" d="M46.916,150.682c-0.08,0.11-0.16,0.23-0.24,0.34
		c0-0.35-0.01-0.689-0.01-1.039c0.061-0.181,0.121-0.36,0.181-0.54c0.01-0.021,0.01-0.04,0.021-0.07c0.25-0.75,0.5-1.5,0.75-2.26
		c0.02-0.051,0.029-0.091,0.049-0.141c9.28-12.16,17.58-24.93,21.621-39.859c1.049-3.891,0.229-8.271,0.409-12.42
		c0.08-1.65-0.81-3.69,1.74-5.14C74.066,114.562,59.996,132.422,46.916,150.682z"/>
	<path fill-rule="evenodd" clip-rule="evenodd" fill="#404040" d="M75.566,86.652c-3.88,1.43-7.9,1.73-12.52,2.47
		c1.8-4.38,3.379-8.24,4.959-12.1C70.996,79.052,72.066,80.412,75.566,86.652z"/>
	<path fill-rule="evenodd" clip-rule="evenodd" fill="#ECECEC" d="M26.657,55.002c-0.21,0.21-0.42,0.43-0.64,0.64
		c-0.07,0.07-0.14,0.14-0.21,0.21c-0.05,0.05-0.1,0.1-0.15,0.15c-2.38-1.62-4.38-3.62-5.99-6c0.06-0.06,0.11-0.12,0.17-0.17
		l0.18-0.18c0.21-0.22,0.43-0.44,0.64-0.65C23.066,50.602,25.066,52.592,26.657,55.002z"/>
	<path fill-rule="evenodd" clip-rule="evenodd" fill="#E7E7E7" d="M39.656,161.982v0.01c-6.66,7-13.33,13.99-19.99,20.979
		c-0.05-0.05-0.11-0.109-0.15-0.16c-0.08-0.069-0.14-0.14-0.2-0.199c-0.22-0.21-0.42-0.42-0.62-0.62c6.66-7.34,13.33-14.67,20-22
		c0.41,0.229,0.65,0.54,0.78,0.899C39.606,161.222,39.646,161.592,39.656,161.982z"/>
</g>
</svg>
